<svg width="114" height="133" viewBox="0 0 114 133" fill="none" xmlns="http://www.w3.org/2000/svg">
<g filter="url(#filter0_d)">
<path d="M45.7355 96.741L45.5446 114.246" stroke="#2EC5A9" stroke-opacity="0.8"/>
</g>
<g filter="url(#filter1_d)">
<path d="M45.5447 114.246L65.8545 114.226L66.0453 96.7207" stroke="#2EC5A9" stroke-opacity="0.8"/>
</g>
<g filter="url(#filter2_d)">
<path d="M65.3358 74.6099C67.2637 74.608 68.8371 73.644 68.8501 72.4567C68.8631 71.2694 67.3107 70.3084 65.3828 70.3103C63.4549 70.3122 61.8814 71.2762 61.8685 72.4635C61.8555 73.6508 63.4078 74.6118 65.3358 74.6099Z" fill="#7A7A7A"/>
</g>
<g filter="url(#filter3_d)">
<path d="M65.2823 79.5232C67.2102 79.5213 68.7836 78.5573 68.7966 77.37C68.8096 76.1827 67.2572 75.2217 65.3293 75.2236C63.4014 75.2255 61.828 76.1895 61.815 77.3768C61.802 78.5641 63.3544 79.5251 65.2823 79.5232Z" fill="#7A7A7A"/>
</g>
<g filter="url(#filter4_d)">
<path d="M40.4618 27.6466L40.4788 26.1107C40.483 25.7016 40.6192 24.8821 41.127 24.8814C41.6345 24.8815 43.2422 24.88 43.9835 24.879L45.8865 24.877" stroke="#2EC5A9" stroke-opacity="0.8"/>
</g>
<g filter="url(#filter5_d)">
<path d="M73.1617 26.3864C74.0079 26.3849 75.6983 26.5681 75.6904 27.3051C75.6826 28.0421 75.4876 45.8342 75.392 54.6378C76.0287 54.4328 77.4265 54.2669 77.9235 55.2501C78.4203 56.232 77.8599 80.4323 77.5175 92.4103C77.2986 93.0242 76.6084 94.2543 75.5925 94.2546C74.577 94.2562 73.0537 94.2575 72.4194 94.2581M40.1609 26.1114C39.3149 26.1118 37.6191 26.4206 37.6054 27.6493C37.5918 28.8781 37.3463 51.297 37.2257 62.3526L36.8828 93.6787C36.9846 94.0879 37.377 94.9683 38.1361 95.2132C38.8952 95.458 39.7189 95.5183 40.0372 95.5181L40.1609 26.1114Z" stroke="#2EC5A9" stroke-opacity="0.8"/>
</g>
<g filter="url(#filter6_d)">
<path d="M68.0972 25.1613L68.0092 33.1463L46.1124 33.1681L46.3006 15.9695C46.1024 14.7414 46.1512 12.2228 47.9312 11.9752C49.7107 11.7284 53.9617 11.8674 55.8643 11.9675L63.1636 11.9609L70.1452 11.9537" stroke="#2EC5A9" stroke-opacity="0.8"/>
</g>
<g filter="url(#filter7_d)">
<path d="M40.465 27.339L39.7596 91.8324C39.6358 93.47 39.8968 96.746 41.9269 96.7445C43.9583 96.7426 45.3127 96.7407 45.7352 96.7408L45.7554 94.8974L66.3829 94.8778L66.3633 96.7203L70.4886 96.7168C70.9127 96.6132 71.8278 96.1008 72.0958 94.8719C72.3624 93.6433 72.6999 49.3166 72.8348 27.3073C72.9486 26.488 72.7979 24.8498 71.2741 24.8519C69.7509 24.8532 68.524 24.8548 68.1015 24.8546L68.1718 18.4052L68.1981 15.9482L68.2253 13.4918C68.7608 12.8767 70.1488 11.7083 71.4156 11.9535C72.6821 12.1973 73.6246 13.0774 73.9382 13.4859L73.9205 15.0214L73.9104 15.9431L73.9009 16.8639L68.1881 16.8699" stroke="#2EC5A9" stroke-opacity="0.8"/>
</g>
<g filter="url(#filter8_d)">
<path d="M42.0198 59.2772L42.2383 39.3149C42.244 38.8033 42.3195 37.7173 42.5763 37.4722C42.8327 37.2257 43.3201 37.1635 43.5314 37.1636L44.801 37.1628L48.9268 37.1584L69.2366 37.1381C70.7599 37.1368 71.1248 38.5699 71.1176 39.2864L70.899 59.2488C70.8855 60.4777 69.6088 61.1949 68.9715 61.4007L64.5279 61.4045L44.5356 61.424C43.0123 61.4253 42.2238 59.9938 42.0198 59.2772Z" stroke="#2EC5A9" stroke-opacity="0.8"/>
</g>
<g filter="url(#filter9_d)">
<path d="M69.2101 39.5949L44.1392 39.6196L43.9341 58.3531L69.0044 58.3291L69.2101 39.5949Z" fill="#E9B42C"/>
<path d="M69.2101 39.5949L44.1392 39.6196L43.9341 58.3531L69.0044 58.3291L69.2101 39.5949Z" stroke="#2EC5A9" stroke-opacity="0.8"/>
</g>
<g filter="url(#filter10_d)">
<path d="M47.6243 69.0989C49.5523 69.097 51.1257 68.133 51.1387 66.9457C51.1516 65.7584 49.5993 64.7974 47.6714 64.7993C45.7434 64.8012 44.17 65.7652 44.157 66.9525C44.144 68.1398 45.6964 69.1008 47.6243 69.0989Z" fill="#7A7A7A"/>
</g>
<g filter="url(#filter11_d)">
<path d="M56.5106 69.0906C58.4385 69.0887 60.0119 68.1247 60.0249 66.9374C60.0379 65.7501 58.4855 64.7891 56.5576 64.791C54.6297 64.7929 53.0562 65.7569 53.0433 66.9442C53.0303 68.1315 54.5826 69.0925 56.5106 69.0906Z" fill="#7A7A7A"/>
</g>
<g filter="url(#filter12_d)">
<path d="M65.3967 69.0813C67.3246 69.0794 68.898 68.1154 68.911 66.9281C68.924 65.7408 67.3716 64.7798 65.4437 64.7817C63.5158 64.7836 61.9424 65.7476 61.9294 66.9349C61.9164 68.1222 63.4687 69.0832 65.3967 69.0813Z" fill="#7A7A7A"/>
</g>
<g filter="url(#filter13_d)">
<path d="M47.5107 79.5418C49.4386 79.5399 51.012 78.5758 51.025 77.3885C51.038 76.2012 49.4856 75.2403 47.5577 75.2422C45.6298 75.2441 44.0564 76.2081 44.0434 77.3954C44.0304 78.5827 45.5828 79.5437 47.5107 79.5418Z" fill="#7A7A7A"/>
</g>
<g filter="url(#filter14_d)">
<path d="M47.5642 74.627C49.4921 74.6251 51.0655 73.661 51.0785 72.4737C51.0915 71.2865 49.5391 70.3255 47.6112 70.3274C45.6833 70.3293 44.1098 71.2933 44.0968 72.4806C44.0839 73.6679 45.6362 74.6289 47.5642 74.627Z" fill="#7A7A7A"/>
</g>
<g filter="url(#filter15_d)">
<path d="M56.4496 74.6182C58.3776 74.6163 59.951 73.6523 59.964 72.465C59.977 71.2777 58.4246 70.3167 56.4967 70.3186C54.5688 70.3205 52.9953 71.2845 52.9823 72.4718C52.9694 73.6591 54.5217 74.6201 56.4496 74.6182Z" fill="#7A7A7A"/>
</g>
<g filter="url(#filter16_d)">
<path d="M56.3967 79.5322C58.3246 79.5303 59.898 78.5663 59.911 77.379C59.924 76.1917 58.3716 75.2308 56.4437 75.2327C54.5158 75.2345 52.9424 76.1986 52.9294 77.3859C52.9164 78.5732 54.4687 79.5341 56.3967 79.5322Z" fill="#7A7A7A"/>
</g>
<g filter="url(#filter17_d)">
<path d="M56.3428 84.4463C58.2708 84.4444 59.8442 83.4804 59.8572 82.2931C59.8702 81.1058 58.3178 80.1448 56.3899 80.1467C54.4619 80.1486 52.8885 81.1126 52.8755 82.2999C52.8626 83.4872 54.4149 84.4482 56.3428 84.4463Z" fill="#7A7A7A"/>
</g>
<g filter="url(#filter18_d)">
<path d="M47.4572 84.4548C49.3851 84.453 50.9586 83.4889 50.9715 82.3016C50.9845 81.1143 49.4322 80.1534 47.5042 80.1553C45.5763 80.1572 44.0029 81.1212 43.9899 82.3085C43.9769 83.4958 45.5293 84.4567 47.4572 84.4548Z" fill="#7A7A7A"/>
</g>
<g filter="url(#filter19_d)">
<path d="M47.3961 89.9817C49.324 89.9798 50.8974 89.0158 50.9104 87.8285C50.9234 86.6412 49.371 85.6802 47.4431 85.6821C45.5152 85.684 43.9417 86.648 43.9288 87.8353C43.9158 89.0226 45.4681 89.9836 47.3961 89.9817Z" fill="#D51818"/>
</g>
<g filter="url(#filter20_d)">
<path d="M56.2827 89.9736C58.2106 89.9718 59.784 89.0077 59.797 87.8204C59.81 86.6331 58.2576 85.6722 56.3297 85.6741C54.4018 85.676 52.8283 86.64 52.8154 87.8273C52.8024 89.0146 54.3547 89.9755 56.2827 89.9736Z" fill="#7A7A7A"/>
</g>
<g filter="url(#filter21_d)">
<path d="M65.168 89.9656C67.096 89.9637 68.6694 88.9997 68.6824 87.8124C68.6953 86.6251 67.143 85.6641 65.2151 85.666C63.2871 85.6679 61.7137 86.6319 61.7007 87.8192C61.6877 89.0065 63.2401 89.9675 65.168 89.9656Z" fill="#47D93A"/>
</g>
<g filter="url(#filter22_d)">
<path d="M65.2282 84.4375C67.1561 84.4356 68.7296 83.4716 68.7425 82.2843C68.7555 81.097 67.2032 80.136 65.2752 80.1379C63.3473 80.1398 61.7739 81.1039 61.7609 82.2911C61.7479 83.4784 63.3003 84.4394 65.2282 84.4375Z" fill="#7A7A7A"/>
</g>
<defs>
<filter id="filter0_d" x="33.3621" y="96.2966" width="24.556" height="26.3937" filterUnits="userSpaceOnUse" color-interpolation-filters="sRGB">
<feFlood flood-opacity="0" result="BackgroundImageFix"/>
<feColorMatrix in="SourceAlpha" type="matrix" values="0 0 0 0 0 0 0 0 0 0 0 0 0 0 0 0 0 0 127 0"/>
<feOffset dy="4"/>
<feGaussianBlur stdDeviation="2"/>
<feColorMatrix type="matrix" values="0 0 0 0 0 0 0 0 0 0 0 0 0 0 0 0 0 0 0.25 0"/>
<feBlend mode="normal" in2="BackgroundImageFix" result="effect1_dropShadow"/>
<feBlend mode="normal" in="SourceGraphic" in2="effect1_dropShadow" result="shape"/>
</filter>
<filter id="filter1_d" x="41.0977" y="92.0327" width="37.347" height="40.0023" filterUnits="userSpaceOnUse" color-interpolation-filters="sRGB">
<feFlood flood-opacity="0" result="BackgroundImageFix"/>
<feColorMatrix in="SourceAlpha" type="matrix" values="0 0 0 0 0 0 0 0 0 0 0 0 0 0 0 0 0 0 127 0"/>
<feOffset dy="4"/>
<feGaussianBlur stdDeviation="2"/>
<feColorMatrix type="matrix" values="0 0 0 0 0 0 0 0 0 0 0 0 0 0 0 0 0 0 0.25 0"/>
<feBlend mode="normal" in2="BackgroundImageFix" result="effect1_dropShadow"/>
<feBlend mode="normal" in="SourceGraphic" in2="effect1_dropShadow" result="shape"/>
</filter>
<filter id="filter2_d" x="57.8684" y="70.3103" width="14.9818" height="12.2996" filterUnits="userSpaceOnUse" color-interpolation-filters="sRGB">
<feFlood flood-opacity="0" result="BackgroundImageFix"/>
<feColorMatrix in="SourceAlpha" type="matrix" values="0 0 0 0 0 0 0 0 0 0 0 0 0 0 0 0 0 0 127 0"/>
<feOffset dy="4"/>
<feGaussianBlur stdDeviation="2"/>
<feColorMatrix type="matrix" values="0 0 0 0 0 0 0 0 0 0 0 0 0 0 0 0 0 0 0.25 0"/>
<feBlend mode="normal" in2="BackgroundImageFix" result="effect1_dropShadow"/>
<feBlend mode="normal" in="SourceGraphic" in2="effect1_dropShadow" result="shape"/>
</filter>
<filter id="filter3_d" x="57.8149" y="75.2236" width="14.9818" height="12.2996" filterUnits="userSpaceOnUse" color-interpolation-filters="sRGB">
<feFlood flood-opacity="0" result="BackgroundImageFix"/>
<feColorMatrix in="SourceAlpha" type="matrix" values="0 0 0 0 0 0 0 0 0 0 0 0 0 0 0 0 0 0 127 0"/>
<feOffset dy="4"/>
<feGaussianBlur stdDeviation="2"/>
<feColorMatrix type="matrix" values="0 0 0 0 0 0 0 0 0 0 0 0 0 0 0 0 0 0 0.25 0"/>
<feBlend mode="normal" in2="BackgroundImageFix" result="effect1_dropShadow"/>
<feBlend mode="normal" in="SourceGraphic" in2="effect1_dropShadow" result="shape"/>
</filter>
<filter id="filter4_d" x="34.9645" y="22.0144" width="15.3691" height="15.65" filterUnits="userSpaceOnUse" color-interpolation-filters="sRGB">
<feFlood flood-opacity="0" result="BackgroundImageFix"/>
<feColorMatrix in="SourceAlpha" type="matrix" values="0 0 0 0 0 0 0 0 0 0 0 0 0 0 0 0 0 0 127 0"/>
<feOffset dy="4"/>
<feGaussianBlur stdDeviation="2"/>
<feColorMatrix type="matrix" values="0 0 0 0 0 0 0 0 0 0 0 0 0 0 0 0 0 0 0.25 0"/>
<feBlend mode="normal" in2="BackgroundImageFix" result="effect1_dropShadow"/>
<feBlend mode="normal" in="SourceGraphic" in2="effect1_dropShadow" result="shape"/>
</filter>
<filter id="filter5_d" x="2.71082" y="9.39697" width="108.275" height="111.402" filterUnits="userSpaceOnUse" color-interpolation-filters="sRGB">
<feFlood flood-opacity="0" result="BackgroundImageFix"/>
<feColorMatrix in="SourceAlpha" type="matrix" values="0 0 0 0 0 0 0 0 0 0 0 0 0 0 0 0 0 0 127 0"/>
<feOffset dy="4"/>
<feGaussianBlur stdDeviation="2"/>
<feColorMatrix type="matrix" values="0 0 0 0 0 0 0 0 0 0 0 0 0 0 0 0 0 0 0.25 0"/>
<feBlend mode="normal" in2="BackgroundImageFix" result="effect1_dropShadow"/>
<feBlend mode="normal" in="SourceGraphic" in2="effect1_dropShadow" result="shape"/>
</filter>
<filter id="filter6_d" x="32.6517" y="1.08887" width="50.2191" height="50.8032" filterUnits="userSpaceOnUse" color-interpolation-filters="sRGB">
<feFlood flood-opacity="0" result="BackgroundImageFix"/>
<feColorMatrix in="SourceAlpha" type="matrix" values="0 0 0 0 0 0 0 0 0 0 0 0 0 0 0 0 0 0 127 0"/>
<feOffset dy="4"/>
<feGaussianBlur stdDeviation="2"/>
<feColorMatrix type="matrix" values="0 0 0 0 0 0 0 0 0 0 0 0 0 0 0 0 0 0 0.25 0"/>
<feBlend mode="normal" in2="BackgroundImageFix" result="effect1_dropShadow"/>
<feBlend mode="normal" in="SourceGraphic" in2="effect1_dropShadow" result="shape"/>
</filter>
<filter id="filter7_d" x="5.10107" y="1.49487" width="108.811" height="117.195" filterUnits="userSpaceOnUse" color-interpolation-filters="sRGB">
<feFlood flood-opacity="0" result="BackgroundImageFix"/>
<feColorMatrix in="SourceAlpha" type="matrix" values="0 0 0 0 0 0 0 0 0 0 0 0 0 0 0 0 0 0 127 0"/>
<feOffset dy="4"/>
<feGaussianBlur stdDeviation="2"/>
<feColorMatrix type="matrix" values="0 0 0 0 0 0 0 0 0 0 0 0 0 0 0 0 0 0 0.25 0"/>
<feBlend mode="normal" in2="BackgroundImageFix" result="effect1_dropShadow"/>
<feBlend mode="normal" in="SourceGraphic" in2="effect1_dropShadow" result="shape"/>
</filter>
<filter id="filter8_d" x="27.5403" y="24.376" width="57.8352" height="57.3356" filterUnits="userSpaceOnUse" color-interpolation-filters="sRGB">
<feFlood flood-opacity="0" result="BackgroundImageFix"/>
<feColorMatrix in="SourceAlpha" type="matrix" values="0 0 0 0 0 0 0 0 0 0 0 0 0 0 0 0 0 0 127 0"/>
<feOffset dy="4"/>
<feGaussianBlur stdDeviation="2"/>
<feColorMatrix type="matrix" values="0 0 0 0 0 0 0 0 0 0 0 0 0 0 0 0 0 0 0.25 0"/>
<feBlend mode="normal" in2="BackgroundImageFix" result="effect1_dropShadow"/>
<feBlend mode="normal" in="SourceGraphic" in2="effect1_dropShadow" result="shape"/>
</filter>
<filter id="filter9_d" x="30.7687" y="27.4536" width="51.6068" height="51.0407" filterUnits="userSpaceOnUse" color-interpolation-filters="sRGB">
<feFlood flood-opacity="0" result="BackgroundImageFix"/>
<feColorMatrix in="SourceAlpha" type="matrix" values="0 0 0 0 0 0 0 0 0 0 0 0 0 0 0 0 0 0 127 0"/>
<feOffset dy="4"/>
<feGaussianBlur stdDeviation="2"/>
<feColorMatrix type="matrix" values="0 0 0 0 0 0 0 0 0 0 0 0 0 0 0 0 0 0 0.25 0"/>
<feBlend mode="normal" in2="BackgroundImageFix" result="effect1_dropShadow"/>
<feBlend mode="normal" in="SourceGraphic" in2="effect1_dropShadow" result="shape"/>
</filter>
<filter id="filter10_d" x="40.157" y="64.7993" width="14.9818" height="12.2996" filterUnits="userSpaceOnUse" color-interpolation-filters="sRGB">
<feFlood flood-opacity="0" result="BackgroundImageFix"/>
<feColorMatrix in="SourceAlpha" type="matrix" values="0 0 0 0 0 0 0 0 0 0 0 0 0 0 0 0 0 0 127 0"/>
<feOffset dy="4"/>
<feGaussianBlur stdDeviation="2"/>
<feColorMatrix type="matrix" values="0 0 0 0 0 0 0 0 0 0 0 0 0 0 0 0 0 0 0.25 0"/>
<feBlend mode="normal" in2="BackgroundImageFix" result="effect1_dropShadow"/>
<feBlend mode="normal" in="SourceGraphic" in2="effect1_dropShadow" result="shape"/>
</filter>
<filter id="filter11_d" x="49.0432" y="64.791" width="14.9818" height="12.2996" filterUnits="userSpaceOnUse" color-interpolation-filters="sRGB">
<feFlood flood-opacity="0" result="BackgroundImageFix"/>
<feColorMatrix in="SourceAlpha" type="matrix" values="0 0 0 0 0 0 0 0 0 0 0 0 0 0 0 0 0 0 127 0"/>
<feOffset dy="4"/>
<feGaussianBlur stdDeviation="2"/>
<feColorMatrix type="matrix" values="0 0 0 0 0 0 0 0 0 0 0 0 0 0 0 0 0 0 0.25 0"/>
<feBlend mode="normal" in2="BackgroundImageFix" result="effect1_dropShadow"/>
<feBlend mode="normal" in="SourceGraphic" in2="effect1_dropShadow" result="shape"/>
</filter>
<filter id="filter12_d" x="57.9293" y="64.7817" width="14.9818" height="12.2996" filterUnits="userSpaceOnUse" color-interpolation-filters="sRGB">
<feFlood flood-opacity="0" result="BackgroundImageFix"/>
<feColorMatrix in="SourceAlpha" type="matrix" values="0 0 0 0 0 0 0 0 0 0 0 0 0 0 0 0 0 0 127 0"/>
<feOffset dy="4"/>
<feGaussianBlur stdDeviation="2"/>
<feColorMatrix type="matrix" values="0 0 0 0 0 0 0 0 0 0 0 0 0 0 0 0 0 0 0.25 0"/>
<feBlend mode="normal" in2="BackgroundImageFix" result="effect1_dropShadow"/>
<feBlend mode="normal" in="SourceGraphic" in2="effect1_dropShadow" result="shape"/>
</filter>
<filter id="filter13_d" x="40.0433" y="75.2422" width="14.9818" height="12.2996" filterUnits="userSpaceOnUse" color-interpolation-filters="sRGB">
<feFlood flood-opacity="0" result="BackgroundImageFix"/>
<feColorMatrix in="SourceAlpha" type="matrix" values="0 0 0 0 0 0 0 0 0 0 0 0 0 0 0 0 0 0 127 0"/>
<feOffset dy="4"/>
<feGaussianBlur stdDeviation="2"/>
<feColorMatrix type="matrix" values="0 0 0 0 0 0 0 0 0 0 0 0 0 0 0 0 0 0 0.25 0"/>
<feBlend mode="normal" in2="BackgroundImageFix" result="effect1_dropShadow"/>
<feBlend mode="normal" in="SourceGraphic" in2="effect1_dropShadow" result="shape"/>
</filter>
<filter id="filter14_d" x="40.0968" y="70.3274" width="14.9818" height="12.2996" filterUnits="userSpaceOnUse" color-interpolation-filters="sRGB">
<feFlood flood-opacity="0" result="BackgroundImageFix"/>
<feColorMatrix in="SourceAlpha" type="matrix" values="0 0 0 0 0 0 0 0 0 0 0 0 0 0 0 0 0 0 127 0"/>
<feOffset dy="4"/>
<feGaussianBlur stdDeviation="2"/>
<feColorMatrix type="matrix" values="0 0 0 0 0 0 0 0 0 0 0 0 0 0 0 0 0 0 0.25 0"/>
<feBlend mode="normal" in2="BackgroundImageFix" result="effect1_dropShadow"/>
<feBlend mode="normal" in="SourceGraphic" in2="effect1_dropShadow" result="shape"/>
</filter>
<filter id="filter15_d" x="48.9823" y="70.3186" width="14.9818" height="12.2996" filterUnits="userSpaceOnUse" color-interpolation-filters="sRGB">
<feFlood flood-opacity="0" result="BackgroundImageFix"/>
<feColorMatrix in="SourceAlpha" type="matrix" values="0 0 0 0 0 0 0 0 0 0 0 0 0 0 0 0 0 0 127 0"/>
<feOffset dy="4"/>
<feGaussianBlur stdDeviation="2"/>
<feColorMatrix type="matrix" values="0 0 0 0 0 0 0 0 0 0 0 0 0 0 0 0 0 0 0.25 0"/>
<feBlend mode="normal" in2="BackgroundImageFix" result="effect1_dropShadow"/>
<feBlend mode="normal" in="SourceGraphic" in2="effect1_dropShadow" result="shape"/>
</filter>
<filter id="filter16_d" x="48.9293" y="75.2327" width="14.9818" height="12.2996" filterUnits="userSpaceOnUse" color-interpolation-filters="sRGB">
<feFlood flood-opacity="0" result="BackgroundImageFix"/>
<feColorMatrix in="SourceAlpha" type="matrix" values="0 0 0 0 0 0 0 0 0 0 0 0 0 0 0 0 0 0 127 0"/>
<feOffset dy="4"/>
<feGaussianBlur stdDeviation="2"/>
<feColorMatrix type="matrix" values="0 0 0 0 0 0 0 0 0 0 0 0 0 0 0 0 0 0 0.25 0"/>
<feBlend mode="normal" in2="BackgroundImageFix" result="effect1_dropShadow"/>
<feBlend mode="normal" in="SourceGraphic" in2="effect1_dropShadow" result="shape"/>
</filter>
<filter id="filter17_d" x="48.8755" y="80.1467" width="14.9818" height="12.2996" filterUnits="userSpaceOnUse" color-interpolation-filters="sRGB">
<feFlood flood-opacity="0" result="BackgroundImageFix"/>
<feColorMatrix in="SourceAlpha" type="matrix" values="0 0 0 0 0 0 0 0 0 0 0 0 0 0 0 0 0 0 127 0"/>
<feOffset dy="4"/>
<feGaussianBlur stdDeviation="2"/>
<feColorMatrix type="matrix" values="0 0 0 0 0 0 0 0 0 0 0 0 0 0 0 0 0 0 0.25 0"/>
<feBlend mode="normal" in2="BackgroundImageFix" result="effect1_dropShadow"/>
<feBlend mode="normal" in="SourceGraphic" in2="effect1_dropShadow" result="shape"/>
</filter>
<filter id="filter18_d" x="39.9899" y="80.1553" width="14.9818" height="12.2996" filterUnits="userSpaceOnUse" color-interpolation-filters="sRGB">
<feFlood flood-opacity="0" result="BackgroundImageFix"/>
<feColorMatrix in="SourceAlpha" type="matrix" values="0 0 0 0 0 0 0 0 0 0 0 0 0 0 0 0 0 0 127 0"/>
<feOffset dy="4"/>
<feGaussianBlur stdDeviation="2"/>
<feColorMatrix type="matrix" values="0 0 0 0 0 0 0 0 0 0 0 0 0 0 0 0 0 0 0.25 0"/>
<feBlend mode="normal" in2="BackgroundImageFix" result="effect1_dropShadow"/>
<feBlend mode="normal" in="SourceGraphic" in2="effect1_dropShadow" result="shape"/>
</filter>
<filter id="filter19_d" x="39.9287" y="85.6821" width="14.9818" height="12.2996" filterUnits="userSpaceOnUse" color-interpolation-filters="sRGB">
<feFlood flood-opacity="0" result="BackgroundImageFix"/>
<feColorMatrix in="SourceAlpha" type="matrix" values="0 0 0 0 0 0 0 0 0 0 0 0 0 0 0 0 0 0 127 0"/>
<feOffset dy="4"/>
<feGaussianBlur stdDeviation="2"/>
<feColorMatrix type="matrix" values="0 0 0 0 0 0 0 0 0 0 0 0 0 0 0 0 0 0 0.25 0"/>
<feBlend mode="normal" in2="BackgroundImageFix" result="effect1_dropShadow"/>
<feBlend mode="normal" in="SourceGraphic" in2="effect1_dropShadow" result="shape"/>
</filter>
<filter id="filter20_d" x="48.8153" y="85.6741" width="14.9818" height="12.2996" filterUnits="userSpaceOnUse" color-interpolation-filters="sRGB">
<feFlood flood-opacity="0" result="BackgroundImageFix"/>
<feColorMatrix in="SourceAlpha" type="matrix" values="0 0 0 0 0 0 0 0 0 0 0 0 0 0 0 0 0 0 127 0"/>
<feOffset dy="4"/>
<feGaussianBlur stdDeviation="2"/>
<feColorMatrix type="matrix" values="0 0 0 0 0 0 0 0 0 0 0 0 0 0 0 0 0 0 0.25 0"/>
<feBlend mode="normal" in2="BackgroundImageFix" result="effect1_dropShadow"/>
<feBlend mode="normal" in="SourceGraphic" in2="effect1_dropShadow" result="shape"/>
</filter>
<filter id="filter21_d" x="57.7007" y="85.666" width="14.9818" height="12.2996" filterUnits="userSpaceOnUse" color-interpolation-filters="sRGB">
<feFlood flood-opacity="0" result="BackgroundImageFix"/>
<feColorMatrix in="SourceAlpha" type="matrix" values="0 0 0 0 0 0 0 0 0 0 0 0 0 0 0 0 0 0 127 0"/>
<feOffset dy="4"/>
<feGaussianBlur stdDeviation="2"/>
<feColorMatrix type="matrix" values="0 0 0 0 0 0 0 0 0 0 0 0 0 0 0 0 0 0 0.25 0"/>
<feBlend mode="normal" in2="BackgroundImageFix" result="effect1_dropShadow"/>
<feBlend mode="normal" in="SourceGraphic" in2="effect1_dropShadow" result="shape"/>
</filter>
<filter id="filter22_d" x="57.7609" y="80.1379" width="14.9818" height="12.2996" filterUnits="userSpaceOnUse" color-interpolation-filters="sRGB">
<feFlood flood-opacity="0" result="BackgroundImageFix"/>
<feColorMatrix in="SourceAlpha" type="matrix" values="0 0 0 0 0 0 0 0 0 0 0 0 0 0 0 0 0 0 127 0"/>
<feOffset dy="4"/>
<feGaussianBlur stdDeviation="2"/>
<feColorMatrix type="matrix" values="0 0 0 0 0 0 0 0 0 0 0 0 0 0 0 0 0 0 0.25 0"/>
<feBlend mode="normal" in2="BackgroundImageFix" result="effect1_dropShadow"/>
<feBlend mode="normal" in="SourceGraphic" in2="effect1_dropShadow" result="shape"/>
</filter>
</defs>
</svg>
