<svg width="1366" height="400" viewBox="0 0 1366 400" fill="none" xmlns="http://www.w3.org/2000/svg">
<rect width="1366" height="400" fill="#3F3D56"/>
<path d="M231.439 374.198H229.621C229.621 354.85 220.624 336.294 204.608 322.613C188.592 308.931 166.869 301.245 144.219 301.245C121.569 301.245 99.8468 308.931 83.8308 322.613C67.8148 336.294 58.8171 354.85 58.8171 374.198H57C57 354.438 66.1891 335.488 82.5459 321.515C98.9027 307.543 121.087 299.693 144.219 299.693C167.351 299.693 189.536 307.543 205.893 321.515C222.249 335.488 231.439 354.438 231.439 374.198V374.198Z" fill="#3F3D56"/>
<path d="M863.778 374.198H861.961C861.961 354.85 852.963 336.294 836.947 322.613C820.931 308.931 799.209 301.245 776.559 301.245C753.909 301.245 732.187 308.931 716.171 322.613C700.155 336.294 691.157 354.85 691.157 374.198H689.34C689.34 354.438 698.529 335.488 714.886 321.515C731.242 307.543 753.427 299.693 776.559 299.693C799.691 299.693 821.876 307.543 838.232 321.515C854.589 335.488 863.778 354.438 863.778 374.198V374.198Z" fill="#3F3D56"/>
<path d="M650.273 196.472H648.456C648.456 122.866 578.354 62.9833 492.188 62.9833C406.021 62.9833 335.92 122.866 335.92 196.472H334.103C334.103 122.01 405.02 61.4312 492.188 61.4312C579.356 61.4312 650.273 122.01 650.273 196.472Z" fill="#3F3D56"/>
<path d="M189.192 65.3117C209.012 65.3117 225.079 51.5866 225.079 34.6558C225.079 17.7251 209.012 4 189.192 4C169.372 4 153.305 17.7251 153.305 34.6558C153.305 51.5866 169.372 65.3117 189.192 65.3117Z" fill="#FF6584"/>
<path d="M196.815 245.664L258.469 182.942H379.685L453.761 244.577L452.265 245.399H452.799V373.598H196.9V245.399L196.815 245.664Z" fill="#3F3D56"/>
<path d="M233.909 218.396H247.885V177.07H233.909V218.396Z" fill="#3F3D56"/>
<path d="M257.508 182.12L333.508 258.235V373.598H196.9V243.755L257.508 182.12Z" fill="#6C63FF"/>
<path d="M315.945 273.34H288.046V297.708H315.945V273.34Z" fill="#3F3D56"/>
<path d="M315.945 306.497H288.046V330.865H315.945V306.497Z" fill="#3F3D56"/>
<path d="M315.945 273.34H288.046V297.708H315.945V273.34Z" fill="white"/>
<path d="M315.945 306.497H288.046V330.865H315.945V306.497Z" fill="white"/>
<path d="M277.361 273.34H249.462V297.708H277.361V273.34Z" fill="#3F3D56"/>
<path d="M277.361 306.497H249.462V330.865H277.361V306.497Z" fill="#3F3D56"/>
<path d="M277.361 273.34H249.462V297.708H277.361V273.34Z" fill="white"/>
<path d="M277.361 306.497H249.462V330.865H277.361V306.497Z" fill="white"/>
<path d="M238.777 273.34H210.878V297.708H238.777V273.34Z" fill="#3F3D56"/>
<path d="M238.777 306.497H210.878V330.865H238.777V306.497Z" fill="#3F3D56"/>
<path d="M238.777 273.34H210.878V297.708H238.777V273.34Z" fill="white"/>
<path d="M238.777 306.497H210.878V330.865H238.777V306.497Z" fill="white"/>
<path d="M510.359 35.0439H497.639V62.2073H510.359V35.0439Z" fill="#6C63FF"/>
<path d="M509.45 59.879H401.334V374.198H509.45V59.879Z" fill="#6C63FF"/>
<path d="M553.06 59.879H509.45V374.198H553.06V59.879Z" fill="#3F3D56"/>
<path d="M437.222 87.0424H420.868V101.012H437.222V87.0424Z" fill="white"/>
<path d="M463.569 87.0424H447.215V101.012H463.569V87.0424Z" fill="white"/>
<path d="M489.916 87.0424H473.563V101.012H489.916V87.0424Z" fill="white"/>
<path d="M437.676 118.862H421.322V132.832H437.676V118.862Z" fill="white"/>
<path d="M464.023 118.862H447.67V132.832H464.023V118.862Z" fill="white"/>
<path d="M490.371 118.862H474.017V132.832H490.371V118.862Z" fill="white"/>
<path d="M438.13 150.682H421.776V164.652H438.13V150.682Z" fill="white"/>
<path d="M464.478 150.682H448.124V164.652H464.478V150.682Z" fill="white"/>
<path d="M490.825 150.682H474.471V164.652H490.825V150.682Z" fill="white"/>
<path d="M438.584 182.502H422.231V196.472H438.584V182.502Z" fill="white"/>
<path d="M464.932 182.502H448.578V196.472H464.932V182.502Z" fill="white"/>
<path d="M491.279 182.502H474.926V196.472H491.279V182.502Z" fill="white"/>
<path d="M439.039 214.322H422.685V228.292H439.039V214.322Z" fill="white"/>
<path d="M465.386 214.322H449.032V228.292H465.386V214.322Z" fill="white"/>
<path d="M491.733 214.322H475.38V228.292H491.733V214.322Z" fill="white"/>
<path d="M439.493 246.142H423.139V260.112H439.493V246.142Z" fill="white"/>
<path d="M465.84 246.142H449.487V260.112H465.84V246.142Z" fill="white"/>
<path d="M492.188 246.142H475.834V260.112H492.188V246.142Z" fill="white"/>
<path d="M439.947 277.962H423.594V291.932H439.947V277.962Z" fill="white"/>
<path d="M466.295 277.962H449.941V291.932H466.295V277.962Z" fill="white"/>
<path d="M492.642 277.962H476.288V291.932H492.642V277.962Z" fill="white"/>
<path d="M440.401 309.782H424.048V323.752H440.401V309.782Z" fill="white"/>
<path d="M466.749 309.782H450.395V323.752H466.749V309.782Z" fill="white"/>
<path d="M466.749 347.035H450.395V373.422H466.749V347.035Z" fill="white"/>
<path d="M493.096 309.782H476.743V323.752H493.096V309.782Z" fill="white"/>
<path d="M516.718 35.0439H509.45V61.4312H516.718V35.0439Z" fill="#3F3D56"/>
<path d="M646.639 173.189H633.919V189.288H646.639V173.189Z" fill="#6C63FF"/>
<path d="M645.73 187.908H537.615V374.198H645.73V187.908Z" fill="#6C63FF"/>
<path d="M689.34 187.908H645.73V374.198H689.34V187.908Z" fill="#3F3D56"/>
<path d="M575.319 214.322H558.965V228.292H575.319V214.322Z" fill="white"/>
<path d="M601.666 214.322H585.312V228.292H601.666V214.322Z" fill="white"/>
<path d="M628.014 214.322H611.66V228.292H628.014V214.322Z" fill="white"/>
<path d="M575.773 246.142H559.419V260.112H575.773V246.142Z" fill="white"/>
<path d="M602.12 246.142H585.767V260.112H602.12V246.142Z" fill="white"/>
<path d="M628.468 246.142H612.114V260.112H628.468V246.142Z" fill="white"/>
<path d="M576.227 277.962H559.874V291.932H576.227V277.962Z" fill="white"/>
<path d="M602.575 277.962H586.221V291.932H602.575V277.962Z" fill="white"/>
<path d="M628.922 277.962H612.569V291.932H628.922V277.962Z" fill="white"/>
<path d="M576.682 309.782H560.328V323.752H576.682V309.782Z" fill="white"/>
<path d="M603.029 309.782H586.675V323.752H603.029V309.782Z" fill="white"/>
<path d="M603.029 347.035H586.675V373.422H603.029V347.035Z" fill="white"/>
<path d="M629.376 309.782H613.023V323.752H629.376V309.782Z" fill="white"/>
<path d="M652.998 173.189H645.73V188.828H652.998V173.189Z" fill="#3F3D56"/>
<path d="M864 373.261H57.2218V375H864V373.261Z" fill="#3F3D56"/>
<path d="M722.646 337.785C735.713 337.785 746.305 328.736 746.305 317.575C746.305 306.413 735.713 297.365 722.646 297.365C709.58 297.365 698.988 306.413 698.988 317.575C698.988 328.736 709.58 337.785 722.646 337.785Z" fill="#6C63FF"/>
<path opacity="0.2" d="M740.245 304.076C742.452 308.486 742.751 313.422 741.09 318.003C739.428 322.584 735.914 326.511 731.175 329.082C726.436 331.653 720.781 332.701 715.221 332.039C709.661 331.376 704.557 329.047 700.823 325.466C702.171 328.16 704.188 330.571 706.736 332.533C709.283 334.495 712.3 335.961 715.576 336.828C718.852 337.695 722.31 337.943 725.71 337.556C729.109 337.168 732.37 336.154 735.265 334.583C738.16 333.012 740.621 330.922 742.477 328.458C744.333 325.994 745.54 323.215 746.013 320.313C746.487 317.411 746.216 314.456 745.22 311.653C744.225 308.849 742.527 306.264 740.245 304.076V304.076Z" fill="black"/>
<path d="M722.711 317.575H722.776L723.946 374.874H721.476L722.711 317.575Z" fill="#3F3D56"/>
<path d="M727.019 348.785L726.474 347.901L722.563 349.66L723.108 350.544L727.019 348.785Z" fill="#3F3D56"/>
<path d="M792.203 318.474C812.072 318.474 828.18 304.714 828.18 287.741C828.18 270.767 812.072 257.008 792.203 257.008C772.333 257.008 756.225 270.767 756.225 287.741C756.225 304.714 772.333 318.474 792.203 318.474Z" fill="#6C63FF"/>
<path opacity="0.2" d="M818.965 267.214C822.321 273.919 822.776 281.426 820.249 288.392C817.722 295.358 812.378 301.329 805.172 305.239C797.965 309.15 789.366 310.743 780.911 309.736C772.455 308.728 764.695 305.186 759.016 299.74C761.066 303.837 764.134 307.504 768.008 310.488C771.882 313.471 776.469 315.7 781.451 317.018C786.433 318.337 791.691 318.715 796.861 318.125C802.031 317.536 806.989 315.993 811.392 313.604C815.794 311.216 819.536 308.038 822.359 304.291C825.181 300.544 827.016 296.318 827.736 291.905C828.457 287.492 828.045 282.998 826.531 278.735C825.016 274.471 822.434 270.54 818.965 267.214V267.214Z" fill="black"/>
<path d="M792.301 287.74H792.4L794.179 374.874H790.423L792.301 287.74Z" fill="#3F3D56"/>
<path d="M798.852 335.201L798.023 333.857L792.076 336.531L792.905 337.876L798.852 335.201Z" fill="#3F3D56"/>
<path d="M81.2212 337.009C94.2876 337.009 104.88 327.96 104.88 316.799C104.88 305.637 94.2876 296.589 81.2212 296.589C68.1549 296.589 57.5625 305.637 57.5625 316.799C57.5625 327.96 68.1549 337.009 81.2212 337.009Z" fill="#6C63FF"/>
<path opacity="0.2" d="M98.8201 303.3C101.027 307.71 101.326 312.646 99.6647 317.227C98.0031 321.808 94.4888 325.735 89.7499 328.306C85.0109 330.877 79.3561 331.925 73.7958 331.263C68.2356 330.6 63.1322 328.27 59.3977 324.69C60.7458 327.384 62.7635 329.795 65.3109 331.757C67.8584 333.719 70.8747 335.184 74.1509 336.052C77.4271 336.919 80.8849 337.167 84.2847 336.78C87.6844 336.392 90.9449 335.378 93.8401 333.807C96.7354 332.236 99.1962 330.146 101.052 327.682C102.908 325.218 104.115 322.439 104.588 319.537C105.062 316.635 104.792 313.68 103.796 310.876C102.8 308.073 101.102 305.488 98.8202 303.3H98.8201Z" fill="black"/>
<path d="M81.286 316.799H81.3514L82.5207 374.097H80.0513L81.286 316.799Z" fill="#3F3D56"/>
<path d="M85.5941 348.009L85.0491 347.125L81.1382 348.883L81.6832 349.768L85.5941 348.009Z" fill="#3F3D56"/>
<path d="M607.947 32.9762L616.311 27.2619C609.814 26.6496 607.144 29.6766 606.051 32.0724C600.975 30.2719 595.45 32.6316 595.45 32.6316L612.184 37.8211C611.339 35.8949 609.87 34.2143 607.947 32.9762V32.9762Z" fill="#3F3D56"/>
<path d="M188.205 61.6917L196.568 55.9775C190.071 55.3651 187.401 58.3921 186.309 60.788C181.233 58.9875 175.707 61.3472 175.707 61.3472L192.441 66.5367C191.597 64.6105 190.127 62.9298 188.205 61.6917V61.6917Z" fill="#3F3D56"/>
<path d="M735.142 91.1834L743.506 85.4692C737.008 84.8568 734.339 87.8838 733.246 90.2797C728.17 88.4792 722.644 90.8389 722.644 90.8389L739.378 96.0284C738.534 94.1022 737.065 92.4215 735.142 91.1834V91.1834Z" fill="#3F3D56"/>
<path d="M257.253 46.1699L265.617 40.4556C259.119 39.8433 256.45 42.8703 255.357 45.2662C250.281 43.4656 244.755 45.8253 244.755 45.8253L261.49 51.0148C260.645 49.0887 259.176 47.408 257.253 46.1699V46.1699Z" fill="#3F3D56"/>
<path d="M272.698 108.258L281.062 102.543C274.565 101.931 271.895 104.958 270.802 107.354C265.726 105.553 260.2 107.913 260.2 107.913L276.935 113.103C276.09 111.176 274.621 109.496 272.698 108.258V108.258Z" fill="#3F3D56"/>
<path d="M597.953 140.854L606.317 135.139C599.82 134.527 597.15 137.554 596.057 139.95C590.981 138.149 585.456 140.509 585.456 140.509L602.19 145.699C601.346 143.772 599.876 142.092 597.953 140.854Z" fill="#3F3D56"/>
<path d="M153.305 357.9H96.9755V359.453H105.76V374.198H107.577V359.453H141.794V374.198H143.611V359.453H153.305V357.9Z" fill="#3F3D56"/>
<path d="M210.542 364.109C208.319 364.109 206.135 364.609 204.21 365.56C202.256 364.05 199.83 363.058 197.228 362.702C194.625 362.347 191.958 362.645 189.55 363.56C187.142 364.475 185.097 365.967 183.662 367.855C182.228 369.744 181.466 371.947 181.469 374.198H223.216C222.988 371.459 221.554 368.896 219.203 367.024C216.851 365.152 213.757 364.11 210.542 364.109V364.109Z" fill="#3F3D56"/>
<path d="M425.865 364.109C423.642 364.109 421.457 364.609 419.533 365.56C417.578 364.05 415.152 363.058 412.55 362.702C409.948 362.347 407.281 362.645 404.873 363.56C402.465 364.475 400.419 365.967 398.985 367.855C397.55 369.744 396.789 371.947 396.792 374.198H438.538C438.311 371.459 436.877 368.896 434.525 367.024C432.174 365.152 429.079 364.11 425.865 364.109V364.109Z" fill="#3F3D56"/>
<path d="M566.688 364.109C564.464 364.109 562.28 364.609 560.356 365.56C558.401 364.05 555.975 363.058 553.373 362.702C550.771 362.347 548.103 362.645 545.695 363.56C543.288 364.475 541.242 365.967 539.808 367.855C538.373 369.744 537.611 371.947 537.615 374.198H579.361C579.134 371.459 577.7 368.896 575.348 367.024C572.997 365.152 569.902 364.11 566.688 364.109V364.109Z" fill="#3F3D56"/>
<path d="M752.029 364.109C749.805 364.109 747.621 364.609 745.697 365.56C743.742 364.05 741.316 363.058 738.714 362.702C736.112 362.347 733.444 362.645 731.036 363.56C728.629 364.475 726.583 365.967 725.149 367.855C723.714 369.744 722.952 371.947 722.956 374.198H764.702C764.475 371.459 763.041 368.896 760.689 367.024C758.338 365.152 755.243 364.11 752.029 364.109V364.109Z" fill="#3F3D56"/>
<path d="M841.065 364.109C838.842 364.109 836.658 364.609 834.733 365.56C832.778 364.05 830.353 363.058 827.75 362.702C825.148 362.347 822.481 362.645 820.073 363.56C817.665 364.475 815.62 365.967 814.185 367.855C812.751 369.744 811.989 371.947 811.992 374.198H853.739C853.511 371.459 852.077 368.896 849.725 367.024C847.374 365.152 844.279 364.11 841.065 364.109V364.109Z" fill="#3F3D56"/>
<path d="M174.201 319.872H159.664V332.289H166.403V374.13H168.22V332.289H174.201V319.872Z" fill="#3F3D56"/>
<path d="M153.416 353.256H97.0864V354.809H153.416V353.256Z" fill="#3F3D56"/>
<path d="M153.416 349.376H97.0864V350.928H153.416V349.376Z" fill="#3F3D56"/>
<path d="M153.416 345.496H97.0864V347.048H153.416V345.496Z" fill="#3F3D56"/>
<g clip-path="url(#clip0)">
<path d="M929.488 375L928.657 374.805C937.918 331.811 961.192 292.769 994.191 264.871C1019.14 243.811 1048.81 229.726 1080.41 223.943C1112.02 218.159 1144.51 220.867 1174.83 231.81C1205.16 242.754 1232.31 261.575 1253.75 286.499C1275.18 311.423 1290.18 341.632 1297.34 374.28L1296.51 374.477C1276.91 284.621 1201.47 221.864 1113.06 221.864C1025.8 221.864 948.602 286.267 929.488 375Z" fill="#3F3D56"/>
<path d="M1048.57 121.977C1061.34 121.977 1071.69 111.171 1071.69 97.8409C1071.69 84.5108 1061.34 73.7047 1048.57 73.7047C1035.8 73.7047 1025.45 84.5108 1025.45 97.8409C1025.45 111.171 1035.8 121.977 1048.57 121.977Z" fill="#FF6584"/>
<path d="M948.955 369.517C949.676 372.3 952.146 374.023 952.146 374.023C952.146 374.023 953.447 371.235 952.726 368.452C952.005 365.67 949.535 363.946 949.535 363.946C949.535 363.946 948.234 366.734 948.955 369.517Z" fill="#3F3D56"/>
<path d="M950.015 368.919C951.994 370.93 952.235 374.021 952.235 374.021C952.235 374.021 949.269 373.852 947.29 371.841C945.312 369.83 945.07 366.739 945.07 366.739C945.07 366.739 948.036 366.908 950.015 368.919Z" fill="#6C63FF"/>
<path d="M1003.87 369.517C1004.59 372.3 1007.06 374.023 1007.06 374.023C1007.06 374.023 1008.36 371.235 1007.64 368.452C1006.92 365.67 1004.45 363.946 1004.45 363.946C1004.45 363.946 1003.15 366.734 1003.87 369.517Z" fill="#3F3D56"/>
<path d="M1004.93 368.919C1006.91 370.93 1007.15 374.021 1007.15 374.021C1007.15 374.021 1004.18 373.852 1002.2 371.841C1000.22 369.83 999.983 366.739 999.983 366.739C999.983 366.739 1002.95 366.908 1004.93 368.919Z" fill="#6C63FF"/>
<path d="M1014.76 147.871L1006.06 140.609L1054.75 95.2306H1178.21V135.164L1098.22 191.434L1014.76 147.871Z" fill="#3F3D56"/>
<path d="M1200.71 120.686V96.1371H1184.32V102.149L1178.21 95.2306L1138.21 140.609L1122.56 151.501L1098.3 336.565L1134.89 374.766H1219.94V142.425L1200.71 120.686Z" fill="#CCCCCC"/>
<path d="M1138.21 140.61H1006.06V374.766H1138.21V140.61Z" fill="#F2F2F2"/>
<path d="M1081.7 317.588H1057.36V374.766H1081.7V317.588Z" fill="#CCCCCC"/>
<path d="M1031.28 333.924V324.849H1020.84V333.924H1030.41H1031.28Z" fill="#3F3D56"/>
<path d="M1030.41 341.185H1020.84V350.261H1031.28V341.185H1030.41Z" fill="#3F3D56"/>
<path d="M1048.66 324.849H1038.23V333.925H1048.66V324.849Z" fill="#3F3D56"/>
<path d="M1048.66 341.185H1038.23V350.261H1048.66V341.185Z" fill="#3F3D56"/>
<path d="M1102.57 333.924V324.849H1092.13V333.924H1101.7H1102.57Z" fill="#3F3D56"/>
<path d="M1101.7 341.185H1092.13V350.261H1102.57V341.185H1101.7Z" fill="#3F3D56"/>
<path d="M1119.96 324.849H1109.52V333.925H1119.96V324.849Z" fill="#3F3D56"/>
<path d="M1119.96 341.185H1109.52V350.261H1119.96V341.185Z" fill="#3F3D56"/>
<path d="M1175.6 152.408V143.333H1165.16V152.408H1174.73H1175.6Z" fill="#3F3D56"/>
<path d="M1174.73 159.669H1165.16V168.744H1175.6V159.669H1174.73Z" fill="#3F3D56"/>
<path d="M1192.99 143.332H1182.55V152.408H1192.99V143.332Z" fill="#3F3D56"/>
<path d="M1192.99 159.669H1182.55V168.745H1192.99V159.669Z" fill="#3F3D56"/>
<path d="M1175.6 203.233V194.157H1165.16V203.233H1174.73H1175.6Z" fill="#3F3D56"/>
<path d="M1174.73 210.493H1165.16V219.569H1175.6V210.493H1174.73Z" fill="#3F3D56"/>
<path d="M1192.99 194.157H1182.55V203.233H1192.99V194.157Z" fill="#3F3D56"/>
<path d="M1192.99 210.493H1182.55V219.569H1192.99V210.493Z" fill="#3F3D56"/>
<path d="M1175.6 254.057V244.982H1165.16V254.057H1174.73H1175.6Z" fill="#3F3D56"/>
<path d="M1174.73 261.318H1165.16V270.394H1175.6V261.318H1174.73Z" fill="#3F3D56"/>
<path d="M1192.99 244.982H1182.55V254.057H1192.99V244.982Z" fill="#3F3D56"/>
<path d="M1192.99 261.318H1182.55V270.394H1192.99V261.318Z" fill="#3F3D56"/>
<path d="M1175.6 304.882V295.806H1165.16V304.882H1174.73H1175.6Z" fill="#3F3D56"/>
<path d="M1174.73 312.143H1165.16V321.219H1175.6V312.143H1174.73Z" fill="#3F3D56"/>
<path d="M1192.99 295.806H1182.55V304.882H1192.99V295.806Z" fill="#3F3D56"/>
<path d="M1192.99 312.143H1182.55V321.218H1192.99V312.143Z" fill="#3F3D56"/>
<path d="M1121.69 152.408H1020.84V174.19H1121.69V152.408Z" fill="#3F3D56"/>
<path d="M1121.69 195.972H1020.84V217.754H1121.69V195.972Z" fill="#3F3D56"/>
<path d="M1121.69 239.536H1020.84V261.318H1121.69V239.536Z" fill="#3F3D56"/>
<path d="M1121.69 283.1H1020.84V304.882H1121.69V283.1Z" fill="#3F3D56"/>
<path d="M1355 373.852H871V374.741H1355V373.852Z" fill="#3F3D56"/>
<path d="M954.553 271.24H952.052V374.358H954.553V271.24Z" fill="#3F3D56"/>
<path d="M977.632 284.381C977.791 320.439 953.49 349.788 953.49 349.788C953.49 349.788 928.93 320.674 928.771 284.617C928.612 248.559 952.913 219.21 952.913 219.21C952.913 219.21 977.473 248.324 977.632 284.381Z" fill="#6C63FF"/>
<path opacity="0.1" d="M977.632 284.381C977.791 320.439 953.49 349.788 953.49 349.788C953.49 349.788 928.93 320.674 928.771 284.617C928.612 248.559 952.913 219.21 952.913 219.21C952.913 219.21 977.473 248.324 977.632 284.381Z" fill="black"/>
<path d="M922.042 271.24H919.542V374.358H922.042V271.24Z" fill="#3F3D56"/>
<path d="M945.122 284.381C945.281 320.439 920.979 349.788 920.979 349.788C920.979 349.788 896.42 320.674 896.261 284.617C896.101 248.559 920.403 219.21 920.403 219.21C920.403 219.21 944.963 248.324 945.122 284.381Z" fill="#6C63FF"/>
<path d="M1273.51 140.464C1253.81 140.559 1237.77 140.862 1237.77 140.862C1237.77 140.862 1256.83 114.508 1273.43 124.272C1290.04 134.036 1309.11 140.519 1309.11 140.519C1309.11 140.519 1293.2 140.369 1273.51 140.464Z" fill="#F2F2F2"/>
<path d="M945.305 191.122C925.606 191.217 909.571 191.521 909.571 191.521C909.571 191.521 928.63 165.166 945.233 174.93C961.836 184.695 980.908 191.178 980.908 191.178C980.908 191.178 965.004 191.027 945.305 191.122Z" fill="#F2F2F2"/>
<path d="M1016.82 85.3616C997.12 85.4564 981.086 85.7602 981.086 85.7602C981.086 85.7602 1000.15 59.4057 1016.75 69.1699C1033.35 78.934 1052.42 85.417 1052.42 85.417C1052.42 85.417 1036.52 85.2668 1016.82 85.3616Z" fill="#F2F2F2"/>
<path d="M1314.1 271.24H1311.59V374.358H1314.1V271.24Z" fill="#3F3D56"/>
<path d="M1337.17 284.381C1337.33 320.439 1313.03 349.788 1313.03 349.788C1313.03 349.788 1288.47 320.674 1288.31 284.617C1288.15 248.559 1312.46 219.21 1312.46 219.21C1312.46 219.21 1337.02 248.324 1337.17 284.381Z" fill="#6C63FF"/>
<path d="M1222.05 310.351H1247.28V303.992H1261.21V310.351H1287.32V338.515H1261.21V373.946H1247.28V338.515H1222.05L1208.99 323.07L1222.05 310.351Z" fill="#3F3D56"/>
</g>
<path d="M632.62 80H625.6L625.18 75.23H619.63L617.5 80H614.59L623.44 60.95H630.55L632.62 80ZM620.62 73.04H624.97L624.28 64.88L620.62 73.04ZM638.607 80H633.747L638.007 59.84H644.157L642.207 69.02H642.417C643.077 68.26 643.817 67.72 644.637 67.4C645.477 67.06 646.307 66.89 647.127 66.89C647.827 66.89 648.407 67 648.867 67.22C649.347 67.42 649.727 67.7 650.007 68.06C650.287 68.42 650.487 68.85 650.607 69.35C650.727 69.85 650.787 70.38 650.787 70.94C650.787 71.22 650.767 71.64 650.727 72.2C650.687 72.76 650.597 73.39 650.457 74.09C650.317 74.77 650.117 75.48 649.857 76.22C649.597 76.94 649.247 77.6 648.807 78.2C648.387 78.8 647.847 79.29 647.187 79.67C646.547 80.05 645.777 80.24 644.877 80.24C644.337 80.24 643.807 80.18 643.287 80.06C642.787 79.94 642.327 79.78 641.907 79.58C641.507 79.38 641.147 79.15 640.827 78.89C640.527 78.61 640.307 78.33 640.167 78.05H639.957L638.607 80ZM641.997 77.33C642.477 77.33 642.877 77.08 643.197 76.58C643.517 76.06 643.777 75.46 643.977 74.78C644.177 74.08 644.317 73.39 644.397 72.71C644.497 72.01 644.547 71.49 644.547 71.15C644.547 70.75 644.477 70.42 644.337 70.16C644.217 69.9 643.987 69.77 643.647 69.77C643.247 69.77 642.877 69.92 642.537 70.22C642.197 70.5 641.947 70.74 641.787 70.94L640.617 76.31C640.757 76.55 640.937 76.78 641.157 77C641.397 77.22 641.677 77.33 641.997 77.33ZM661.046 66.77C663.426 66.77 665.156 67.19 666.236 68.03C667.376 68.91 667.946 70.37 667.946 72.41C667.946 73.67 667.736 74.81 667.316 75.83C666.896 76.83 666.306 77.66 665.546 78.32C664.026 79.6 661.826 80.24 658.946 80.24C656.486 80.24 654.726 79.77 653.666 78.83C652.526 77.85 651.956 76.38 651.956 74.42C651.956 73.12 652.216 71.94 652.736 70.88C653.276 69.82 654.046 68.94 655.046 68.24C656.506 67.26 658.506 66.77 661.046 66.77ZM659.006 78.2C659.506 78.2 659.936 77.92 660.296 77.36C660.676 76.8 660.976 76.12 661.196 75.32C661.416 74.5 661.576 73.66 661.676 72.8C661.796 71.92 661.856 71.16 661.856 70.52C661.856 69.96 661.796 69.54 661.676 69.26C661.576 68.96 661.346 68.81 660.986 68.81C660.446 68.81 659.976 69.1 659.576 69.68C659.196 70.26 658.886 70.95 658.646 71.75C658.406 72.55 658.226 73.37 658.106 74.21C658.006 75.05 657.956 75.73 657.956 76.25C657.956 77.55 658.306 78.2 659.006 78.2ZM680.042 67.1H686.162L683.402 80H678.542L678.002 78.08H677.822C677.302 78.7 676.592 79.22 675.692 79.64C674.812 80.04 673.922 80.24 673.022 80.24C671.822 80.24 670.882 79.94 670.202 79.34C669.522 78.72 669.182 77.92 669.182 76.94C669.182 76.44 669.262 75.82 669.422 75.08C669.602 74.32 669.762 73.61 669.902 72.95L671.162 67.1H677.252L675.752 74.12C675.712 74.28 675.672 74.47 675.632 74.69C675.592 74.91 675.552 75.13 675.512 75.35C675.472 75.55 675.432 75.75 675.392 75.95C675.372 76.13 675.362 76.28 675.362 76.4C675.362 76.7 675.422 76.96 675.542 77.18C675.682 77.38 675.922 77.48 676.262 77.48C676.622 77.48 676.962 77.36 677.282 77.12C677.602 76.88 677.852 76.65 678.032 76.43L680.042 67.1ZM687.78 67.1C688.52 66.94 689.17 66.76 689.73 66.56C690.29 66.36 690.8 66.11 691.26 65.81C691.74 65.51 692.19 65.14 692.61 64.7C693.05 64.26 693.52 63.72 694.02 63.08H697.11L696.24 67.1H698.58L698.19 69.11H695.82L694.59 74.96C694.49 75.42 694.41 75.83 694.35 76.19C694.29 76.55 694.26 76.83 694.26 77.03C694.26 77.43 694.4 77.68 694.68 77.78C694.98 77.88 695.53 77.93 696.33 77.93L695.88 80C695.74 80.04 695.52 80.07 695.22 80.09C694.94 80.11 694.62 80.13 694.26 80.15C693.92 80.19 693.56 80.21 693.18 80.21C692.82 80.23 692.5 80.24 692.22 80.24C691.72 80.24 691.23 80.2 690.75 80.12C690.27 80.06 689.84 79.93 689.46 79.73C689.08 79.51 688.77 79.2 688.53 78.8C688.31 78.4 688.2 77.86 688.2 77.18C688.2 76.94 688.21 76.64 688.23 76.28C688.27 75.92 688.34 75.52 688.44 75.08L689.7 69.11H687.36L687.78 67.1ZM711.901 73.19C711.801 73.63 711.721 74.01 711.661 74.33C711.601 74.65 711.571 74.95 711.571 75.23C711.571 75.93 711.811 76.49 712.291 76.91C712.791 77.33 713.521 77.54 714.481 77.54C715.181 77.54 715.751 77.42 716.191 77.18C716.651 76.94 717.021 76.62 717.301 76.22C717.601 75.82 717.831 75.36 717.991 74.84C718.171 74.32 718.321 73.77 718.441 73.19L720.991 60.95H723.721L721.111 73.25C720.911 74.21 720.621 75.11 720.241 75.95C719.861 76.79 719.311 77.53 718.591 78.17C717.891 78.81 716.981 79.32 715.861 79.7C714.741 80.06 713.351 80.24 711.691 80.24C709.391 80.24 707.691 79.87 706.591 79.13C705.491 78.37 704.941 77.21 704.941 75.65C704.941 74.95 705.031 74.06 705.211 72.98C705.391 71.9 705.621 70.73 705.901 69.47L707.731 60.95H714.541L711.901 73.19ZM731.997 70.88C732.017 70.78 732.037 70.68 732.057 70.58C732.077 70.48 732.087 70.37 732.087 70.25C732.087 69.89 732.017 69.56 731.877 69.26C731.757 68.94 731.507 68.78 731.127 68.78C730.787 68.78 730.447 68.93 730.107 69.23C729.767 69.51 729.597 69.89 729.597 70.37C729.597 70.69 729.677 70.95 729.837 71.15C730.017 71.33 730.247 71.48 730.527 71.6C730.807 71.72 731.117 71.82 731.457 71.9C731.817 71.98 732.167 72.06 732.507 72.14C732.987 72.26 733.437 72.41 733.857 72.59C734.297 72.75 734.687 72.97 735.027 73.25C735.367 73.53 735.637 73.88 735.837 74.3C736.037 74.7 736.137 75.2 736.137 75.8C736.137 76.64 735.937 77.35 735.537 77.93C735.157 78.49 734.617 78.95 733.917 79.31C733.237 79.65 732.427 79.89 731.487 80.03C730.567 80.17 729.577 80.24 728.517 80.24C726.897 80.24 725.557 80.12 724.497 79.88C723.437 79.64 722.697 79.41 722.277 79.19L722.907 76.19H726.957C726.937 76.29 726.927 76.39 726.927 76.49C726.927 76.57 726.927 76.66 726.927 76.76C726.927 77.22 727.027 77.59 727.227 77.87C727.447 78.13 727.817 78.26 728.337 78.26C728.917 78.26 729.327 78.1 729.567 77.78C729.827 77.44 729.957 77.13 729.957 76.85C729.957 76.57 729.847 76.33 729.627 76.13C729.427 75.91 729.167 75.73 728.847 75.59C728.527 75.43 728.167 75.3 727.767 75.2C727.387 75.08 727.017 74.97 726.657 74.87C726.397 74.81 726.097 74.71 725.757 74.57C725.437 74.43 725.127 74.23 724.827 73.97C724.527 73.71 724.277 73.38 724.077 72.98C723.877 72.56 723.777 72.04 723.777 71.42C723.777 70.54 723.987 69.81 724.407 69.23C724.847 68.63 725.407 68.15 726.087 67.79C726.787 67.43 727.567 67.17 728.427 67.01C729.307 66.85 730.187 66.77 731.067 66.77C732.167 66.77 733.207 66.87 734.187 67.07C735.167 67.27 735.967 67.53 736.587 67.85L735.897 70.88H731.997Z" fill="white"/>
<defs>
<clipPath id="clip0">
<rect width="484" height="308" fill="white" transform="translate(871 67)"/>
</clipPath>
</defs>
</svg>
