<svg width="113" height="123" viewBox="0 0 113 123" fill="none" xmlns="http://www.w3.org/2000/svg">
<path d="M41.1249 109.03L46.213 109.03L48.6339 97.5688L41.1239 97.569L41.1249 109.03Z" fill="#FFB8B8"/>
<path d="M39.8269 108.06L49.8478 108.059H49.8482C51.5418 108.059 53.1661 108.452 54.3637 109.152C55.5613 109.851 56.2342 110.799 56.2343 111.788V111.91L39.8272 111.91L39.8269 108.06Z" fill="black"/>
<path d="M58.2334 109.03L63.3216 109.03L65.7424 97.5688L58.2324 97.569L58.2334 109.03Z" fill="#FFB8B8"/>
<path d="M56.9353 108.06L66.9562 108.059H66.9566C68.6502 108.059 70.2745 108.452 71.4721 109.152C72.6697 109.851 73.3426 110.799 73.3427 111.788V111.91L56.9356 111.91L56.9353 108.06Z" fill="black"/>
<path d="M49.1223 68.7818L50.343 105.142L40.469 104.784L33.619 81.6249L31.4554 65.8342L49.1223 68.7818Z" fill="#1D8D8D"/>
<path d="M66.068 62.6763L67.4517 105.718L55.9363 105.526L53.449 79.9405L49.1224 70.6768L31.4558 65.8344L34.3402 54.2547L60.2993 54.0442L66.068 62.6763Z" fill="#1D8D8D"/>
<path d="M46.2143 24.1476C51.0911 24.1476 55.0444 21.839 55.0444 18.9913C55.0444 16.1435 51.0911 13.835 46.2143 13.835C41.3376 13.835 37.3843 16.1435 37.3843 18.9913C37.3843 21.839 41.3376 24.1476 46.2143 24.1476Z" fill="#FFB8B8"/>
<path d="M53.5383 26.3196L54.8909 27.5161L58.4965 33.4111L55.612 56.3598L38.6663 56.5706L36.5034 30.253L41.0349 26.9453L53.5383 26.3196Z" fill="#CCCCCC"/>
<path d="M29.653 30.8849L26.7687 30.6743C26.7687 30.6743 26.0476 30.8849 25.6871 32.3586C25.3265 33.8324 21 46.8858 21 46.8858L26.7687 62.8868L33.2585 57.8339L29.2925 48.9912L33.2585 40.1486L29.653 30.8849Z" fill="#1D8D8D"/>
<path d="M66.4284 30.6743H68.5917L74 47.7278L68.9523 60.9918L63.9046 56.1494L65.3466 50.886L64.6258 46.2542L62.1019 43.517L66.4284 30.6743Z" fill="#1D8D8D"/>
<path d="M51.4323 18.9913L49.8268 18.7569C49.8268 18.7569 48.6227 14.7724 45.8131 15.2412C43.0035 15.71 35.7789 16.1787 35.7789 14.3037C35.7789 12.4287 42.6022 10.788 46.6158 11.0224C50.6295 11.2568 55.7556 12.0343 57.0514 15.4756C59.1286 20.9921 52.7656 22.3855 52.7656 22.3855L52.8715 22.1846C53.1655 21.6269 53.1865 21.0323 52.9322 20.468C52.6779 19.9037 52.1583 19.3922 51.4323 18.9913V18.9913Z" fill="#050505"/>
<path d="M27.1294 30.6743L38.6668 27.9373L41.3708 26.7793L49.4831 47.728L53.2687 26.1477L68.2313 30.6743L63.1836 44.991L62.4626 50.465L64.6258 54.8863C64.6258 54.8863 72.1972 58.0444 69.6734 61.413C67.1496 64.7817 64.2653 64.9922 64.2653 64.9922C64.2653 64.9922 52.0068 58.255 51.2858 56.5706C50.5647 54.8863 49.4831 51.9388 49.4831 51.9388C49.4831 51.9388 43.3538 65.4133 36.143 65.2027C28.9322 64.9922 28.9321 60.5709 28.9321 60.5709L30.7349 55.939L33.6192 51.0966L32.177 43.0961L27.1294 30.6743Z" fill="#1D8D8D"/>
</svg>
