<svg width="157" height="159" viewBox="0 0 157 159" fill="none" xmlns="http://www.w3.org/2000/svg">
<g id="Group 23">
<g id="Group" filter="url(#filter0_d)">
<path id="Vector" d="M47.5012 97.2765L36.132 110.439" stroke="black"/>
</g>
<g id="Group_2" filter="url(#filter1_d)">
<path id="Vector_2" d="M36.132 110.439L51.4307 123.771L62.7998 110.607" stroke="black"/>
</g>
<g id="Group_3" filter="url(#filter2_d)">
<path id="Vector_3" d="M113.245 61.893C113.877 62.4511 115.035 63.6993 114.556 64.2534C114.076 64.8086 102.525 78.1857 96.8109 84.8051C97.4175 85.0687 98.5759 85.8624 98.3188 86.9346C98.0711 88.0041 82.1283 106.008 74.1982 114.873C73.6406 115.196 72.3345 115.674 71.5698 115.009C70.8048 114.342 69.6573 113.342 69.1792 112.925M88.5822 39.9991C87.9417 39.4447 86.4725 38.5632 85.6733 39.4878C84.8738 40.4114 70.3168 57.2684 63.142 65.5811L42.8014 89.1345C42.6163 89.5116 42.347 90.4376 42.7609 91.1224C43.1747 91.8072 43.7539 92.3955 43.9976 92.6025L88.5822 39.9991Z" stroke="black"/>
</g>
<g id="Group_4" filter="url(#filter3_d)">
<path id="Vector_4" d="M87.8199 41.3633L88.8167 40.2087C89.0832 39.9008 89.7118 39.3685 90.0942 39.7019C90.4767 40.0352 91.6911 41.0896 92.2502 41.5747L93.6845 42.8248" stroke="black"/>
</g>
<g id="Group_5" filter="url(#filter4_d)">
<path id="Vector_5" d="M110.211 57.6394L105.029 63.6421L88.5401 49.2682L99.702 36.3374C100.339 35.2761 101.99 33.3957 103.488 34.3778C104.987 35.3599 108.094 38.2591 109.469 39.5843L114.962 44.3768L120.221 48.9587" stroke="black"/>
</g>
<g id="Group_6" filter="url(#filter5_d)">
<path id="Vector_6" d="M88.0269 41.1304L46.1519 89.6226C45.0051 90.7867 43.103 93.4435 44.6326 94.776C46.1626 96.1095 47.1856 96.9972 47.5013 97.2763L48.6955 95.8908L64.238 109.429L63.0341 110.817L66.1466 113.524C66.5312 113.725 67.5502 113.937 68.5406 113.179C69.5217 112.424 98.1904 78.998 112.4 62.3804C113.014 61.833 113.955 60.4892 112.808 59.4891C111.66 58.489 110.733 57.6846 110.417 57.4056L114.602 52.5575L116.201 50.7093L117.79 48.8639C118.591 48.7476 120.381 48.7738 121.177 49.792C121.974 50.8101 122.125 52.0957 122.093 52.6133L121.096 53.7679L120.494 54.4614L119.902 55.1523L115.599 51.403" stroke="black"/>
</g>
<g id="Group_7" filter="url(#filter6_d)">
<path id="Vector_7" d="M68.7165 66.3976L81.6842 51.386C82.0102 51.003 82.7618 50.2292 83.1129 50.2112C83.464 50.1932 83.8697 50.4663 84.0321 50.6039L84.9884 51.4373L88.1005 54.1436L103.39 67.4781C104.537 68.4782 103.896 69.8048 103.433 70.3436L90.4739 85.3516C89.6747 86.2762 88.2546 85.9816 87.6384 85.7197L84.292 82.8037L69.2369 69.6789C68.0898 68.6798 68.4151 67.0741 68.7165 66.3976Z" stroke="black"/>
</g>
<g id="Group_8" filter="url(#filter7_d)">
<path id="Vector_8" d="M101.801 69.3234L82.9116 52.8687L70.7527 66.9541L89.632 83.4105L101.801 69.3234Z" fill="#3AC2F2"/>
<path id="Vector_9" d="M101.801 69.3234L82.9116 52.8687L70.7527 66.9541L89.632 83.4105L101.801 69.3234Z" stroke="black"/>
</g>
<g id="Group_9" filter="url(#filter8_d)">
<path id="Vector_10" d="M66.6395 77.5361C68.0916 78.8016 69.8937 79.1038 70.6645 78.2111C71.4354 77.3184 70.8831 75.5688 69.431 74.3033C67.9789 73.0378 66.1768 72.7356 65.4059 73.6284C64.6351 74.5211 65.1873 76.2706 66.6395 77.5361Z" fill="#060606"/>
</g>
<g id="Group_10" filter="url(#filter9_d)">
<path id="Vector_11" d="M73.3329 83.369C74.785 84.6345 76.5871 84.9367 77.358 84.044C78.1288 83.1513 77.5765 81.4017 76.1244 80.1362C74.6723 78.8707 72.8702 78.5685 72.0994 79.4612C71.3285 80.354 71.8808 82.1035 73.3329 83.369Z" fill="#0C0B0B"/>
</g>
<g id="Group_11" filter="url(#filter10_d)">
<path id="Vector_12" d="M80.0258 89.201C81.4779 90.4665 83.28 90.7687 84.0508 89.876C84.8217 88.9833 84.2694 87.2337 82.8173 85.9683C81.3652 84.7028 79.5631 84.4006 78.7922 85.2933C78.0214 86.186 78.5736 87.9356 80.0258 89.201Z" fill="#0C0B0B"/>
</g>
<g id="Group_12" filter="url(#filter11_d)">
<path id="Vector_13" d="M76.4429 93.3553C77.895 94.6208 79.6971 94.923 80.4679 94.0303C81.2388 93.1376 80.6865 91.388 79.2344 90.1226C77.7823 88.8571 75.9802 88.5549 75.2093 89.4476C74.4385 90.3403 74.9908 92.0899 76.4429 93.3553Z" fill="#0C0B0B"/>
</g>
<g id="Group_13" filter="url(#filter12_d)">
<path id="Vector_14" d="M59.8592 85.3868C61.3113 86.6523 63.1134 86.9545 63.8843 86.0618C64.6551 85.1691 64.1029 83.4195 62.6507 82.154C61.1986 80.8886 59.3965 80.5864 58.6257 81.4791C57.8548 82.3718 58.4071 84.1213 59.8592 85.3868Z" fill="#0C0B0B"/>
</g>
<g id="Group_14" filter="url(#filter13_d)">
<path id="Vector_15" d="M63.0567 81.6907C64.5088 82.9562 66.3109 83.2584 67.0818 82.3657C67.8526 81.4729 67.3004 79.7234 65.8482 78.4579C64.3961 77.1924 62.594 76.8902 61.8232 77.7829C61.0523 78.6756 61.6046 80.4252 63.0567 81.6907Z" fill="#0C0B0B"/>
</g>
<g id="Group_15" filter="url(#filter14_d)">
<path id="Vector_16" d="M69.7499 87.5234C71.202 88.7889 73.0041 89.0911 73.775 88.1984C74.5458 87.3057 73.9935 85.5561 72.5414 84.2906C71.0893 83.0252 69.2872 82.723 68.5163 83.6157C67.7455 84.5084 68.2978 86.2579 69.7499 87.5234Z" fill="#0C0B0B"/>
</g>
<g id="Group_16" filter="url(#filter15_d)">
<path id="Vector_17" d="M66.5526 91.2198C68.0047 92.4853 69.8068 92.7875 70.5776 91.8948C71.3485 91.0021 70.7962 89.2525 69.3441 87.9871C67.892 86.7216 66.0899 86.4194 65.319 87.3121C64.5482 88.2048 65.1004 89.9544 66.5526 91.2198Z" fill="#0C0B0B"/>
</g>
<g id="Group_17" filter="url(#filter16_d)">
<path id="Vector_18" d="M73.2456 97.0519C74.6977 98.3174 76.4998 98.6196 77.2706 97.7269C78.0415 96.8341 77.4892 95.0846 76.0371 93.8191C74.585 92.5536 72.7829 92.2514 72.012 93.1441C71.2411 94.0368 71.7934 95.7864 73.2456 97.0519Z" fill="#0C0B0B"/>
</g>
<g id="Group_18" filter="url(#filter17_d)">
<path id="Vector_19" d="M63.3646 94.9135C64.8167 96.1789 66.6188 96.4811 67.3896 95.5884C68.1605 94.6957 67.6082 92.9462 66.1561 91.6807C64.704 90.4152 62.9019 90.113 62.131 91.0057C61.3602 91.8984 61.9124 93.648 63.3646 94.9135Z" fill="#0C0B0B"/>
</g>
<g id="Group_19" filter="url(#filter18_d)">
<path id="Vector_20" d="M56.6716 89.0814C58.1238 90.3469 59.9258 90.6491 60.6967 89.7564C61.4676 88.8637 60.9153 87.1141 59.4632 85.8486C58.011 84.5831 56.209 84.2809 55.4381 85.1736C54.6672 86.0664 55.2195 87.8159 56.6716 89.0814Z" fill="#0C0B0B"/>
</g>
<g id="Group_20" filter="url(#filter19_d)">
<path id="Vector_21" d="M53.0792 93.2388C54.5313 94.5043 56.3334 94.8065 57.1042 93.9137C57.8751 93.021 57.3228 91.2715 55.8707 90.006C54.4186 88.7405 52.6165 88.4383 51.8456 89.331C51.0748 90.2237 51.627 91.9733 53.0792 93.2388Z" fill="#FF2020"/>
</g>
<g id="Group_21" filter="url(#filter20_d)">
<path id="Vector_22" d="M59.7726 99.0715C61.2247 100.337 63.0268 100.639 63.7977 99.7465C64.5685 98.8538 64.0162 97.1042 62.5641 95.8387C61.112 94.5732 59.3099 94.271 58.539 95.1638C57.7682 96.0565 58.3205 97.806 59.7726 99.0715Z" fill="#0C0B0B"/>
</g>
<g id="Group_22" filter="url(#filter21_d)">
<path id="Vector_23" d="M66.4656 104.904C67.9177 106.169 69.7198 106.471 70.4907 105.579C71.2615 104.686 70.7092 102.936 69.2571 101.671C67.805 100.405 66.0029 100.103 65.232 100.996C64.4612 101.889 65.0135 103.638 66.4656 104.904Z" fill="#37E51B"/>
</g>
<g id="Group_23" filter="url(#filter22_d)">
<path id="Vector_24" d="M70.0578 100.746C71.5099 102.012 73.312 102.314 74.0829 101.421C74.8537 100.529 74.3015 98.779 72.8493 97.5135C71.3972 96.2481 69.5951 95.9459 68.8243 96.8386C68.0534 97.7313 68.6057 99.4808 70.0578 100.746Z" fill="#0C0B0B"/>
</g>
<ellipse id="Ellipse 36" rx="3.26244" ry="3.18882" transform="matrix(0.637986 -0.770048 0.771924 0.635715 43.4877 110.594)" fill="#BBBE36"/>
<ellipse id="Ellipse 37" rx="3.26244" ry="3.18882" transform="matrix(0.637986 -0.770048 0.771924 0.635715 45.8004 107.803)" fill="#201E99"/>
</g>
<defs>
<filter id="filter0_d" x="29.105" y="96.7974" width="25.4231" height="22.1207" filterUnits="userSpaceOnUse" color-interpolation-filters="sRGB">
<feFlood flood-opacity="0" result="BackgroundImageFix"/>
<feColorMatrix in="SourceAlpha" type="matrix" values="0 0 0 0 0 0 0 0 0 0 0 0 0 0 0 0 0 0 127 0"/>
<feOffset dy="4"/>
<feGaussianBlur stdDeviation="2"/>
<feColorMatrix type="matrix" values="0 0 0 0 0 0 0 0 0 0 0 0 0 0 0 0 0 0 0.25 0"/>
<feBlend mode="normal" in2="BackgroundImageFix" result="effect1_dropShadow"/>
<feBlend mode="normal" in="SourceGraphic" in2="effect1_dropShadow" result="shape"/>
</filter>
<filter id="filter1_d" x="31.6522" y="102.94" width="38.2513" height="32.6821" filterUnits="userSpaceOnUse" color-interpolation-filters="sRGB">
<feFlood flood-opacity="0" result="BackgroundImageFix"/>
<feColorMatrix in="SourceAlpha" type="matrix" values="0 0 0 0 0 0 0 0 0 0 0 0 0 0 0 0 0 0 127 0"/>
<feOffset dy="4"/>
<feGaussianBlur stdDeviation="2"/>
<feColorMatrix type="matrix" values="0 0 0 0 0 0 0 0 0 0 0 0 0 0 0 0 0 0 0.25 0"/>
<feBlend mode="normal" in2="BackgroundImageFix" result="effect1_dropShadow"/>
<feBlend mode="normal" in="SourceGraphic" in2="effect1_dropShadow" result="shape"/>
</filter>
<filter id="filter2_d" x="27.5204" y="32.7964" width="102.355" height="97.4002" filterUnits="userSpaceOnUse" color-interpolation-filters="sRGB">
<feFlood flood-opacity="0" result="BackgroundImageFix"/>
<feColorMatrix in="SourceAlpha" type="matrix" values="0 0 0 0 0 0 0 0 0 0 0 0 0 0 0 0 0 0 127 0"/>
<feOffset dy="4"/>
<feGaussianBlur stdDeviation="2"/>
<feColorMatrix type="matrix" values="0 0 0 0 0 0 0 0 0 0 0 0 0 0 0 0 0 0 0.25 0"/>
<feBlend mode="normal" in2="BackgroundImageFix" result="effect1_dropShadow"/>
<feBlend mode="normal" in="SourceGraphic" in2="effect1_dropShadow" result="shape"/>
</filter>
<filter id="filter3_d" x="83.0931" y="38.1864" width="15.0711" height="14.4368" filterUnits="userSpaceOnUse" color-interpolation-filters="sRGB">
<feFlood flood-opacity="0" result="BackgroundImageFix"/>
<feColorMatrix in="SourceAlpha" type="matrix" values="0 0 0 0 0 0 0 0 0 0 0 0 0 0 0 0 0 0 127 0"/>
<feOffset dy="4"/>
<feGaussianBlur stdDeviation="2"/>
<feColorMatrix type="matrix" values="0 0 0 0 0 0 0 0 0 0 0 0 0 0 0 0 0 0 0.25 0"/>
<feBlend mode="normal" in2="BackgroundImageFix" result="effect1_dropShadow"/>
<feBlend mode="normal" in="SourceGraphic" in2="effect1_dropShadow" result="shape"/>
</filter>
<filter id="filter4_d" x="80.7427" y="29.864" width="46.834" height="45.9439" filterUnits="userSpaceOnUse" color-interpolation-filters="sRGB">
<feFlood flood-opacity="0" result="BackgroundImageFix"/>
<feColorMatrix in="SourceAlpha" type="matrix" values="0 0 0 0 0 0 0 0 0 0 0 0 0 0 0 0 0 0 127 0"/>
<feOffset dy="4"/>
<feGaussianBlur stdDeviation="2"/>
<feColorMatrix type="matrix" values="0 0 0 0 0 0 0 0 0 0 0 0 0 0 0 0 0 0 0.25 0"/>
<feBlend mode="normal" in2="BackgroundImageFix" result="effect1_dropShadow"/>
<feBlend mode="normal" in="SourceGraphic" in2="effect1_dropShadow" result="shape"/>
</filter>
<filter id="filter5_d" x="28.7535" y="32.2653" width="110.296" height="94.771" filterUnits="userSpaceOnUse" color-interpolation-filters="sRGB">
<feFlood flood-opacity="0" result="BackgroundImageFix"/>
<feColorMatrix in="SourceAlpha" type="matrix" values="0 0 0 0 0 0 0 0 0 0 0 0 0 0 0 0 0 0 127 0"/>
<feOffset dy="4"/>
<feGaussianBlur stdDeviation="2"/>
<feColorMatrix type="matrix" values="0 0 0 0 0 0 0 0 0 0 0 0 0 0 0 0 0 0 0.25 0"/>
<feBlend mode="normal" in2="BackgroundImageFix" result="effect1_dropShadow"/>
<feBlend mode="normal" in="SourceGraphic" in2="effect1_dropShadow" result="shape"/>
</filter>
<filter id="filter6_d" x="60.118" y="45.396" width="52.0648" height="53.4268" filterUnits="userSpaceOnUse" color-interpolation-filters="sRGB">
<feFlood flood-opacity="0" result="BackgroundImageFix"/>
<feColorMatrix in="SourceAlpha" type="matrix" values="0 0 0 0 0 0 0 0 0 0 0 0 0 0 0 0 0 0 127 0"/>
<feOffset dy="4"/>
<feGaussianBlur stdDeviation="2"/>
<feColorMatrix type="matrix" values="0 0 0 0 0 0 0 0 0 0 0 0 0 0 0 0 0 0 0.25 0"/>
<feBlend mode="normal" in2="BackgroundImageFix" result="effect1_dropShadow"/>
<feBlend mode="normal" in="SourceGraphic" in2="effect1_dropShadow" result="shape"/>
</filter>
<filter id="filter7_d" x="63.062" y="48.2206" width="46.4293" height="47.8351" filterUnits="userSpaceOnUse" color-interpolation-filters="sRGB">
<feFlood flood-opacity="0" result="BackgroundImageFix"/>
<feColorMatrix in="SourceAlpha" type="matrix" values="0 0 0 0 0 0 0 0 0 0 0 0 0 0 0 0 0 0 127 0"/>
<feOffset dy="4"/>
<feGaussianBlur stdDeviation="2"/>
<feColorMatrix type="matrix" values="0 0 0 0 0 0 0 0 0 0 0 0 0 0 0 0 0 0 0.25 0"/>
<feBlend mode="normal" in2="BackgroundImageFix" result="effect1_dropShadow"/>
<feBlend mode="normal" in="SourceGraphic" in2="effect1_dropShadow" result="shape"/>
</filter>
<filter id="filter8_d" x="61.0579" y="73.1154" width="13.9548" height="13.6087" filterUnits="userSpaceOnUse" color-interpolation-filters="sRGB">
<feFlood flood-opacity="0" result="BackgroundImageFix"/>
<feColorMatrix in="SourceAlpha" type="matrix" values="0 0 0 0 0 0 0 0 0 0 0 0 0 0 0 0 0 0 127 0"/>
<feOffset dy="4"/>
<feGaussianBlur stdDeviation="2"/>
<feColorMatrix type="matrix" values="0 0 0 0 0 0 0 0 0 0 0 0 0 0 0 0 0 0 0.25 0"/>
<feBlend mode="normal" in2="BackgroundImageFix" result="effect1_dropShadow"/>
<feBlend mode="normal" in="SourceGraphic" in2="effect1_dropShadow" result="shape"/>
</filter>
<filter id="filter9_d" x="67.7513" y="78.9482" width="13.9548" height="13.6087" filterUnits="userSpaceOnUse" color-interpolation-filters="sRGB">
<feFlood flood-opacity="0" result="BackgroundImageFix"/>
<feColorMatrix in="SourceAlpha" type="matrix" values="0 0 0 0 0 0 0 0 0 0 0 0 0 0 0 0 0 0 127 0"/>
<feOffset dy="4"/>
<feGaussianBlur stdDeviation="2"/>
<feColorMatrix type="matrix" values="0 0 0 0 0 0 0 0 0 0 0 0 0 0 0 0 0 0 0.25 0"/>
<feBlend mode="normal" in2="BackgroundImageFix" result="effect1_dropShadow"/>
<feBlend mode="normal" in="SourceGraphic" in2="effect1_dropShadow" result="shape"/>
</filter>
<filter id="filter10_d" x="74.4442" y="84.7803" width="13.9548" height="13.6087" filterUnits="userSpaceOnUse" color-interpolation-filters="sRGB">
<feFlood flood-opacity="0" result="BackgroundImageFix"/>
<feColorMatrix in="SourceAlpha" type="matrix" values="0 0 0 0 0 0 0 0 0 0 0 0 0 0 0 0 0 0 127 0"/>
<feOffset dy="4"/>
<feGaussianBlur stdDeviation="2"/>
<feColorMatrix type="matrix" values="0 0 0 0 0 0 0 0 0 0 0 0 0 0 0 0 0 0 0.25 0"/>
<feBlend mode="normal" in2="BackgroundImageFix" result="effect1_dropShadow"/>
<feBlend mode="normal" in="SourceGraphic" in2="effect1_dropShadow" result="shape"/>
</filter>
<filter id="filter11_d" x="70.8613" y="88.9346" width="13.9548" height="13.6087" filterUnits="userSpaceOnUse" color-interpolation-filters="sRGB">
<feFlood flood-opacity="0" result="BackgroundImageFix"/>
<feColorMatrix in="SourceAlpha" type="matrix" values="0 0 0 0 0 0 0 0 0 0 0 0 0 0 0 0 0 0 127 0"/>
<feOffset dy="4"/>
<feGaussianBlur stdDeviation="2"/>
<feColorMatrix type="matrix" values="0 0 0 0 0 0 0 0 0 0 0 0 0 0 0 0 0 0 0.25 0"/>
<feBlend mode="normal" in2="BackgroundImageFix" result="effect1_dropShadow"/>
<feBlend mode="normal" in="SourceGraphic" in2="effect1_dropShadow" result="shape"/>
</filter>
<filter id="filter12_d" x="54.2776" y="80.9661" width="13.9548" height="13.6087" filterUnits="userSpaceOnUse" color-interpolation-filters="sRGB">
<feFlood flood-opacity="0" result="BackgroundImageFix"/>
<feColorMatrix in="SourceAlpha" type="matrix" values="0 0 0 0 0 0 0 0 0 0 0 0 0 0 0 0 0 0 127 0"/>
<feOffset dy="4"/>
<feGaussianBlur stdDeviation="2"/>
<feColorMatrix type="matrix" values="0 0 0 0 0 0 0 0 0 0 0 0 0 0 0 0 0 0 0.25 0"/>
<feBlend mode="normal" in2="BackgroundImageFix" result="effect1_dropShadow"/>
<feBlend mode="normal" in="SourceGraphic" in2="effect1_dropShadow" result="shape"/>
</filter>
<filter id="filter13_d" x="57.4751" y="77.2699" width="13.9548" height="13.6087" filterUnits="userSpaceOnUse" color-interpolation-filters="sRGB">
<feFlood flood-opacity="0" result="BackgroundImageFix"/>
<feColorMatrix in="SourceAlpha" type="matrix" values="0 0 0 0 0 0 0 0 0 0 0 0 0 0 0 0 0 0 127 0"/>
<feOffset dy="4"/>
<feGaussianBlur stdDeviation="2"/>
<feColorMatrix type="matrix" values="0 0 0 0 0 0 0 0 0 0 0 0 0 0 0 0 0 0 0.25 0"/>
<feBlend mode="normal" in2="BackgroundImageFix" result="effect1_dropShadow"/>
<feBlend mode="normal" in="SourceGraphic" in2="effect1_dropShadow" result="shape"/>
</filter>
<filter id="filter14_d" x="64.1683" y="83.1027" width="13.9548" height="13.6087" filterUnits="userSpaceOnUse" color-interpolation-filters="sRGB">
<feFlood flood-opacity="0" result="BackgroundImageFix"/>
<feColorMatrix in="SourceAlpha" type="matrix" values="0 0 0 0 0 0 0 0 0 0 0 0 0 0 0 0 0 0 127 0"/>
<feOffset dy="4"/>
<feGaussianBlur stdDeviation="2"/>
<feColorMatrix type="matrix" values="0 0 0 0 0 0 0 0 0 0 0 0 0 0 0 0 0 0 0.25 0"/>
<feBlend mode="normal" in2="BackgroundImageFix" result="effect1_dropShadow"/>
<feBlend mode="normal" in="SourceGraphic" in2="effect1_dropShadow" result="shape"/>
</filter>
<filter id="filter15_d" x="60.9709" y="86.7991" width="13.9548" height="13.6087" filterUnits="userSpaceOnUse" color-interpolation-filters="sRGB">
<feFlood flood-opacity="0" result="BackgroundImageFix"/>
<feColorMatrix in="SourceAlpha" type="matrix" values="0 0 0 0 0 0 0 0 0 0 0 0 0 0 0 0 0 0 127 0"/>
<feOffset dy="4"/>
<feGaussianBlur stdDeviation="2"/>
<feColorMatrix type="matrix" values="0 0 0 0 0 0 0 0 0 0 0 0 0 0 0 0 0 0 0.25 0"/>
<feBlend mode="normal" in2="BackgroundImageFix" result="effect1_dropShadow"/>
<feBlend mode="normal" in="SourceGraphic" in2="effect1_dropShadow" result="shape"/>
</filter>
<filter id="filter16_d" x="67.6639" y="92.6311" width="13.9548" height="13.6087" filterUnits="userSpaceOnUse" color-interpolation-filters="sRGB">
<feFlood flood-opacity="0" result="BackgroundImageFix"/>
<feColorMatrix in="SourceAlpha" type="matrix" values="0 0 0 0 0 0 0 0 0 0 0 0 0 0 0 0 0 0 127 0"/>
<feOffset dy="4"/>
<feGaussianBlur stdDeviation="2"/>
<feColorMatrix type="matrix" values="0 0 0 0 0 0 0 0 0 0 0 0 0 0 0 0 0 0 0.25 0"/>
<feBlend mode="normal" in2="BackgroundImageFix" result="effect1_dropShadow"/>
<feBlend mode="normal" in="SourceGraphic" in2="effect1_dropShadow" result="shape"/>
</filter>
<filter id="filter17_d" x="57.783" y="90.4927" width="13.9548" height="13.6087" filterUnits="userSpaceOnUse" color-interpolation-filters="sRGB">
<feFlood flood-opacity="0" result="BackgroundImageFix"/>
<feColorMatrix in="SourceAlpha" type="matrix" values="0 0 0 0 0 0 0 0 0 0 0 0 0 0 0 0 0 0 127 0"/>
<feOffset dy="4"/>
<feGaussianBlur stdDeviation="2"/>
<feColorMatrix type="matrix" values="0 0 0 0 0 0 0 0 0 0 0 0 0 0 0 0 0 0 0.25 0"/>
<feBlend mode="normal" in2="BackgroundImageFix" result="effect1_dropShadow"/>
<feBlend mode="normal" in="SourceGraphic" in2="effect1_dropShadow" result="shape"/>
</filter>
<filter id="filter18_d" x="51.09" y="84.6606" width="13.9548" height="13.6087" filterUnits="userSpaceOnUse" color-interpolation-filters="sRGB">
<feFlood flood-opacity="0" result="BackgroundImageFix"/>
<feColorMatrix in="SourceAlpha" type="matrix" values="0 0 0 0 0 0 0 0 0 0 0 0 0 0 0 0 0 0 127 0"/>
<feOffset dy="4"/>
<feGaussianBlur stdDeviation="2"/>
<feColorMatrix type="matrix" values="0 0 0 0 0 0 0 0 0 0 0 0 0 0 0 0 0 0 0.25 0"/>
<feBlend mode="normal" in2="BackgroundImageFix" result="effect1_dropShadow"/>
<feBlend mode="normal" in="SourceGraphic" in2="effect1_dropShadow" result="shape"/>
</filter>
<filter id="filter19_d" x="47.4976" y="88.818" width="13.9548" height="13.6087" filterUnits="userSpaceOnUse" color-interpolation-filters="sRGB">
<feFlood flood-opacity="0" result="BackgroundImageFix"/>
<feColorMatrix in="SourceAlpha" type="matrix" values="0 0 0 0 0 0 0 0 0 0 0 0 0 0 0 0 0 0 127 0"/>
<feOffset dy="4"/>
<feGaussianBlur stdDeviation="2"/>
<feColorMatrix type="matrix" values="0 0 0 0 0 0 0 0 0 0 0 0 0 0 0 0 0 0 0.25 0"/>
<feBlend mode="normal" in2="BackgroundImageFix" result="effect1_dropShadow"/>
<feBlend mode="normal" in="SourceGraphic" in2="effect1_dropShadow" result="shape"/>
</filter>
<filter id="filter20_d" x="54.191" y="94.6509" width="13.9548" height="13.6087" filterUnits="userSpaceOnUse" color-interpolation-filters="sRGB">
<feFlood flood-opacity="0" result="BackgroundImageFix"/>
<feColorMatrix in="SourceAlpha" type="matrix" values="0 0 0 0 0 0 0 0 0 0 0 0 0 0 0 0 0 0 127 0"/>
<feOffset dy="4"/>
<feGaussianBlur stdDeviation="2"/>
<feColorMatrix type="matrix" values="0 0 0 0 0 0 0 0 0 0 0 0 0 0 0 0 0 0 0.25 0"/>
<feBlend mode="normal" in2="BackgroundImageFix" result="effect1_dropShadow"/>
<feBlend mode="normal" in="SourceGraphic" in2="effect1_dropShadow" result="shape"/>
</filter>
<filter id="filter21_d" x="60.884" y="100.483" width="13.9548" height="13.6087" filterUnits="userSpaceOnUse" color-interpolation-filters="sRGB">
<feFlood flood-opacity="0" result="BackgroundImageFix"/>
<feColorMatrix in="SourceAlpha" type="matrix" values="0 0 0 0 0 0 0 0 0 0 0 0 0 0 0 0 0 0 127 0"/>
<feOffset dy="4"/>
<feGaussianBlur stdDeviation="2"/>
<feColorMatrix type="matrix" values="0 0 0 0 0 0 0 0 0 0 0 0 0 0 0 0 0 0 0.25 0"/>
<feBlend mode="normal" in2="BackgroundImageFix" result="effect1_dropShadow"/>
<feBlend mode="normal" in="SourceGraphic" in2="effect1_dropShadow" result="shape"/>
</filter>
<filter id="filter22_d" x="64.4762" y="96.3257" width="13.9548" height="13.6087" filterUnits="userSpaceOnUse" color-interpolation-filters="sRGB">
<feFlood flood-opacity="0" result="BackgroundImageFix"/>
<feColorMatrix in="SourceAlpha" type="matrix" values="0 0 0 0 0 0 0 0 0 0 0 0 0 0 0 0 0 0 127 0"/>
<feOffset dy="4"/>
<feGaussianBlur stdDeviation="2"/>
<feColorMatrix type="matrix" values="0 0 0 0 0 0 0 0 0 0 0 0 0 0 0 0 0 0 0.25 0"/>
<feBlend mode="normal" in2="BackgroundImageFix" result="effect1_dropShadow"/>
<feBlend mode="normal" in="SourceGraphic" in2="effect1_dropShadow" result="shape"/>
</filter>
</defs>
</svg>
