<svg width="113" height="132" viewBox="0 0 113 132" fill="none" xmlns="http://www.w3.org/2000/svg">
<path d="M41.1249 117.533L46.213 117.533L48.6339 105.178L41.1239 105.178L41.1249 117.533Z" fill="#FFB8B8"/>
<path d="M39.8269 116.487L49.8478 116.487H49.8482C51.5418 116.487 53.1661 116.911 54.3637 117.665C55.5613 118.418 56.2342 119.441 56.2343 120.507V120.638L39.8272 120.638L39.8269 116.487Z" fill="black"/>
<path d="M58.2334 117.533L63.3216 117.533L65.7424 105.178L58.2324 105.178L58.2334 117.533Z" fill="#FFB8B8"/>
<path d="M56.9353 116.487L66.9562 116.487H66.9566C68.6502 116.487 70.2745 116.911 71.4721 117.665C72.6697 118.418 73.3426 119.441 73.3427 120.507V120.638L56.9356 120.638L56.9353 116.487Z" fill="black"/>
<path d="M49.1223 74.1462L50.343 113.342L40.469 112.956L33.619 87.9909L31.4554 70.9688L49.1223 74.1462Z" fill="#1D8D8D"/>
<path d="M66.068 67.5644L67.4517 113.963L55.9363 113.756L53.449 86.1751L49.1224 76.1888L31.4558 70.9688L34.3402 58.486L60.2993 58.259L66.068 67.5644Z" fill="#1D8D8D"/>
<path d="M46.2143 26.031C51.0911 26.031 55.0444 23.5424 55.0444 20.4725C55.0444 17.4027 51.0911 14.9141 46.2143 14.9141C41.3376 14.9141 37.3843 17.4027 37.3843 20.4725C37.3843 23.5424 41.3376 26.031 46.2143 26.031Z" fill="#FFB8B8"/>
<path d="M53.5383 28.3723L54.8909 29.6622L58.4965 36.017L55.612 60.7554L38.6663 60.9826L36.5034 32.6125L41.0349 29.0469L53.5383 28.3723Z" fill="#CCCCCC"/>
<path d="M29.653 33.2936L26.7687 33.0667C26.7687 33.0667 26.0476 33.2936 25.6871 34.8823C25.3265 36.471 21 50.5425 21 50.5425L26.7687 67.7915L33.2585 62.3444L29.2925 52.8121L33.2585 43.2798L29.653 33.2936Z" fill="#1D8D8D"/>
<path d="M66.4284 33.0667H68.5917L74 51.4501L68.9523 65.7486L63.9046 60.5286L65.3466 54.8546L64.6258 49.8616L62.1019 46.9109L66.4284 33.0667Z" fill="#1D8D8D"/>
<path d="M51.4323 20.4724L49.8268 20.2198C49.8268 20.2198 48.6227 15.9246 45.8131 16.4299C43.0035 16.9352 35.7789 17.4405 35.7789 15.4193C35.7789 13.398 42.6022 11.6294 46.6158 11.882C50.6295 12.1347 55.7556 12.9729 57.0514 16.6825C59.1286 22.6293 52.7656 24.1314 52.7656 24.1314L52.8715 23.9148C53.1655 23.3136 53.1865 22.6727 52.9322 22.0644C52.6779 21.456 52.1583 20.9046 51.4323 20.4724V20.4724Z" fill="#050505"/>
<path d="M27.1294 33.0667L38.6668 30.1162L41.3708 28.8679L49.4831 51.4504L53.2687 28.187L68.2313 33.0666L63.1836 48.4999L62.4626 54.4008L64.6258 59.167C64.6258 59.167 72.1972 62.5714 69.6734 66.2027C67.1496 69.8341 64.2653 70.061 64.2653 70.061C64.2653 70.061 52.0068 62.7983 51.2858 60.9827C50.5647 59.167 49.4831 55.9895 49.4831 55.9895C49.4831 55.9895 43.3538 70.515 36.143 70.288C28.9322 70.061 28.9321 65.2949 28.9321 65.2949L30.7349 60.3018L33.6192 55.0817L32.177 46.4572L27.1294 33.0667Z" fill="#1D8D8D"/>
</svg>
