<svg width="113" height="123" viewBox="0 0 113 123" fill="none" xmlns="http://www.w3.org/2000/svg">
<path d="M49.339 110.291L53.2172 110.291L55.0623 98.4487L49.3383 98.4489L49.339 110.291Z" fill="#FFB8B8"/>
<path d="M48.3497 109.289L55.9876 109.288H55.9879C57.2788 109.288 58.5168 109.694 59.4296 110.417C60.3424 111.14 60.8552 112.12 60.8553 113.141V113.267L48.35 113.267L48.3497 109.289Z" fill="black"/>
<path d="M62.379 110.291L66.2572 110.291L68.1024 98.4487L62.3783 98.4489L62.379 110.291Z" fill="#FFB8B8"/>
<path d="M61.3896 109.289L69.0275 109.288H69.0278C70.3187 109.288 71.5567 109.694 72.4695 110.417C73.3823 111.14 73.8952 112.12 73.8953 113.141V113.267L61.3899 113.267L61.3896 109.289Z" fill="black"/>
<path d="M55.4347 68.7041L56.365 106.274L48.8392 105.904L43.6182 81.9744L41.9691 65.6584L55.4347 68.7041Z" fill="#1D8D8D"/>
<path d="M68.3505 62.3954L69.4051 106.869L60.6282 106.671L58.7324 80.2339L55.4347 70.662L41.9694 65.6585L44.1678 53.6936L63.9536 53.4761L68.3505 62.3954Z" fill="#1D8D8D"/>
<path d="M53.2183 22.5849C56.9353 22.5849 59.9485 20.1996 59.9485 17.2571C59.9485 14.3146 56.9353 11.9292 53.2183 11.9292C49.5013 11.9292 46.488 14.3146 46.488 17.2571C46.488 20.1996 49.5013 22.5849 53.2183 22.5849Z" fill="#FFB8B8"/>
<path d="M58.8005 24.8293L59.8314 26.0657L62.5796 32.1568L60.3811 55.869L47.4652 56.0867L45.8167 28.8936L49.2705 25.4759L58.8005 24.8293Z" fill="#CCCCCC"/>
<path d="M40.5953 29.5464L38.3969 29.3289C38.3969 29.3289 37.8473 29.5464 37.5725 31.0692C37.2977 32.592 34 46.0797 34 46.0797L38.3969 62.613L43.3433 57.392L40.3205 48.2552L43.3433 39.1183L40.5953 29.5464Z" fill="#1D8D8D"/>
<path d="M68.6253 29.3289H70.2741L74.3962 46.9497L70.5489 60.6549L66.7016 55.6515L67.8007 50.2129L67.2513 45.427L65.3276 42.5988L68.6253 29.3289Z" fill="#1D8D8D"/>
<path d="M57.1953 17.2571L55.9716 17.0149C55.9716 17.0149 55.0538 12.898 52.9124 13.3823C50.7709 13.8667 45.2644 14.351 45.2644 12.4136C45.2644 10.4762 50.465 8.78096 53.5242 9.02314C56.5834 9.26531 60.4905 10.0687 61.4781 13.6245C63.0614 19.3245 58.2115 20.7643 58.2115 20.7643L58.2922 20.5567C58.5163 19.9805 58.5323 19.3661 58.3385 18.783C58.1447 18.1999 57.7487 17.6714 57.1953 17.2571V17.2571Z" fill="#050505"/>
<path d="M38.6718 29.3288L47.4655 26.5007L49.5265 25.3043L55.7096 46.9498L58.595 24.6516L69.9993 29.3288L66.1521 44.1218L65.6025 49.7779L67.2513 54.3463C67.2513 54.3463 73.0221 57.6095 71.0985 61.0902C69.1749 64.5708 66.9765 64.7884 66.9765 64.7884C66.9765 64.7884 57.6332 57.827 57.0836 56.0866C56.534 54.3463 55.7096 51.3007 55.7096 51.3007C55.7096 51.3007 51.0379 65.2235 45.5419 65.0059C40.0458 64.7884 40.0458 60.22 40.0458 60.22L41.4198 55.434L43.6182 50.4305L42.519 42.1639L38.6718 29.3288Z" fill="#1D8D8D"/>
</svg>
