<svg width="113" height="132" viewBox="0 0 113 132" fill="none" xmlns="http://www.w3.org/2000/svg">
<g clip-path="url(#clip0)">
<path opacity="0.1" d="M108 82.1342C108.006 85.5633 107.184 88.9282 105.626 91.8612C105.626 95.4482 104.158 98.6995 101.778 101.069C101.183 101.661 100.541 102.191 99.8619 102.652C99.8346 102.672 99.8065 102.691 99.7783 102.709C99.7274 102.743 99.6765 102.778 99.6246 102.813L99.5765 102.845C99.3592 102.985 99.1374 103.12 98.911 103.246C96.8251 104.415 94.53 105.018 92.2055 105.007H23.7428C23.1973 105.007 22.6567 104.982 22.121 104.933C20.217 104.762 18.3461 104.268 16.57 103.468C16.2234 103.312 15.8834 103.144 15.55 102.964C15.3913 102.879 15.234 102.792 15.0782 102.702C14.981 102.646 14.8837 102.588 14.7873 102.53C14.2026 102.176 13.6362 101.783 13.0909 101.355C12.5926 100.966 12.1131 100.547 11.6546 100.099C8.56095 97.0739 6.64731 92.887 6.64731 88.267C4.91327 85.2237 3.99347 81.6713 4.00003 78.0427C4.00003 67.7707 11.2037 59.4435 20.091 59.4435C20.3637 59.4435 20.6364 59.4528 20.9091 59.4694C20.9482 59.4694 20.9864 59.4694 21.0255 59.4756C22.5237 56.5652 24.5264 53.891 26.9346 51.537C33.5019 45.1235 43.1001 41.0806 53.7919 41.0806C62.7755 41.0806 70.9873 43.935 77.2773 48.6514C79.6609 47.1158 82.353 46.3108 85.091 46.315C93.9765 46.315 101.182 54.6422 101.182 64.9141C101.181 65.5641 101.15 66.2135 101.091 66.86C103.233 68.588 104.979 70.8777 106.181 73.5361C107.384 76.1945 108.007 79.1434 108 82.1342V82.1342Z" fill="#FF6366"/>
<path opacity="0.1" d="M86.7899 67.3863V66.2745C87.5529 65.9215 88.1845 65.2771 88.5765 64.4518C88.9684 63.6264 89.0965 62.6715 88.9387 61.7504C88.7809 60.8293 88.347 59.9993 87.7114 59.4027C87.0758 58.806 86.2779 58.4798 85.4545 58.4798C84.631 58.4798 83.8332 58.806 83.1976 59.4027C82.562 59.9993 82.1281 60.8293 81.9703 61.7504C81.8125 62.6715 81.9405 63.6264 82.3325 64.4518C82.7245 65.2771 83.3561 65.9215 84.119 66.2745V67.3863C83.2296 67.6681 82.426 68.225 81.7972 68.9954C81.1313 67.8567 80.1286 67.0286 78.9718 66.6621V65.5493C79.7347 65.1962 80.3663 64.5519 80.7583 63.7265C81.1503 62.9012 81.2783 61.9462 81.1205 61.0251C80.9627 60.104 80.5288 59.274 79.8932 58.6774C79.2576 58.0807 78.4598 57.7545 77.6363 57.7545C76.8129 57.7545 76.015 58.0807 75.3794 58.6774C74.7438 59.274 74.3099 60.104 74.1521 61.0251C73.9943 61.9462 74.1224 62.9012 74.5144 63.7265C74.9063 64.5519 75.5379 65.1962 76.3009 65.5493V66.661C75.51 66.9113 74.7853 67.3795 74.1909 68.0245C73.5275 67.0097 72.587 66.2749 71.5172 65.9357V64.824C72.2802 64.4709 72.9117 63.8266 73.3037 63.0012C73.6957 62.1759 73.8238 61.2209 73.666 60.2998C73.5082 59.3787 73.0743 58.5488 72.4387 57.9521C71.8031 57.3555 71.0052 57.0292 70.1818 57.0292C69.3583 57.0292 68.5605 57.3555 67.9249 57.9521C67.2892 58.5488 66.8554 59.3787 66.6976 60.2998C66.5398 61.2209 66.6678 62.1759 67.0598 63.0012C67.4518 63.8266 68.0833 64.4709 68.8463 64.824V65.9357C67.9363 66.2248 67.1168 66.8017 66.4827 67.5997C66.2 66.7737 65.7524 66.0341 65.1753 65.4396C64.5983 64.845 63.9076 64.4118 63.1581 64.1744V63.0626C63.9211 62.7096 64.5526 62.0652 64.9446 61.2399C65.3366 60.4145 65.4647 59.4595 65.3069 58.5384C65.1491 57.6173 64.7152 56.7874 64.0796 56.1907C63.444 55.5941 62.6461 55.2678 61.8227 55.2678C60.9992 55.2678 60.2014 55.5941 59.5658 56.1907C58.9301 56.7874 58.4963 57.6173 58.3385 58.5384C58.1807 59.4595 58.3087 60.4145 58.7007 61.2399C59.0927 62.0652 59.7243 62.7096 60.4872 63.0626V64.1744C59.513 64.4835 58.644 65.122 57.9948 66.0057C57.3456 66.8893 56.9467 67.9765 56.8509 69.1238C56.392 68.7608 55.8828 68.4887 55.3445 68.3188V67.207C56.1075 66.854 56.739 66.2096 57.131 65.3843C57.523 64.5589 57.6511 63.604 57.4932 62.6829C57.3354 61.7617 56.9016 60.9318 56.266 60.3352C55.6303 59.7385 54.8325 59.4122 54.009 59.4122C53.1856 59.4122 52.3877 59.7385 51.7521 60.3352C51.1165 60.9318 50.6827 61.7617 50.5248 62.6829C50.367 63.604 50.4951 64.5589 50.8871 65.3843C51.2791 66.2096 51.9106 66.854 52.6736 67.207V68.3188C51.9945 68.5343 51.363 68.9105 50.8201 69.4229C50.2772 69.9353 49.8351 70.5723 49.5227 71.2924C49.1015 70.9839 48.6417 70.7499 48.159 70.5982V69.4865C48.922 69.1334 49.5536 68.4891 49.9455 67.6637C50.3375 66.8384 50.4656 65.8834 50.3078 64.9623C50.15 64.0412 49.7161 63.2112 49.0805 62.6146C48.4449 62.0179 47.647 61.6917 46.8236 61.6917C46.0001 61.6917 45.2023 62.0179 44.5667 62.6146C43.9311 63.2112 43.4972 64.0412 43.3394 64.9623C43.1816 65.8834 43.3096 66.8384 43.7016 67.6637C44.0936 68.4891 44.7252 69.1334 45.4881 69.4865V70.5982C45.0327 70.7415 44.5976 70.9585 44.1963 71.2427C43.8818 70.5344 43.4411 69.9085 42.9025 69.4051C42.3639 68.9017 41.7392 68.5317 41.0681 68.3188V67.207C41.8311 66.854 42.4626 66.2096 42.8546 65.3843C43.2466 64.5589 43.3747 63.604 43.2169 62.6829C43.0591 61.7617 42.6252 60.9318 41.9896 60.3352C41.354 59.7385 40.5561 59.4122 39.7327 59.4122C38.9092 59.4122 38.1114 59.7385 37.4758 60.3352C36.8401 60.9318 36.4063 61.7617 36.2485 62.6829C36.0907 63.604 36.2187 64.5589 36.6107 65.3843C37.0027 66.2096 37.6343 66.854 38.3972 67.207V68.3188C37.675 68.5478 37.0071 68.9586 36.4427 69.5209C35.8783 70.0833 35.4319 70.7828 35.1363 71.568C34.6279 71.1232 34.0492 70.794 33.4318 70.5982V69.4865C34.1947 69.1334 34.8263 68.4891 35.2183 67.6637C35.6103 66.8384 35.7383 65.8834 35.5805 64.9623C35.4227 64.0412 34.9888 63.2112 34.3532 62.6146C33.7176 62.0179 32.9198 61.6917 32.0963 61.6917C31.2729 61.6917 30.475 62.0179 29.8394 62.6146C29.2038 63.2112 28.7699 64.0412 28.6121 64.9623C28.4543 65.8834 28.5824 66.8384 28.9744 67.6637C29.3663 68.4891 29.9979 69.1334 30.7609 69.4865V70.5982C29.7073 70.931 28.7784 71.6482 28.1166 72.64C27.4547 73.6318 27.0964 74.8435 27.0963 76.0896V101.785H37.0909V99.5056H41.8181V101.785H51.8181V99.5056H58.9999V95.3612H65.1818V97.1226H72.6363V97.8478H80.4545V98.5731H90.4545V72.8777C90.4545 71.6316 90.0961 70.4199 89.4342 69.4281C88.7724 68.4363 87.8435 67.7191 86.7899 67.3863V67.3863Z" fill="#FF6366"/>
<path d="M48.6164 56.5103H56.9282C58.9611 56.5101 60.9742 56.9664 62.8524 57.8529C64.7306 58.7395 66.4372 60.039 67.8748 61.6774C69.3123 63.3157 70.4527 65.2606 71.2307 67.4012C72.0087 69.5418 72.4091 71.8361 72.4091 74.1531V98.0581H33.1364V74.1531C33.1364 69.4739 34.7673 64.9864 37.6703 61.6777C40.5734 58.369 44.5108 56.5103 48.6164 56.5103V56.5103Z" fill="#2F2E41"/>
<path opacity="0.2" d="M49.5255 57.4717H56.0192C58.0521 57.4715 60.0652 57.9278 61.9434 58.8144C63.8216 59.7009 65.5282 61.0005 66.9658 62.6388C68.4033 64.2771 69.5437 66.2221 70.3217 68.3627C71.0997 70.5032 71.5001 72.7975 71.5001 75.1145V97.0955H34.0455V75.1145C34.0455 70.4353 35.6765 65.9478 38.5795 62.6391C41.4826 59.3305 45.42 57.4717 49.5255 57.4717V57.4717Z" fill="black"/>
<path d="M98.9091 101.435V103.244C96.8232 104.413 94.5281 105.016 92.2037 105.005H23.7428C23.1973 105.005 22.6567 104.98 22.1209 104.931C20.217 104.76 18.3461 104.266 16.57 103.466C16.2234 103.31 15.8834 103.142 15.55 102.962C15.3912 102.877 15.234 102.79 15.0782 102.7C14.9809 102.644 14.8837 102.586 14.7873 102.528C14.2027 102.174 13.6363 101.783 13.0909 101.355V96.4419C13.0909 95.6477 13.3677 94.8861 13.8605 94.3245C14.3532 93.763 15.0214 93.4475 15.7182 93.4475H91.2846C91.9202 93.4488 92.5339 93.7128 93.0118 94.1904L98.0118 99.1844C98.2935 99.465 98.5192 99.8109 98.674 100.199C98.8287 100.587 98.9089 101.009 98.9091 101.435V101.435Z" fill="#2F2E41"/>
<path d="M47.8791 62.3963C45.8967 62.5455 43.9219 62.7873 41.9546 63.1216C41.3955 63.2169 40.8282 63.3226 40.3182 63.6044C39.9219 63.841 39.5566 64.1395 39.2328 64.4913C37.7724 65.9824 36.5966 67.7997 35.7782 69.8304C35.2719 71.0893 34.9082 72.4207 34.4309 73.6899C32.7319 78.2229 29.65 81.93 27.8564 86.4154C27.4682 87.3862 27.141 88.3995 27.011 89.4553C26.8764 90.5473 27.0291 91.8218 27.8164 92.46C28.18 92.7532 28.6219 92.8744 29.0546 92.9781C34.502 94.3529 40.0128 95.3786 45.5609 96.0501C44.96 95.3891 44.7591 94.3644 44.8382 93.4174C44.9173 92.4704 45.2437 91.5752 45.5655 90.6976C42.4255 89.9081 39.2934 89.0792 36.1691 88.2109C35.7028 88.0814 35.1428 87.8379 35.0855 87.295C35.0564 87.0184 35.1764 86.7521 35.2946 86.5086C36.627 83.7587 38.2248 81.187 40.0582 78.8414C40.0582 81.7487 39.9319 85.0321 39.9319 87.9405H69.3955C69.0411 86.2811 68.8328 84.5856 68.7737 82.8791C68.6364 77.309 70.2818 71.7814 69.8546 66.2227C69.8146 65.7098 69.7528 65.1814 69.5173 64.7421C69.1109 63.9836 68.3 63.6697 67.5546 63.4107C64.6964 62.4202 61.7782 61.4182 58.7909 61.4959C57.9028 61.5198 57.0182 61.6379 56.1355 61.757C53.4455 62.1186 50.5819 62.1922 47.8791 62.3963Z" fill="#FF6366"/>
<path d="M34.08 95.8117L36.2255 103.637C36.2392 103.687 36.2664 103.73 36.3032 103.761C36.34 103.792 36.3844 103.808 36.43 103.808H45.6364L43.4546 94.6907L34.2673 95.4957C34.2353 95.4987 34.2043 95.5099 34.1766 95.5284C34.1489 95.5469 34.1252 95.5722 34.1072 95.6026C34.0892 95.6329 34.0774 95.6674 34.0727 95.7036C34.068 95.7398 34.0705 95.7768 34.08 95.8117V95.8117Z" fill="#656478"/>
<path d="M49.8182 65.7616C49.4182 66.0238 48.9518 66.1181 48.4973 66.2082L45.5636 66.7884C44.9927 66.9013 44.3918 67.0298 43.9518 67.4598C43.0518 68.3374 43.2464 69.9527 43.5191 71.2665L44.0646 73.9023C44.4755 75.8834 44.8955 77.8882 45.7382 79.6828C47.21 82.8149 49.91 85.0705 52.8791 86.1574C53.94 86.5459 55.0609 86.7987 56.1682 86.6599C58.3373 86.3884 60.1927 84.626 61.3364 82.5072C62.48 80.3883 63.0246 77.9307 63.5236 75.5083C64.0027 73.1895 64.4582 70.8375 64.4273 68.4545C64.4182 67.7126 64.3527 66.9376 64.0055 66.3087C63.2446 64.9276 61.52 64.824 60.1064 65.0788C59.8864 65.1192 59.6582 65.1628 59.4464 65.0871C58.81 64.8613 58.7955 63.8656 58.5227 63.1745C58.0073 61.8711 56.4782 61.64 55.2282 61.7581C53.9782 61.8762 52.0318 62.0285 50.9427 62.8357C49.8955 63.6076 51.0464 64.9545 49.8182 65.7616Z" fill="#FBBEBE"/>
<path opacity="0.1" d="M49.8182 65.7616C49.4182 66.0238 48.9518 66.1181 48.4973 66.2082L45.5636 66.7884C44.9927 66.9013 44.3918 67.0298 43.9518 67.4598C43.0518 68.3374 43.2464 69.9527 43.5191 71.2665L44.0646 73.9023C44.4755 75.8834 44.8955 77.8882 45.7382 79.6828C47.21 82.8149 49.91 85.0705 52.8791 86.1574C53.94 86.5459 55.0609 86.7987 56.1682 86.6599C58.3373 86.3884 60.1927 84.626 61.3364 82.5072C62.48 80.3883 63.0246 77.9307 63.5236 75.5083C64.0027 73.1895 64.4582 70.8375 64.4273 68.4545C64.4182 67.7126 64.3527 66.9376 64.0055 66.3087C63.2446 64.9276 61.52 64.824 60.1064 65.0788C59.8864 65.1192 59.6582 65.1628 59.4464 65.0871C58.81 64.8613 58.7955 63.8656 58.5227 63.1745C58.0073 61.8711 56.4782 61.64 55.2282 61.7581C53.9782 61.8762 52.0318 62.0285 50.9427 62.8357C49.8955 63.6076 51.0464 64.9545 49.8182 65.7616Z" fill="black"/>
<path d="M47.39 68.7309C47.8336 69.7919 48.1664 70.9171 48.7027 71.9211C49.1291 72.7189 49.6754 73.4224 50.2191 74.1218C51.6273 75.9371 53.0536 77.7668 54.7964 79.149C55.518 74.9234 57.2615 71.0118 59.83 67.8554C60.5809 66.9364 61.5209 66.0308 62.6227 66.065C63.3064 66.0868 63.9373 66.4733 64.5064 66.9032C65.1427 67.383 65.7445 67.9394 66.2018 68.6304C66.9245 69.7308 67.2364 71.1243 67.2927 72.4972C67.3491 73.87 67.1618 75.2398 66.9764 76.5971L66.0218 83.6125C65.9664 84.0187 65.8891 84.4673 65.5982 84.7108C65.433 84.8301 65.2467 84.9065 65.0527 84.9346C61.5827 85.7044 58.0064 85.205 54.4709 85.1657C50.5618 85.1232 46.5445 85.6309 42.8418 84.2135C42.6482 84.1389 42.4473 84.0529 42.3164 83.8757C42.2304 83.7421 42.1686 83.5903 42.1345 83.4291C41.2718 80.2462 41.9636 76.826 42.4754 73.5468C42.8807 70.948 43.1692 68.3274 43.34 65.6951C43.3554 65.4579 45.6427 65.9821 45.8982 66.15C46.5936 66.6194 47.0554 67.9311 47.39 68.7309Z" fill="#FF6366"/>
<g opacity="0.2">
<path opacity="0.2" d="M19.17 94.6172C19.17 94.6648 19.1654 94.7114 19.1609 94.757C18.8142 94.6009 18.4742 94.4331 18.1409 94.2535C17.9628 94.2268 17.7972 94.1348 17.6691 93.9913C17.5718 93.9354 17.4745 93.8774 17.3782 93.8193C17.4 93.7673 17.4246 93.7167 17.4518 93.6681C17.6391 93.3303 17.9236 93.1189 18.2373 93.1303C18.5509 93.1417 18.8227 93.3728 18.9909 93.7219C19.1195 93.9968 19.1813 94.3059 19.17 94.6172V94.6172Z" fill="#3F3D56"/>
<path opacity="0.2" d="M19.2191 92.8432C19.2129 93.154 19.1342 93.4573 18.9909 93.7218C18.8037 94.0586 18.5191 94.2699 18.2055 94.2585L18.1409 94.2533C17.9629 94.2267 17.7972 94.1346 17.6691 93.9912C17.5822 93.8972 17.5089 93.7881 17.4518 93.6679C17.3264 93.3921 17.265 93.0843 17.2736 92.7737C17.2822 92.4632 17.3605 92.1604 17.5009 91.8941C17.6882 91.5564 17.9727 91.345 18.2864 91.3564C18.6 91.3678 18.8718 91.5988 19.04 91.948C19.1686 92.2229 19.2305 92.5319 19.2191 92.8432V92.8432Z" fill="#3F3D56"/>
<path opacity="0.2" d="M19.268 91.0723C19.2903 90.271 18.873 89.6058 18.336 89.5864C17.7991 89.5671 17.3458 90.201 17.3236 91.0023C17.3013 91.8036 17.7186 92.4688 18.2556 92.4881C18.7925 92.5075 19.2458 91.8736 19.268 91.0723Z" fill="#3F3D56"/>
<path opacity="0.2" d="M19.3177 89.2984C19.3399 88.4971 18.9227 87.8318 18.3857 87.8125C17.8488 87.7931 17.3955 88.427 17.3732 89.2283C17.351 90.0296 17.7683 90.6949 18.3052 90.7142C18.8422 90.7336 19.2955 90.0997 19.3177 89.2984Z" fill="#3F3D56"/>
<path opacity="0.2" d="M19.3663 87.5244C19.3885 86.7231 18.9712 86.0579 18.4343 86.0386C17.8973 86.0192 17.444 86.6531 17.4218 87.4544C17.3996 88.2557 17.8169 88.921 18.3538 88.9403C18.8908 88.9596 19.3441 88.3257 19.3663 87.5244Z" fill="#3F3D56"/>
<path opacity="0.2" d="M15.0912 75.2171C14.9632 75.0195 14.8478 74.8118 14.7458 74.5954L17.3149 74.209L14.5458 74.1344C14.299 73.4672 14.1742 72.7497 14.179 72.0257C14.1839 71.3017 14.3183 70.5864 14.574 69.9236L18.2212 72.2486L14.8803 69.2605C15.2173 68.6392 15.6632 68.1038 16.1899 67.6878C16.7166 67.2717 17.313 66.9839 17.9417 66.8423C18.5704 66.7007 19.218 66.7083 19.844 66.8648C20.47 67.0212 21.061 67.3231 21.58 67.7516C22.0991 68.18 22.535 68.7259 22.8607 69.355C23.1863 69.9841 23.3946 70.6829 23.4726 71.4079C23.5506 72.1329 23.4966 72.8685 23.314 73.5686C23.1314 74.2687 22.8241 74.9185 22.4112 75.4771C22.6102 75.7846 22.7793 76.1156 22.9158 76.4646L19.5458 78.313L23.1212 77.0873C23.3465 77.9337 23.383 78.8308 23.2274 79.6974C23.0719 80.5639 22.7292 81.3726 22.2303 82.0502C22.7496 82.853 23.0601 83.8062 23.1263 84.8008C23.1925 85.7953 23.0118 86.791 22.6048 87.6739C22.1978 88.5569 21.5809 89.2914 20.8248 89.7936C20.0687 90.2957 19.2038 90.5451 18.3292 90.5133C17.4545 90.4815 16.6053 90.1697 15.8788 89.6136C15.1523 89.0576 14.5779 88.2797 14.2211 87.369C13.8643 86.4583 13.7396 85.4515 13.8614 84.4638C13.9831 83.4761 14.3463 82.5474 14.9094 81.7839C14.2892 80.8246 13.97 79.6556 14.003 78.4646C14.0359 77.2737 14.4192 76.1299 15.0912 75.2171V75.2171Z" fill="#FF6366"/>
<path opacity="0.1" d="M23.3182 78.7989C23.2861 79.9908 22.9017 81.1354 22.2272 82.047C22.7472 82.8495 23.0584 83.8027 23.1253 84.7974C23.1922 85.7921 23.012 86.7881 22.6054 87.6715C22.1987 88.555 21.5821 89.2901 20.826 89.7927C20.07 90.2954 19.205 90.5453 18.3301 90.5138C17.4552 90.4823 16.6058 90.1708 15.879 89.6148C15.1523 89.0588 14.5775 88.2809 14.2206 87.37C13.8636 86.4591 13.7389 85.4521 13.8606 84.4642C13.9824 83.4763 14.3457 82.5474 14.9091 81.7839C14.3063 80.8576 23.3345 78.2031 23.3182 78.7989Z" fill="black"/>
</g>
<path opacity="0.1" d="M10.1836 55.8689C11.2696 55.8689 12.15 54.8655 12.15 53.6278C12.15 52.3901 11.2696 51.3867 10.1836 51.3867C9.09766 51.3867 8.21729 52.3901 8.21729 53.6278C8.21729 54.8655 9.09766 55.8689 10.1836 55.8689Z" fill="#FF6366"/>
<path opacity="0.1" d="M18.3791 43.4822C19.4651 43.4822 20.3454 42.4788 20.3454 41.2411C20.3454 40.0034 19.4651 39 18.3791 39C17.2931 39 16.4127 40.0034 16.4127 41.2411C16.4127 42.4788 17.2931 43.4822 18.3791 43.4822Z" fill="#FF6366"/>
<path opacity="0.1" d="M17.7127 53.5066C19.5327 53.5066 21.0081 51.8251 21.0081 49.7508C21.0081 47.6764 19.5327 45.9949 17.7127 45.9949C15.8927 45.9949 14.4172 47.6764 14.4172 49.7508C14.4172 51.8251 15.8927 53.5066 17.7127 53.5066Z" fill="#FF6366"/>
<path d="M53.3637 66.923C57.5811 66.923 61 63.0264 61 58.2197C61 53.413 57.5811 49.5164 53.3637 49.5164C49.1462 49.5164 45.7273 53.413 45.7273 58.2197C45.7273 63.0264 49.1462 66.923 53.3637 66.923Z" fill="#FBBEBE"/>
<path d="M50.2619 41.1417C48.2246 41.436 46.0255 41.8245 44.5855 43.4927C43.7801 44.4252 43.3082 45.6685 42.9201 46.8994C42.3182 48.8162 41.8701 50.8366 42.011 52.8705C42.1364 54.6899 42.7273 56.5507 42.2492 58.2934C42.0292 59.0954 41.5973 59.7958 41.2619 60.5428C40.6401 61.9302 40.3473 63.4854 40.2401 65.0385C40.1655 66.1067 40.1801 67.206 40.4882 68.2183C40.8164 69.2959 41.4564 70.2128 41.8619 71.2551C42.4619 72.7948 42.5219 74.5272 42.5682 76.2108C42.6146 77.8945 42.6537 79.5668 42.6882 81.2442C42.7101 82.299 42.7119 83.4284 42.2001 84.308C44.0901 83.4449 46.0064 82.5642 47.6237 81.1551C49.241 79.746 50.5501 77.7142 50.7591 75.4058C50.9282 73.5346 50.3737 71.6903 49.8955 69.8896C48.7137 65.4343 47.9501 60.6848 48.8101 56.1352C49.1201 54.4972 49.8737 52.6684 51.3201 52.3669C52.2028 52.1835 53.0837 52.6425 53.8791 53.1171C55.7591 54.2381 57.6973 55.6887 58.3973 57.9712C59.0337 60.0351 58.4982 62.3343 57.6701 64.3049C56.8419 66.2756 55.7146 68.0878 55.071 70.1475C54.0828 73.3077 54.361 77.0076 56.0028 79.7916C57.6446 82.5756 60.6782 84.2883 63.5955 83.8387C63.3673 82.7155 62.6519 81.8079 62.2682 80.7407C61.571 78.8021 62.041 76.5724 62.791 74.6598C63.541 72.7471 64.5646 70.964 65.0337 68.9332C65.3646 67.5034 65.4046 66.0093 65.4028 64.5308C65.4028 62.2037 65.3019 59.8756 65.1055 57.5588C64.9091 55.2421 64.6091 52.8964 63.9619 50.6677C63.4419 48.8804 62.6846 47.1522 61.5519 45.7814C60.3464 44.3215 58.7773 43.3321 57.2364 42.3623C56.3146 41.7841 55.3728 41.1987 54.3382 40.9822C53.5201 40.8112 52.6601 40.5677 51.8255 40.5522C51.2582 40.5429 50.6619 40.6827 50.2619 41.1417Z" fill="#434175"/>
<path d="M64.6346 52.3748L59.7217 51.2884C59.5788 51.2568 59.4404 51.3633 59.4127 51.5262L57.0589 65.3532C57.0311 65.5161 57.1245 65.6738 57.2675 65.7054L62.1804 66.7917C62.3233 66.8233 62.4617 66.7169 62.4894 66.554L64.8432 52.727C64.871 52.5641 64.7776 52.4064 64.6346 52.3748Z" fill="#656478"/>
<path d="M65.0058 52.4571L60.0929 51.3707C59.95 51.3391 59.8116 51.4455 59.7839 51.6084L57.4301 65.4354C57.4023 65.5983 57.4957 65.756 57.6387 65.7876L62.5516 66.874C62.6945 66.9056 62.8329 66.7992 62.8606 66.6363L65.2144 52.8093C65.2422 52.6464 65.1488 52.4887 65.0058 52.4571Z" fill="#3F3D56"/>
<path d="M62.3824 55.1172C62.4785 54.5526 62.3906 54.0583 62.186 54.013C61.9815 53.9678 61.7378 54.3888 61.6417 54.9534C61.5456 55.5179 61.6335 56.0123 61.838 56.0575C62.0426 56.1027 62.2863 55.6817 62.3824 55.1172Z" fill="#FF6366"/>
<path d="M63.5455 59.8256C63.3055 59.3417 63.0491 58.8413 62.6446 58.5315C62.412 58.3689 62.1621 58.2411 61.901 58.1513C61.02 57.8 60.1246 57.4457 59.1928 57.3897C59.0409 57.3814 58.8673 57.3897 58.7682 57.5223C58.5646 57.7948 58.8873 58.1658 59.1664 58.3305L61.3864 59.6412L59.34 59.3946C59.0428 59.3583 58.6191 59.4505 58.6409 59.7904C58.6555 60.0131 58.87 60.1344 59.0555 60.2048C60.3691 60.7229 61.8873 61.129 62.6064 62.4843C61.6482 62.3806 60.6691 62.277 59.73 62.5174C59.4728 62.5837 59.2064 62.6863 59.0382 62.9173C58.87 63.1484 58.8509 63.539 59.0628 63.7224C59.1937 63.8333 59.37 63.8364 59.5337 63.826C60.2 63.7898 60.8837 63.6385 61.5237 63.855C62.1637 64.0716 62.7319 64.8362 62.511 65.5532C63.0782 65.6112 63.7491 65.5532 64.2737 65.2745C64.8519 64.9637 64.8382 64.3793 64.8028 63.6747C64.7273 62.2946 64.1264 61.0068 63.5455 59.8256Z" fill="#FBBEBE"/>
<path opacity="0.1" d="M62.9719 82.4118C62.4631 78.3344 61.7652 74.2907 60.881 70.2976C60.4264 68.2254 59.91 66.1179 60.0401 63.9856C61.9182 64.2581 63.601 64.4602 65.3319 63.5857C65.3601 64.7057 66.0728 65.6579 66.3319 66.7406C66.5055 67.4659 66.4401 68.2337 66.5083 68.9807C66.5764 69.7277 66.781 70.452 66.9564 71.1783C67.827 74.7774 68.0322 78.5434 67.5592 82.2377C65.9528 82.4553 64.5746 82.6946 62.9719 82.4118Z" fill="black"/>
<path d="M62.6992 82.4118C62.1904 78.3344 61.4925 74.2907 60.6083 70.2976C60.1537 68.2254 59.6373 66.1179 59.7673 63.9856C61.6455 64.2581 63.3283 64.4602 65.0592 63.5857C65.0873 64.7057 65.8001 65.6579 66.0592 66.7406C66.2328 67.4659 66.1673 68.2337 66.2355 68.9807C66.3037 69.7277 66.5083 70.452 66.6837 71.1783C67.5543 74.7774 67.7595 78.5434 67.2864 82.2377C65.6801 82.4553 64.3019 82.6946 62.6992 82.4118Z" fill="#FF6366"/>
<path d="M36.4209 102.593L37.3109 77.4292C37.325 77.0292 37.4753 76.6513 37.7299 76.3754C37.9845 76.0996 38.3233 75.9476 38.6745 75.9517L73.8127 76.3351C73.9989 76.3373 74.1827 76.3833 74.3525 76.4703C74.5224 76.5573 74.6746 76.6833 74.7996 76.8406C74.9247 76.9978 75.0199 77.1828 75.0792 77.3839C75.1386 77.5851 75.1608 77.798 75.1445 78.0094L73.2881 102.117C73.259 102.496 73.1077 102.849 72.8634 103.108C72.6192 103.368 72.2993 103.515 71.9654 103.522L37.7945 104.195C37.6106 104.199 37.4279 104.159 37.2577 104.08C37.0876 104 36.9335 103.881 36.8049 103.731C36.6763 103.581 36.5759 103.403 36.5098 103.207C36.4438 103.012 36.4135 102.803 36.4209 102.593Z" fill="#3F3D56"/>
<path d="M56.0455 89.4584C56.899 89.4584 57.5909 88.5306 57.5909 87.3862C57.5909 86.2417 56.899 85.314 56.0455 85.314C55.1919 85.314 54.5 86.2417 54.5 87.3862C54.5 88.5306 55.1919 89.4584 56.0455 89.4584Z" fill="#FF6366"/>
<path d="M89.091 85.9626L89.0183 86.6734L87.8365 98.1597C84.7556 100.608 82.3592 98.255 82.3383 98.1597L80.8492 86.6195L80.7646 85.9626H89.091Z" fill="#3F3D56"/>
<path opacity="0.1" d="M89.091 85.9626L89.0183 86.6734C85.5474 88.9736 81.8447 87.1832 80.8492 86.6195L80.7646 85.9626H89.091Z" fill="black"/>
<path d="M80.5909 85.3389V86.375C80.5909 86.375 85.1819 89.417 89.3182 86.375V85.3389H80.5909Z" fill="#FF6366"/>
<path d="M81.1246 83.9702C81.1246 83.9702 80.9909 84.6696 80.5909 84.7307V85.6125H89.3182V84.8219C89.3182 84.8219 88.7846 84.6696 88.8637 83.9702H81.1246Z" fill="#FF6366"/>
<path d="M84.9282 85.3388C87.1022 85.3388 88.8646 84.7599 88.8646 84.0458C88.8646 83.3316 87.1022 82.7527 84.9282 82.7527C82.7542 82.7527 80.9918 83.3316 80.9918 84.0458C80.9918 84.7599 82.7542 85.3388 84.9282 85.3388Z" fill="#FF6366"/>
<path opacity="0.1" d="M84.9282 85.3388C87.1022 85.3388 88.8646 84.7599 88.8646 84.0458C88.8646 83.3316 87.1022 82.7527 84.9282 82.7527C82.7542 82.7527 80.9918 83.3316 80.9918 84.0458C80.9918 84.7599 82.7542 85.3388 84.9282 85.3388Z" fill="black"/>
<path opacity="0.1" d="M88.3836 83.9702C88.3836 84.4883 86.8909 84.9131 85.0481 84.9131H84.95C83.7127 84.9027 82.6436 84.7059 82.0982 84.4116C81.8518 84.279 81.7118 84.1288 81.7118 83.9702C81.7118 83.7071 82.0936 83.4688 82.7118 83.2978C83.4799 83.1064 84.2647 83.0156 85.0509 83.0274C86.8909 83.0274 88.3836 83.4491 88.3836 83.9702Z" fill="black"/>
<path opacity="0.1" d="M84.95 84.9129C83.7127 84.9025 82.6436 84.7057 82.0981 84.4114L82.709 83.2935L84.95 84.9129Z" fill="black"/>
<path opacity="0.1" d="M81.4637 84.0428C81.4164 84.0314 81.3537 84.05 81.3446 84.1039C81.3434 84.1313 81.3498 84.1585 81.3628 84.1816C81.467 84.3694 81.6184 84.5171 81.7974 84.6054C81.8279 84.625 81.8616 84.6373 81.8965 84.6416C81.9146 84.6441 81.933 84.6403 81.9492 84.6307C81.9654 84.6211 81.9787 84.6061 81.9874 84.5877C81.9924 84.5721 81.9944 84.5554 81.9933 84.5388C81.9922 84.5222 81.988 84.506 81.981 84.4914C81.9532 84.4354 81.9147 84.3872 81.8683 84.3505C81.7464 84.2417 81.6219 84.0728 81.4637 84.0428Z" fill="black"/>
<path d="M85.0608 95.1177C86.3577 95.1177 87.409 93.9195 87.409 92.4414C87.409 90.9633 86.3577 89.7651 85.0608 89.7651C83.764 89.7651 82.7126 90.9633 82.7126 92.4414C82.7126 93.9195 83.764 95.1177 85.0608 95.1177Z" fill="#FF6366"/>
<path d="M21.121 92.4475H22.2219C22.8247 92.4475 23.4027 92.7204 23.829 93.2062C24.2552 93.6919 24.4946 94.3508 24.4946 95.0378V98.8869H18.8483V95.0378C18.8483 94.3508 19.0877 93.6919 19.5139 93.2062C19.9402 92.7204 20.5182 92.4475 21.121 92.4475V92.4475Z" fill="#3F3D56"/>
<path opacity="0.1" d="M21.121 92.4475H22.2219C22.8247 92.4475 23.4027 92.7204 23.829 93.2062C24.2552 93.6919 24.4946 94.3508 24.4946 95.0378V98.8869H18.8483V95.0378C18.8483 94.3508 19.0877 93.6919 19.5139 93.2062C19.9402 92.7204 20.5182 92.4475 21.121 92.4475V92.4475Z" fill="black"/>
<path d="M21.4455 93.8639C21.695 93.8639 21.8973 93.6333 21.8973 93.3489C21.8973 93.0645 21.695 92.834 21.4455 92.834C21.1959 92.834 20.9937 93.0645 20.9937 93.3489C20.9937 93.6333 21.1959 93.8639 21.4455 93.8639Z" fill="#3F3D56"/>
<path d="M21.4455 93.2206C21.695 93.2206 21.8973 92.99 21.8973 92.7056C21.8973 92.4212 21.695 92.1907 21.4455 92.1907C21.1959 92.1907 20.9937 92.4212 20.9937 92.7056C20.9937 92.99 21.1959 93.2206 21.4455 93.2206Z" fill="#3F3D56"/>
<path d="M21.4455 92.576C21.695 92.576 21.8973 92.3455 21.8973 92.0611C21.8973 91.7767 21.695 91.5461 21.4455 91.5461C21.1959 91.5461 20.9937 91.7767 20.9937 92.0611C20.9937 92.3455 21.1959 92.576 21.4455 92.576Z" fill="#3F3D56"/>
<path d="M21.4455 91.9327C21.695 91.9327 21.8973 91.7022 21.8973 91.4178C21.8973 91.1334 21.695 90.9028 21.4455 90.9028C21.1959 90.9028 20.9937 91.1334 20.9937 91.4178C20.9937 91.7022 21.1959 91.9327 21.4455 91.9327Z" fill="#3F3D56"/>
<path d="M21.4455 91.2892C21.695 91.2892 21.8973 91.0586 21.8973 90.7742C21.8973 90.4898 21.695 90.2593 21.4455 90.2593C21.1959 90.2593 20.9937 90.4898 20.9937 90.7742C20.9937 91.0586 21.1959 91.2892 21.4455 91.2892Z" fill="#3F3D56"/>
<path d="M21.4455 90.6459C21.695 90.6459 21.8973 90.4153 21.8973 90.1309C21.8973 89.8465 21.695 89.616 21.4455 89.616C21.1959 89.616 20.9937 89.8465 20.9937 90.1309C20.9937 90.4153 21.1959 90.6459 21.4455 90.6459Z" fill="#3F3D56"/>
<path d="M21.4455 90.0023C21.695 90.0023 21.8973 89.7717 21.8973 89.4873C21.8973 89.203 21.695 88.9724 21.4455 88.9724C21.1959 88.9724 20.9937 89.203 20.9937 89.4873C20.9937 89.7717 21.1959 90.0023 21.4455 90.0023Z" fill="#3F3D56"/>
<path d="M22.1237 90.2594C22.3732 90.2594 22.5755 90.0288 22.5755 89.7444C22.5755 89.46 22.3732 89.2295 22.1237 89.2295C21.8742 89.2295 21.6719 89.46 21.6719 89.7444C21.6719 90.0288 21.8742 90.2594 22.1237 90.2594Z" fill="#3F3D56"/>
<path d="M22.5755 90.0023C22.825 90.0023 23.0273 89.7717 23.0273 89.4873C23.0273 89.203 22.825 88.9724 22.5755 88.9724C22.3259 88.9724 22.1237 89.203 22.1237 89.4873C22.1237 89.7717 22.3259 90.0023 22.5755 90.0023Z" fill="#3F3D56"/>
<path d="M23.0273 89.7442C23.2768 89.7442 23.4791 89.5137 23.4791 89.2293C23.4791 88.9449 23.2768 88.7144 23.0273 88.7144C22.7777 88.7144 22.5754 88.9449 22.5754 89.2293C22.5754 89.5137 22.7777 89.7442 23.0273 89.7442Z" fill="#3F3D56"/>
<path d="M21.4455 89.359C21.695 89.359 21.8973 89.1285 21.8973 88.8441C21.8973 88.5597 21.695 88.3291 21.4455 88.3291C21.1959 88.3291 20.9937 88.5597 20.9937 88.8441C20.9937 89.1285 21.1959 89.359 21.4455 89.359Z" fill="#3F3D56"/>
<path d="M21.4455 88.7154C21.695 88.7154 21.8973 88.4849 21.8973 88.2005C21.8973 87.9161 21.695 87.6855 21.4455 87.6855C21.1959 87.6855 20.9937 87.9161 20.9937 88.2005C20.9937 88.4849 21.1959 88.7154 21.4455 88.7154Z" fill="#3F3D56"/>
<path d="M21.4455 88.0712C21.695 88.0712 21.8973 87.8406 21.8973 87.5562C21.8973 87.2718 21.695 87.0413 21.4455 87.0413C21.1959 87.0413 20.9937 87.2718 20.9937 87.5562C20.9937 87.8406 21.1959 88.0712 21.4455 88.0712Z" fill="#3F3D56"/>
<path d="M21.4455 87.4276C21.695 87.4276 21.8973 87.197 21.8973 86.9126C21.8973 86.6283 21.695 86.3977 21.4455 86.3977C21.1959 86.3977 20.9937 86.6283 20.9937 86.9126C20.9937 87.197 21.1959 87.4276 21.4455 87.4276Z" fill="#3F3D56"/>
<path d="M23.3182 85.2528C23.2063 85.2714 23.0936 85.2849 22.9809 85.2932C23.0861 85.1884 23.1837 85.074 23.2727 84.9513C23.2098 84.735 23.1178 84.5313 23 84.3472C22.888 84.4189 22.7642 84.4634 22.6363 84.4778C22.5245 84.4964 22.4118 84.5099 22.2991 84.5192C22.4472 84.3814 22.5854 84.1742 22.7309 84.0012C22.3947 83.6538 21.9614 83.4535 21.5079 83.4361C21.0543 83.4186 20.6101 83.585 20.2541 83.9057C19.8981 84.2264 19.6535 84.6806 19.5637 85.1875C19.4739 85.6945 19.5447 86.2213 19.7637 86.6743C19.9826 87.1272 20.3354 87.477 20.7594 87.6615C21.1833 87.8459 21.6509 87.853 22.079 87.6814C22.507 87.5099 22.8679 87.1709 23.0973 86.7247C23.3267 86.2785 23.4098 85.754 23.3318 85.2445L23.3182 85.2528Z" fill="#FF6366"/>
<path d="M24.8281 87.8111C24.7129 87.8918 24.5828 87.941 24.4481 87.9551C24.3363 87.9738 24.2236 87.9883 24.1109 87.9966C24.2307 87.8741 24.3425 87.7418 24.4454 87.6008C24.173 87.5198 23.8839 87.5576 23.6346 87.7067C23.3853 87.8558 23.1938 88.1054 23.0975 88.4069C23.0011 88.7084 23.0069 89.04 23.1137 89.3369C23.2204 89.6337 23.4205 89.8746 23.6748 90.0122C23.9291 90.1499 24.2193 90.1746 24.4887 90.0813C24.758 89.9881 24.9872 89.7837 25.1314 89.5082C25.2756 89.2326 25.3244 88.9056 25.2683 88.5912C25.2122 88.2768 25.0553 87.9975 24.8281 87.808V87.8111Z" fill="#FF6366"/>
<path d="M20.7682 90.2594C21.0178 90.2594 21.22 90.0288 21.22 89.7444C21.22 89.46 21.0178 89.2295 20.7682 89.2295C20.5187 89.2295 20.3164 89.46 20.3164 89.7444C20.3164 90.0288 20.5187 90.2594 20.7682 90.2594Z" fill="#3F3D56"/>
<path d="M20.3163 90.0023C20.5659 90.0023 20.7681 89.7717 20.7681 89.4873C20.7681 89.203 20.5659 88.9724 20.3163 88.9724C20.0668 88.9724 19.8645 89.203 19.8645 89.4873C19.8645 89.7717 20.0668 90.0023 20.3163 90.0023Z" fill="#3F3D56"/>
<path d="M19.8645 89.7442C20.1141 89.7442 20.3164 89.5137 20.3164 89.2293C20.3164 88.9449 20.1141 88.7144 19.8645 88.7144C19.615 88.7144 19.4127 88.9449 19.4127 89.2293C19.4127 89.5137 19.615 89.7442 19.8645 89.7442Z" fill="#3F3D56"/>
<path d="M18.0637 87.8111C18.1789 87.8919 18.309 87.9412 18.4437 87.9551C18.5555 87.9738 18.6682 87.9883 18.781 87.9966C18.6609 87.8744 18.5491 87.7421 18.4464 87.6008C18.7188 87.5198 19.0079 87.5576 19.2572 87.7067C19.5065 87.8558 19.698 88.1054 19.7944 88.4069C19.8907 88.7084 19.8849 89.04 19.7782 89.3369C19.6714 89.6337 19.4713 89.8746 19.217 90.0122C18.9627 90.1499 18.6725 90.1746 18.4032 90.0813C18.1338 89.9881 17.9046 89.7837 17.7604 89.5082C17.6162 89.2326 17.5674 88.9056 17.6235 88.5912C17.6796 88.2768 17.8365 87.9975 18.0637 87.808V87.8111Z" fill="#FF6366"/>
<path d="M21.121 92.834H22.2219C22.8247 92.834 23.4027 93.1069 23.829 93.5927C24.2552 94.0784 24.4946 94.7373 24.4946 95.4243V98.8299C24.4946 98.9464 24.454 99.0582 24.3817 99.1406C24.3094 99.223 24.2114 99.2692 24.1092 99.2692H19.2337C19.1315 99.2692 19.0335 99.223 18.9612 99.1406C18.8889 99.0582 18.8483 98.9464 18.8483 98.8299V95.4243C18.8483 94.7373 19.0877 94.0784 19.5139 93.5927C19.9402 93.1069 20.5182 92.834 21.121 92.834V92.834Z" fill="#3F3D56"/>
<g opacity="0.1">
<path opacity="0.1" d="M23.3527 85.3938C23.307 85.4495 23.2584 85.5021 23.2073 85.5513C23.2591 85.5513 23.31 85.542 23.3618 85.5358C23.3636 85.4881 23.3573 85.4404 23.3527 85.3938Z" fill="black"/>
<path opacity="0.1" d="M22.5291 84.7783C22.6427 84.77 22.7545 84.7566 22.8672 84.7379C22.9684 84.7233 23.0672 84.6926 23.1609 84.6467C23.1151 84.543 23.0622 84.4436 23.0027 84.3494C22.9461 84.3886 22.8849 84.4183 22.8209 84.4374C22.7317 84.5597 22.6341 84.6737 22.5291 84.7783Z" fill="black"/>
<path opacity="0.1" d="M19.7518 85.8838C19.7512 85.491 19.8435 85.1053 20.019 84.7672C20.1945 84.4291 20.4468 84.1513 20.7492 83.9629C21.0517 83.7746 21.3931 83.6826 21.7376 83.6969C22.082 83.7111 22.4167 83.8309 22.7064 84.0437L22.7355 84.0085C22.5464 83.8168 22.3259 83.6696 22.0867 83.5754C21.8475 83.4812 21.5943 83.4419 21.3417 83.4598C21.0891 83.4776 20.8421 83.5522 20.615 83.6794C20.3878 83.8065 20.1849 83.9836 20.0181 84.2005C19.8513 84.4174 19.7237 84.6697 19.6428 84.943C19.562 85.2163 19.5293 85.5052 19.5468 85.7929C19.5643 86.0807 19.6316 86.3616 19.7448 86.6196C19.858 86.8776 20.0149 87.1075 20.2064 87.296C19.9124 86.9019 19.7512 86.4012 19.7518 85.8838V85.8838Z" fill="black"/>
</g>
<g opacity="0.1">
<path opacity="0.1" d="M24.1108 88.2534C24.2236 88.2451 24.3363 88.2316 24.4481 88.213C24.5829 88.1985 24.7129 88.1489 24.8281 88.0679C24.9557 88.1751 25.0622 88.3116 25.1405 88.4687C25.2188 88.6258 25.2672 88.7999 25.2827 88.9797C25.2871 88.9346 25.2892 88.8893 25.289 88.8439C25.2899 88.6427 25.2492 88.4441 25.1702 88.2641C25.0913 88.0841 24.9762 87.9278 24.8345 87.8079C24.7192 87.8885 24.5892 87.9378 24.4545 87.9519L24.3636 87.9653C24.286 88.0687 24.2015 88.165 24.1108 88.2534V88.2534Z" fill="black"/>
<path opacity="0.1" d="M24.1563 87.8141C24.194 87.8146 24.2317 87.8177 24.269 87.8234C24.3281 87.7519 24.3863 87.6752 24.4454 87.6006C24.2783 87.5498 24.1031 87.5434 23.9335 87.5821C23.7638 87.6207 23.6043 87.7033 23.4672 87.8236C23.3301 87.9438 23.2191 88.0983 23.1428 88.2753C23.0665 88.4522 23.0269 88.6468 23.0272 88.844C23.0272 88.8875 23.0272 88.93 23.0327 88.9725C23.0606 88.655 23.1911 88.3606 23.3987 88.1466C23.6063 87.9325 23.8763 87.814 24.1563 87.8141V87.8141Z" fill="black"/>
</g>
<g opacity="0.1">
<path opacity="0.1" d="M18.7808 88.2534C18.6681 88.2451 18.5554 88.2316 18.4436 88.213C18.3088 88.1987 18.1787 88.149 18.0636 88.0679C17.9359 88.1751 17.8295 88.3116 17.7512 88.4687C17.6729 88.6258 17.6245 88.7999 17.609 88.9797C17.6046 88.9346 17.6025 88.8893 17.6027 88.8439C17.6018 88.6427 17.6425 88.4441 17.7215 88.2641C17.8004 88.0841 17.9155 87.9278 18.0572 87.8079C18.1724 87.8886 18.3025 87.9379 18.4372 87.9519L18.5281 87.9653C18.6052 88.0692 18.6897 88.1655 18.7808 88.2534Z" fill="black"/>
<path opacity="0.1" d="M18.7354 87.8141C18.6974 87.8146 18.6594 87.8177 18.6217 87.8234C18.5636 87.7519 18.5054 87.6752 18.4463 87.6006C18.6134 87.5498 18.7886 87.5434 18.9582 87.5821C19.1278 87.6207 19.2874 87.7033 19.4245 87.8236C19.5616 87.9438 19.6726 88.0983 19.7489 88.2753C19.8252 88.4522 19.8647 88.6468 19.8645 88.844C19.8645 88.8875 19.8645 88.93 19.859 88.9725C19.8311 88.655 19.7006 88.3606 19.493 88.1466C19.2854 87.9325 19.0153 87.814 18.7354 87.8141V87.8141Z" fill="black"/>
</g>
</g>
<defs>
<clipPath id="clip0">
<rect width="104" height="66" fill="white" transform="translate(4 39)"/>
</clipPath>
</defs>
</svg>
