<svg width="1440" height="1024" viewBox="0 0 1440 1024" fill="none" xmlns="http://www.w3.org/2000/svg">
<g clip-path="url(#clip0)">
<rect width="1440" height="1024" fill="white"/>
<rect width="1440" height="1024" fill="#FFC446" fill-opacity="0.49"/>
<rect width="1460" height="512" fill="#3FACE4" fill-opacity="0.5"/>
<g filter="url(#filter0_d)">
<rect x="272" y="232" width="904" height="560" fill="#F8F9FD"/>
</g>
<g filter="url(#filter1_dd)">
<path d="M801.594 461.797L731.111 481.21L871.704 569.364L936.611 548.126L801.594 461.797Z" fill="#3FACE4" stroke="#7F7A7A"/>
<path d="M811.977 474.434L759.559 490.419L812.003 524.835L864.613 507.577L811.977 474.434Z" fill="#0F0F0F"/>
<path d="M822.516 482.156L773.516 496.806L805.094 516.328L852.089 501.395L822.516 482.156Z" fill="#CAE621"/>
<path d="M870.139 568.105L732.792 481.707L730.023 482.616L731.054 483.54L767.004 507.056L817.96 539.702C830.102 547.131 856.51 563.429 865.002 569.199C873.494 574.969 872.877 588.148 871.508 594.016L871.087 596.815L872.92 596.294L876.663 594.744L878.155 584.823C879.072 578.718 873.193 571.134 870.139 568.105Z" fill="black"/>
<path d="M746.631 413L690.986 429.05L689 430.588L694.442 431.356C697.598 432.408 704.603 434.972 707.368 436.816C710.823 439.122 717.581 444.752 726.038 452.699C732.804 459.057 742.663 478.944 746.748 488.093L800.923 472.095L799.568 467.488L796.878 460.094L791.915 450.302C789.217 446.198 782.367 436.382 776.549 429.95C770.73 423.517 754.18 415.97 746.631 413Z" fill="#FFF3F3"/>
<path d="M741.963 459.621L801.568 495.046L793.542 525.088L730.117 491.722L741.963 459.621Z" fill="#4D1BB8"/>
<path d="M722.251 489.573C722.648 486.928 727.573 484.003 729.985 482.871L731.704 483.113C775.195 510.291 863.315 565.637 867.866 569.604C873.555 574.563 874.871 583.322 875.348 585.987C875.824 588.652 872.634 596.255 871.259 597.62C870.159 598.711 864.499 597.186 861.808 596.287C817.907 577.018 728.514 537.789 722.145 535.02C715.775 532.251 715.012 524.748 715.427 521.343C717.536 511.855 721.853 492.219 722.251 489.573Z" fill="#3FACE4"/>
<path d="M875.31 574.551C874.108 572.823 872.657 570.8 871.477 569.691L937.614 548.066C938.333 548.71 940.417 550.599 942.997 553.011C945.577 555.424 945.124 563.812 944.576 567.705L899.105 586.593L876.883 594.516C877.002 593.213 877.196 588.302 877.427 585.761C877.717 582.583 876.384 576.095 875.31 574.551Z" fill="black"/>
<path d="M764.484 524.148L767.173 525.575C768.287 526.165 769.015 526.824 769.359 527.552C769.71 528.283 769.649 529.014 769.175 529.744C768.876 530.204 768.464 530.525 767.936 530.709C767.416 530.896 766.834 530.946 766.191 530.86C765.559 530.77 764.929 530.558 764.3 530.224L763.845 529.983L762.297 532.365L759.955 531.123L764.484 524.148ZM765.226 528.821C765.609 529.024 765.954 529.107 766.26 529.07C766.566 529.032 766.811 528.872 766.996 528.588C767.18 528.304 767.213 528.036 767.096 527.783C766.985 527.533 766.735 527.305 766.345 527.098L765.878 526.851L764.772 528.553C764.908 528.644 765.06 528.733 765.226 528.821ZM769.157 536.113C768.521 535.775 768.135 535.344 768 534.818C767.87 534.285 768 533.718 768.391 533.117L769.674 531.14L768.98 530.772L769.796 529.515L770.653 529.969L772.906 528.588L774.001 529.169L772.757 531.085L774.015 531.752L773.199 533.009L771.941 532.342L770.821 534.065C770.712 534.235 770.684 534.397 770.738 534.553C770.793 534.709 770.925 534.842 771.135 534.954C771.33 535.057 771.533 535.111 771.745 535.114L770.91 536.579C770.663 536.585 770.374 536.544 770.04 536.458C769.719 536.37 769.424 536.255 769.157 536.113ZM774.799 532.264L777.087 533.477L776.416 534.512C776.841 534.201 777.256 534.026 777.661 533.986C778.077 533.943 778.477 534.024 778.86 534.227L778.102 536.046C777.415 535.682 776.863 535.484 776.445 535.454C776.039 535.42 775.74 535.552 775.547 535.85L773.835 538.485L771.548 537.272L774.799 532.264ZM779.186 541.433C778.579 541.11 778.109 540.711 777.777 540.235C777.452 539.763 777.283 539.26 777.27 538.726C777.269 538.189 777.434 537.664 777.768 537.15C778.101 536.637 778.529 536.255 779.051 536.005C779.578 535.748 780.146 535.636 780.756 535.669C781.374 535.706 781.986 535.886 782.594 536.207C783.208 536.533 783.678 536.932 784.003 537.405C784.34 537.874 784.511 538.374 784.517 538.904C784.523 539.434 784.358 539.956 784.025 540.47C783.687 540.99 783.255 541.378 782.729 541.635C782.214 541.889 781.645 542.001 781.024 541.971C780.413 541.938 779.801 541.759 779.186 541.433ZM780.195 539.924C780.491 540.081 780.799 540.108 781.119 540.005C781.451 539.899 781.722 539.684 781.932 539.359C782.143 539.035 782.216 538.72 782.153 538.413C782.101 538.104 781.927 537.871 781.63 537.714C781.334 537.556 781.02 537.531 780.689 537.637C780.369 537.74 780.104 537.954 779.894 538.278C779.683 538.602 779.604 538.919 779.655 539.228C779.719 539.534 779.899 539.766 780.195 539.924ZM786.437 538.437L788.617 539.593L787.946 540.627C788.874 540.066 789.793 540.027 790.704 540.51C791.398 540.878 791.789 541.399 791.877 542.072C791.976 542.743 791.76 543.487 791.229 544.305L789.584 546.839L787.306 545.631L789.09 542.884C789.279 542.593 789.355 542.333 789.318 542.105C789.289 541.881 789.155 541.705 788.917 541.578C788.744 541.486 788.538 541.451 788.302 541.471C788.07 541.484 787.836 541.559 787.6 541.698C787.372 541.84 787.176 542.036 787.014 542.287L785.473 544.658L783.186 543.445L786.437 538.437ZM792.486 548.487C791.879 548.165 791.524 547.732 791.421 547.186C791.318 546.641 791.471 546.055 791.879 545.426L793.906 542.304L796.205 543.523L794.237 546.554C794.136 546.71 794.1 546.854 794.13 546.988C794.172 547.119 794.264 547.223 794.409 547.3C794.554 547.376 794.728 547.414 794.933 547.414L794.137 548.886C793.904 548.917 793.637 548.893 793.337 548.816C793.044 548.743 792.761 548.633 792.486 548.487ZM795.55 542.153C795.21 541.973 794.984 541.722 794.873 541.399C794.773 541.073 794.818 540.766 795.006 540.475C795.195 540.184 795.476 540.006 795.849 539.941C796.222 539.875 796.567 539.926 796.886 540.095C797.218 540.271 797.438 540.525 797.545 540.854C797.659 541.187 797.626 541.492 797.446 541.769C797.253 542.067 796.97 542.248 796.597 542.313C796.224 542.379 795.875 542.326 795.55 542.153ZM797.217 550.997C796.638 550.69 796.195 550.309 795.887 549.855C795.591 549.399 795.446 548.904 795.452 548.371C795.465 547.842 795.636 547.324 795.966 546.817C796.281 546.33 796.699 545.957 797.218 545.696C797.737 545.435 798.295 545.309 798.893 545.317C799.49 545.325 800.063 545.474 800.613 545.766C801.314 546.138 801.78 546.566 802.009 547.051L800.927 548.29C800.59 547.957 800.288 547.719 800.02 547.577C799.673 547.393 799.337 547.342 799.011 547.424C798.691 547.499 798.427 547.695 798.221 548.013C798.015 548.331 797.951 548.638 798.031 548.934C798.111 549.231 798.316 549.468 798.649 549.644C798.938 549.798 799.315 549.92 799.78 550.013L799.065 551.541C798.745 551.525 798.442 551.474 798.158 551.387C797.87 551.307 797.556 551.177 797.217 550.997ZM801.529 553.284C800.77 552.881 800.173 552.424 799.738 551.911L800.77 550.837C801.177 551.289 801.626 551.646 802.118 551.906C802.479 552.098 802.721 552.099 802.844 551.91C802.905 551.815 802.901 551.709 802.833 551.591C802.771 551.476 802.611 551.318 802.352 551.118C801.822 550.691 801.507 550.279 801.407 549.88C801.313 549.485 801.42 549.051 801.727 548.578C802.103 548.06 802.596 547.772 803.207 547.714C803.818 547.657 804.492 547.823 805.229 548.215C805.605 548.414 805.911 548.608 806.148 548.798C806.396 548.984 806.6 549.187 806.758 549.407L805.747 550.493C805.586 550.307 805.392 550.127 805.165 549.952C804.945 549.781 804.753 549.652 804.586 549.564C804.341 549.433 804.155 549.366 804.031 549.364C803.906 549.362 803.817 549.401 803.765 549.482C803.668 549.63 803.781 549.831 804.103 550.084C804.69 550.541 805.059 550.991 805.209 551.434C805.359 551.876 805.283 552.331 804.98 552.797C804.633 553.331 804.156 553.647 803.549 553.742C802.954 553.836 802.281 553.683 801.529 553.284Z" fill="white"/>
<g filter="url(#filter2_dd)">
<path d="M836.827 527.035L825.961 531.217L832.624 535.535L842.917 531.271L836.827 527.035Z" fill="#302A2A"/>
<path d="M836.827 527.035L825.961 531.217L832.624 535.535L842.917 531.271L836.827 527.035Z" stroke="black"/>
</g>
<g filter="url(#filter3_dd)">
<path d="M853.022 520.484L842.156 524.667L848.819 528.984L859.112 524.72L853.022 520.484Z" fill="#302A2A"/>
<path d="M853.022 520.484L842.156 524.667L848.819 528.984L859.112 524.72L853.022 520.484Z" stroke="black"/>
</g>
<g filter="url(#filter4_dd)">
<path d="M870.36 514.098L859.494 518.28L866.157 522.597L876.45 518.334L870.36 514.098Z" fill="#302A2A"/>
<path d="M870.36 514.098L859.494 518.28L866.157 522.597L876.45 518.334L870.36 514.098Z" stroke="black"/>
</g>
<g filter="url(#filter5_dd)">
<path d="M852.292 537.016L841.426 541.198L848.089 545.515L858.382 541.252L852.292 537.016Z" fill="#302A2A"/>
<path d="M852.292 537.016L841.426 541.198L848.089 545.515L858.382 541.252L852.292 537.016Z" stroke="black"/>
</g>
<g filter="url(#filter6_dd)">
<path d="M867.913 530.383L857.047 534.565L863.71 538.882L874.003 534.619L867.913 530.383Z" fill="#302A2A"/>
<path d="M867.913 530.383L857.047 534.565L863.71 538.882L874.003 534.619L867.913 530.383Z" stroke="black"/>
</g>
<g filter="url(#filter7_dd)">
<path d="M884.104 523.84L873.238 528.023L879.902 532.339L890.194 528.077L884.104 523.84Z" fill="#302A2A"/>
<path d="M884.104 523.84L873.238 528.023L879.902 532.339L890.194 528.077L884.104 523.84Z" stroke="black"/>
</g>
<g filter="url(#filter8_dd)">
<path d="M866.035 546.746L855.17 550.929L861.833 555.246L872.125 550.983L866.035 546.746Z" fill="#FF0707"/>
<path d="M866.035 546.746L855.17 550.929L861.833 555.246L872.125 550.983L866.035 546.746Z" stroke="black"/>
</g>
<g filter="url(#filter9_dd)">
<path d="M881.735 539.609L870.869 543.792L877.532 548.109L887.825 543.845L881.735 539.609Z" fill="#302A2A"/>
<path d="M881.735 539.609L870.869 543.792L877.532 548.109L887.825 543.845L881.735 539.609Z" stroke="black"/>
</g>
<g filter="url(#filter10_dd)">
<path d="M896.21 532.812L885.344 536.995L892.007 541.312L902.3 537.049L896.21 532.812Z" fill="#21F035"/>
<path d="M896.21 532.812L885.344 536.995L892.007 541.312L902.3 537.049L896.21 532.812Z" stroke="black"/>
</g>
<path d="M781.877 507.335C785.515 507.848 788.944 505.075 789.536 501.141C790.127 497.208 787.657 493.603 784.019 493.089C780.381 492.576 776.952 495.349 776.361 499.283C775.769 503.217 778.239 506.822 781.877 507.335Z" fill="#BA8E38"/>
<path d="M788.446 510.343C792.084 510.856 795.512 508.083 796.104 504.149C796.695 500.215 794.226 496.61 790.587 496.097C786.949 495.584 783.521 498.357 782.929 502.291C782.338 506.225 784.807 509.83 788.446 510.343Z" fill="#E9ED23"/>
</g>
<g clip-path="url(#clip1)">
<path d="M577.163 402.823L563.312 402.968L563.408 405.926L564.052 425.143L564.399 435.491L564.618 442.144L516.513 442.646L515.055 442.662C514.543 441.928 513.503 440.018 513.448 438.242L512.508 410.155L512.02 395.369C512.687 393.639 514.326 390.169 515.488 390.159C516.658 390.145 550.981 390.279 567.995 390.349C571.455 389.129 575.402 393.721 576.937 396.171L577.163 402.823Z" fill="#FFF5F5"/>
<g filter="url(#filter11_dd)">
<path d="M520.591 624.828L519.155 581.958L568.059 581.445L569.488 624.318L520.591 624.828Z" fill="#1A1717"/>
<path d="M520.591 624.828L519.155 581.958L568.059 581.445L569.488 624.318L520.591 624.828Z" stroke="black" stroke-opacity="0.2"/>
</g>
<g filter="url(#filter12_dd)">
<path d="M584.608 577.551C584.666 579.916 580.828 581.993 578.902 582.735L578.77 577.563L578.573 569.429L577.784 537.646L575.563 477.028L574.231 423.065L573.37 417.894C573.858 417.892 575.424 418.184 577.782 419.365C580.146 420.543 580.82 424.288 580.861 426.014L584.608 577.551Z" fill="#B52BAF" fill-opacity="0.6"/>
<path d="M584.608 577.551C584.666 579.916 580.828 581.993 578.902 582.735L578.77 577.563L578.573 569.429L577.784 537.646L575.563 477.028L574.231 423.065L573.37 417.894C573.858 417.892 575.424 418.184 577.782 419.365C580.146 420.543 580.82 424.288 580.861 426.014L584.608 577.551Z" stroke="#451A67" stroke-opacity="0.2"/>
</g>
<g filter="url(#filter13_dd)">
<path d="M496.68 426.078C496.597 423.714 500.414 421.605 502.332 420.845L502.506 426.019L502.776 434.15L503.838 465.934L506.592 526.537L508.387 580.5L509.287 585.667C508.8 585.672 507.24 585.391 504.867 584.233C502.493 583.075 501.79 579.335 501.732 577.61L496.68 426.078Z" fill="#B52BAF" fill-opacity="0.6"/>
<path d="M496.68 426.078C496.597 423.714 500.414 421.605 502.332 420.845L502.506 426.019L502.776 434.15L503.838 465.934L506.592 526.537L508.387 580.5L509.287 585.667C508.8 585.672 507.24 585.391 504.867 584.233C502.493 583.075 501.79 579.335 501.732 577.61L496.68 426.078Z" stroke="#451A67" stroke-opacity="0.2"/>
</g>
<g filter="url(#filter14_dd)">
<path d="M500.338 421.764C500.784 417.694 508.22 417.567 511.879 418.013L512.438 434.706C512.519 437.027 515.485 438.546 516.959 439.014L562.148 438.543C565.065 438.512 565.7 435.6 565.65 434.149L565.092 417.456L571.651 417.388C574.568 417.357 575.861 419.764 576.145 420.971L576.585 434.034L576.997 446.373L578.716 497.907L581.445 579.926C581.526 582.246 578.691 584.794 577.266 585.778L567.789 585.876L567.692 582.974L519.587 583.475L519.684 586.378L517.494 586.403C516.533 586.654 513.727 587.021 510.209 586.477C506.691 585.934 505.634 580.475 505.54 577.815L504.96 560.395C503.236 515.88 499.891 425.834 500.338 421.764Z" fill="#1E0B31"/>
<path d="M500.338 421.764C500.784 417.694 508.22 417.567 511.879 418.013L512.438 434.706C512.519 437.027 515.485 438.546 516.959 439.014L562.148 438.543C565.065 438.512 565.7 435.6 565.65 434.149L565.092 417.456L571.651 417.388C574.568 417.357 575.861 419.764 576.145 420.971L576.585 434.034L576.997 446.373L578.716 497.907L581.445 579.926C581.526 582.246 578.691 584.794 577.266 585.778L567.789 585.876L567.692 582.974L519.587 583.475L519.684 586.378L517.494 586.403C516.533 586.654 513.727 587.021 510.209 586.477C506.691 585.934 505.634 580.475 505.54 577.815L504.96 560.395C503.236 515.88 499.891 425.834 500.338 421.764Z" stroke="#451A67" stroke-opacity="0.2"/>
</g>
<g filter="url(#filter15_dd)">
<path d="M569.807 456.743L510.401 457.364C508.288 457.386 506.633 459.141 506.704 461.283L508.368 511.181C508.439 513.323 510.21 515.042 512.324 515.02L571.73 514.399C573.843 514.378 575.499 512.622 575.427 510.48L573.763 460.583C573.693 458.44 571.921 456.721 569.807 456.743Z" fill="#100F0F" fill-opacity="0.2"/>
</g>
<g filter="url(#filter16_dd)">
<path d="M569.401 462.66L511.233 463.269C510.388 463.278 509.726 463.98 509.754 464.836L511.129 506.084C511.158 506.941 511.866 507.628 512.712 507.62L570.879 507.011C571.725 507.002 572.386 506.301 572.358 505.444L570.982 464.197C570.954 463.34 570.245 462.652 569.401 462.66Z" fill="#1CC7D2"/>
</g>
<g filter="url(#filter17_dd)">
<path d="M525.003 524.646L513.486 524.766C512.641 524.775 511.978 525.476 512.007 526.334L512.15 530.622C512.179 531.48 512.888 532.167 513.733 532.158L525.25 532.038C526.095 532.029 526.757 531.327 526.729 530.47L526.585 526.181C526.557 525.324 525.848 524.636 525.003 524.646Z" fill="#C4C4C4" fill-opacity="0.2"/>
</g>
<g filter="url(#filter18_dd)">
<path d="M525.454 537.95L513.937 538.07C513.092 538.08 512.43 538.781 512.458 539.638L512.601 543.926C512.63 544.783 513.338 545.471 514.183 545.462L525.7 545.341C526.546 545.333 527.208 544.631 527.179 543.774L527.037 539.486C527.008 538.629 526.299 537.941 525.454 537.95Z" fill="#C4C4C4" fill-opacity="0.2"/>
</g>
<g filter="url(#filter19_dd)">
<path d="M525.893 551.25L514.377 551.372C513.531 551.38 512.869 552.082 512.898 552.938L513.041 557.227C513.069 558.084 513.778 558.772 514.623 558.763L526.14 558.643C526.985 558.634 527.648 557.932 527.619 557.075L527.476 552.786C527.448 551.93 526.739 551.242 525.893 551.25Z" fill="#C4C4C4" fill-opacity="0.2"/>
</g>
<g filter="url(#filter20_dd)">
<path d="M526.353 564.556L514.836 564.676C513.99 564.685 513.328 565.387 513.357 566.244L513.5 570.533C513.528 571.389 514.237 572.076 515.082 572.068L526.599 571.947C527.445 571.939 528.106 571.236 528.078 570.38L527.935 566.091C527.906 565.234 527.198 564.547 526.353 564.556Z" fill="#F30808"/>
</g>
<g filter="url(#filter21_dd)">
<path d="M548.196 564.329L536.679 564.449C535.834 564.459 535.172 565.16 535.2 566.017L535.344 570.306C535.372 571.162 536.08 571.85 536.926 571.842L548.443 571.721C549.288 571.712 549.95 571.01 549.922 570.154L549.779 565.865C549.75 565.008 549.042 564.32 548.196 564.329Z" fill="#C4C4C4" fill-opacity="0.2"/>
</g>
<g filter="url(#filter22_dd)">
<path d="M571.524 564.086L560.008 564.208C559.162 564.216 558.5 564.918 558.529 565.775L558.671 570.063C558.7 570.92 559.409 571.608 560.254 571.599L571.771 571.479C572.616 571.469 573.278 570.768 573.25 569.911L573.107 565.623C573.078 564.766 572.37 564.078 571.524 564.086Z" fill="#286214"/>
</g>
<g filter="url(#filter23_dd)">
<path d="M547.765 551.02L536.248 551.141C535.402 551.15 534.741 551.852 534.769 552.708L534.912 556.997C534.941 557.854 535.649 558.542 536.494 558.533L548.011 558.413C548.857 558.403 549.519 557.702 549.49 556.845L549.347 552.556C549.319 551.7 548.61 551.012 547.765 551.02Z" fill="#C4C4C4" fill-opacity="0.2"/>
</g>
<g filter="url(#filter24_dd)">
<path d="M571.093 550.782L559.576 550.902C558.731 550.912 558.068 551.613 558.097 552.47L558.24 556.758C558.268 557.615 558.977 558.303 559.822 558.294L571.339 558.173C572.185 558.165 572.847 557.463 572.818 556.606L572.675 552.318C572.646 551.461 571.938 550.773 571.093 550.782Z" fill="#C4C4C4" fill-opacity="0.2"/>
</g>
<g filter="url(#filter25_dd)">
<path d="M547.323 537.72L535.806 537.84C534.961 537.849 534.299 538.551 534.327 539.408L534.47 543.696C534.499 544.553 535.207 545.24 536.052 545.231L547.569 545.111C548.415 545.103 549.077 544.4 549.048 543.543L548.906 539.255C548.877 538.398 548.168 537.711 547.323 537.72Z" fill="#C4C4C4" fill-opacity="0.2"/>
</g>
<g filter="url(#filter26_dd)">
<path d="M570.639 537.473L559.123 537.594C558.277 537.602 557.615 538.305 557.644 539.161L557.787 543.45C557.815 544.307 558.524 544.995 559.369 544.986L570.886 544.865C571.731 544.856 572.394 544.155 572.365 543.298L572.222 539.009C572.194 538.153 571.485 537.465 570.639 537.473Z" fill="#C4C4C4" fill-opacity="0.2"/>
</g>
<g filter="url(#filter27_dd)">
<path d="M546.878 524.415L535.361 524.535C534.516 524.544 533.853 525.246 533.882 526.103L534.025 530.392C534.054 531.249 534.762 531.936 535.608 531.928L547.125 531.807C547.97 531.798 548.632 531.096 548.603 530.24L548.46 525.951C548.432 525.094 547.723 524.406 546.878 524.415Z" fill="#C4C4C4" fill-opacity="0.2"/>
</g>
<g filter="url(#filter28_dd)">
<path d="M570.205 524.173L558.687 524.294C557.842 524.302 557.18 525.004 557.209 525.861L557.351 530.149C557.38 531.006 558.088 531.694 558.934 531.685L570.451 531.565C571.296 531.555 571.958 530.854 571.929 529.997L571.787 525.709C571.759 524.852 571.05 524.164 570.205 524.173Z" fill="#C4C4C4" fill-opacity="0.2"/>
</g>
<path d="M528.96 619.248C530.972 619.227 532.549 617.555 532.481 615.514C532.413 613.473 530.726 611.836 528.713 611.856C526.7 611.878 525.123 613.549 525.192 615.59C525.26 617.632 526.946 619.269 528.96 619.248Z" fill="#C4C732"/>
<path d="M528.864 616.287C530.876 616.266 532.453 614.595 532.385 612.553C532.317 610.512 530.63 608.875 528.617 608.895C526.604 608.917 525.028 610.588 525.096 612.629C525.164 614.671 526.851 616.308 528.864 616.287Z" fill="#C78232"/>
<g filter="url(#filter29_dd)">
<path d="M517.655 487.304L517.872 491.394L516.507 491.438L515.961 480.988L519.761 480.872C520.896 480.834 521.791 481.1 522.461 481.663C523.133 482.228 523.493 482.991 523.55 483.95C523.599 484.966 523.329 485.756 522.728 486.328C522.131 486.892 521.25 487.194 520.082 487.231L517.655 487.304ZM517.598 486.177L520.041 486.102C520.765 486.081 521.313 485.891 521.686 485.533C522.057 485.171 522.22 484.664 522.184 484.01C522.153 483.386 521.932 482.896 521.527 482.533C521.122 482.171 520.576 481.996 519.903 482.001L517.379 482.081L517.598 486.177ZM526.829 481.456L526.926 483.337L528.357 483.292L528.411 484.319L526.98 484.363L527.238 489.176C527.253 489.488 527.326 489.722 527.461 489.876C527.596 490.026 527.818 490.094 528.13 490.083C528.279 490.08 528.487 490.043 528.75 489.977L528.802 491.056C528.465 491.16 528.133 491.219 527.804 491.23C527.22 491.248 526.77 491.081 526.447 490.734C526.131 490.385 525.961 489.878 525.923 489.219L525.672 484.403L524.274 484.447L524.22 483.421L525.618 483.376L525.521 481.495L526.829 481.456ZM533.665 484.32C533.468 484.291 533.248 484.283 533.018 484.29C532.161 484.315 531.595 484.705 531.325 485.457L531.615 490.969L530.306 491.008L529.895 483.244L531.17 483.205L531.24 484.101C531.637 483.392 532.224 483.028 533.014 483.003C533.268 482.996 533.464 483.023 533.601 483.086L533.665 484.32ZM534.526 486.916C534.484 486.157 534.598 485.467 534.855 484.852C535.126 484.232 535.51 483.752 536.021 483.404C536.532 483.057 537.125 482.874 537.799 482.854C538.844 482.821 539.706 483.161 540.385 483.873C541.073 484.585 541.448 485.547 541.512 486.763L541.513 486.858C541.553 487.614 541.444 488.298 541.186 488.91C540.934 489.517 540.557 489.994 540.04 490.345C539.524 490.699 538.923 490.885 538.233 490.907C537.196 490.937 536.334 490.598 535.647 489.887C534.967 489.174 534.594 488.216 534.534 487.009L534.526 486.916ZM535.854 487.033C535.9 487.893 536.133 488.578 536.547 489.09C536.976 489.597 537.52 489.841 538.178 489.822C538.844 489.801 539.36 489.521 539.726 488.982C540.09 488.439 540.246 487.692 540.193 486.741C540.151 485.889 539.917 485.204 539.486 484.691C539.061 484.173 538.515 483.925 537.857 483.944C537.208 483.965 536.699 484.242 536.33 484.776C535.962 485.309 535.801 486.063 535.854 487.033ZM544.188 482.8L544.285 483.773C544.832 483.009 545.579 482.611 546.525 482.581C548.145 482.531 549.009 483.432 549.118 485.284L549.386 490.416L548.078 490.455L547.807 485.317C547.772 484.758 547.628 484.346 547.361 484.087C547.102 483.826 546.706 483.706 546.187 483.72C545.76 483.734 545.392 483.861 545.083 484.101C544.774 484.341 544.538 484.65 544.375 485.03L544.666 490.563L543.358 490.602L542.953 482.836L544.188 482.8ZM552.79 490.309L551.482 490.348L551.071 482.585L552.379 482.545L552.79 490.309ZM550.854 480.53C550.848 480.312 550.899 480.13 551.022 479.975C551.145 479.824 551.334 479.744 551.59 479.736C551.844 479.729 552.041 479.797 552.182 479.941C552.322 480.085 552.395 480.266 552.408 480.481C552.421 480.695 552.362 480.877 552.236 481.025C552.111 481.173 551.921 481.251 551.667 481.259C551.411 481.267 551.215 481.2 551.076 481.06C550.94 480.922 550.868 480.744 550.854 480.53ZM557.923 489.207C558.392 489.192 558.789 489.037 559.122 488.74C559.462 488.439 559.633 488.077 559.647 487.645L560.888 487.606C560.889 488.052 560.757 488.481 560.499 488.891C560.242 489.301 559.89 489.632 559.43 489.888C558.985 490.139 558.497 490.276 557.978 490.291C556.934 490.324 556.086 489.997 555.428 489.314C554.776 488.625 554.42 487.667 554.352 486.444L554.343 486.221C554.303 485.465 554.406 484.788 554.647 484.192C554.895 483.593 555.258 483.125 555.754 482.783C556.252 482.442 556.847 482.262 557.546 482.24C558.409 482.212 559.133 482.452 559.727 482.956C560.329 483.458 560.671 484.125 560.753 484.956L559.512 484.995C559.445 484.495 559.237 484.088 558.88 483.778C558.522 483.466 558.104 483.313 557.603 483.331C556.937 483.352 556.437 483.61 556.094 484.109C555.751 484.606 555.609 485.311 555.656 486.23L555.669 486.482C555.715 487.377 555.938 488.058 556.326 488.531C556.714 489.003 557.249 489.227 557.923 489.207ZM566.85 487.808C566.83 487.449 566.682 487.175 566.398 486.99C566.127 486.794 565.647 486.639 564.975 486.516C564.31 486.391 563.773 486.236 563.371 486.047C562.97 485.86 562.674 485.627 562.468 485.357C562.271 485.084 562.158 484.759 562.142 484.374C562.106 483.738 562.343 483.192 562.847 482.736C563.358 482.279 564.026 482.039 564.856 482.011C565.72 481.987 566.437 482.191 567.001 482.628C567.566 483.067 567.874 483.637 567.909 484.346L566.593 484.386C566.571 484.024 566.4 483.716 566.077 483.463C565.762 483.209 565.375 483.088 564.914 483.101C564.437 483.117 564.064 483.235 563.812 483.452C563.552 483.672 563.428 483.952 563.447 484.291C563.466 484.611 563.6 484.85 563.861 485.005C564.122 485.159 564.578 485.301 565.237 485.43C565.903 485.557 566.442 485.718 566.863 485.91C567.282 486.101 567.59 486.343 567.802 486.628C568.013 486.909 568.129 487.259 568.157 487.673C568.186 488.37 567.948 488.932 567.42 489.372C566.89 489.807 566.193 490.036 565.321 490.062C564.705 490.082 564.154 489.989 563.67 489.784C563.185 489.579 562.802 489.283 562.513 488.9C562.228 488.509 562.071 488.087 562.048 487.627L563.357 487.587C563.406 488.03 563.596 488.38 563.936 488.633C564.281 488.881 564.724 488.995 565.259 488.98C565.76 488.962 566.151 488.85 566.441 488.64C566.728 488.426 566.869 488.147 566.85 487.808Z" fill="white"/>
</g>
</g>
</g>
<defs>
<filter id="filter0_d" x="262" y="222" width="944" height="600" filterUnits="userSpaceOnUse" color-interpolation-filters="sRGB">
<feFlood flood-opacity="0" result="BackgroundImageFix"/>
<feColorMatrix in="SourceAlpha" type="matrix" values="0 0 0 0 0 0 0 0 0 0 0 0 0 0 0 0 0 0 127 0"/>
<feOffset dx="10" dy="10"/>
<feGaussianBlur stdDeviation="10"/>
<feColorMatrix type="matrix" values="0 0 0 0 0 0 0 0 0 0 0 0 0 0 0 0 0 0 0.25 0"/>
<feBlend mode="normal" in2="BackgroundImageFix" result="effect1_dropShadow"/>
<feBlend mode="normal" in="SourceGraphic" in2="effect1_dropShadow" result="shape"/>
</filter>
<filter id="filter1_dd" x="685" y="413" width="290" height="214.998" filterUnits="userSpaceOnUse" color-interpolation-filters="sRGB">
<feFlood flood-opacity="0" result="BackgroundImageFix"/>
<feColorMatrix in="SourceAlpha" type="matrix" values="0 0 0 0 0 0 0 0 0 0 0 0 0 0 0 0 0 0 127 0"/>
<feOffset dy="4"/>
<feGaussianBlur stdDeviation="2"/>
<feColorMatrix type="matrix" values="0 0 0 0 0 0 0 0 0 0 0 0 0 0 0 0 0 0 0.25 0"/>
<feBlend mode="normal" in2="BackgroundImageFix" result="effect1_dropShadow"/>
<feColorMatrix in="SourceAlpha" type="matrix" values="0 0 0 0 0 0 0 0 0 0 0 0 0 0 0 0 0 0 127 0"/>
<feOffset dx="20" dy="20"/>
<feGaussianBlur stdDeviation="5"/>
<feColorMatrix type="matrix" values="0 0 0 0 0 0 0 0 0 0 0 0 0 0 0 0 0 0 0.25 0"/>
<feBlend mode="normal" in2="effect1_dropShadow" result="effect2_dropShadow"/>
<feBlend mode="normal" in="SourceGraphic" in2="effect2_dropShadow" result="shape"/>
</filter>
<filter id="filter2_dd" x="820.865" y="526.473" width="63.0881" height="49.6238" filterUnits="userSpaceOnUse" color-interpolation-filters="sRGB">
<feFlood flood-opacity="0" result="BackgroundImageFix"/>
<feColorMatrix in="SourceAlpha" type="matrix" values="0 0 0 0 0 0 0 0 0 0 0 0 0 0 0 0 0 0 127 0"/>
<feOffset dy="4"/>
<feGaussianBlur stdDeviation="2"/>
<feColorMatrix type="matrix" values="0 0 0 0 0 0 0 0 0 0 0 0 0 0 0 0 0 0 0.25 0"/>
<feBlend mode="normal" in2="BackgroundImageFix" result="effect1_dropShadow"/>
<feColorMatrix in="SourceAlpha" type="matrix" values="0 0 0 0 0 0 0 0 0 0 0 0 0 0 0 0 0 0 127 0"/>
<feOffset dx="20" dy="20"/>
<feGaussianBlur stdDeviation="10"/>
<feColorMatrix type="matrix" values="0 0 0 0 0 0 0 0 0 0 0 0 0 0 0 0 0 0 0.25 0"/>
<feBlend mode="normal" in2="effect1_dropShadow" result="effect2_dropShadow"/>
<feBlend mode="normal" in="SourceGraphic" in2="effect2_dropShadow" result="shape"/>
</filter>
<filter id="filter3_dd" x="837.061" y="519.922" width="63.0881" height="49.6238" filterUnits="userSpaceOnUse" color-interpolation-filters="sRGB">
<feFlood flood-opacity="0" result="BackgroundImageFix"/>
<feColorMatrix in="SourceAlpha" type="matrix" values="0 0 0 0 0 0 0 0 0 0 0 0 0 0 0 0 0 0 127 0"/>
<feOffset dy="4"/>
<feGaussianBlur stdDeviation="2"/>
<feColorMatrix type="matrix" values="0 0 0 0 0 0 0 0 0 0 0 0 0 0 0 0 0 0 0.25 0"/>
<feBlend mode="normal" in2="BackgroundImageFix" result="effect1_dropShadow"/>
<feColorMatrix in="SourceAlpha" type="matrix" values="0 0 0 0 0 0 0 0 0 0 0 0 0 0 0 0 0 0 127 0"/>
<feOffset dx="20" dy="20"/>
<feGaussianBlur stdDeviation="10"/>
<feColorMatrix type="matrix" values="0 0 0 0 0 0 0 0 0 0 0 0 0 0 0 0 0 0 0.25 0"/>
<feBlend mode="normal" in2="effect1_dropShadow" result="effect2_dropShadow"/>
<feBlend mode="normal" in="SourceGraphic" in2="effect2_dropShadow" result="shape"/>
</filter>
<filter id="filter4_dd" x="854.398" y="513.535" width="63.0881" height="49.6238" filterUnits="userSpaceOnUse" color-interpolation-filters="sRGB">
<feFlood flood-opacity="0" result="BackgroundImageFix"/>
<feColorMatrix in="SourceAlpha" type="matrix" values="0 0 0 0 0 0 0 0 0 0 0 0 0 0 0 0 0 0 127 0"/>
<feOffset dy="4"/>
<feGaussianBlur stdDeviation="2"/>
<feColorMatrix type="matrix" values="0 0 0 0 0 0 0 0 0 0 0 0 0 0 0 0 0 0 0.25 0"/>
<feBlend mode="normal" in2="BackgroundImageFix" result="effect1_dropShadow"/>
<feColorMatrix in="SourceAlpha" type="matrix" values="0 0 0 0 0 0 0 0 0 0 0 0 0 0 0 0 0 0 127 0"/>
<feOffset dx="20" dy="20"/>
<feGaussianBlur stdDeviation="10"/>
<feColorMatrix type="matrix" values="0 0 0 0 0 0 0 0 0 0 0 0 0 0 0 0 0 0 0.25 0"/>
<feBlend mode="normal" in2="effect1_dropShadow" result="effect2_dropShadow"/>
<feBlend mode="normal" in="SourceGraphic" in2="effect2_dropShadow" result="shape"/>
</filter>
<filter id="filter5_dd" x="836.33" y="536.453" width="63.0881" height="49.6238" filterUnits="userSpaceOnUse" color-interpolation-filters="sRGB">
<feFlood flood-opacity="0" result="BackgroundImageFix"/>
<feColorMatrix in="SourceAlpha" type="matrix" values="0 0 0 0 0 0 0 0 0 0 0 0 0 0 0 0 0 0 127 0"/>
<feOffset dy="4"/>
<feGaussianBlur stdDeviation="2"/>
<feColorMatrix type="matrix" values="0 0 0 0 0 0 0 0 0 0 0 0 0 0 0 0 0 0 0.25 0"/>
<feBlend mode="normal" in2="BackgroundImageFix" result="effect1_dropShadow"/>
<feColorMatrix in="SourceAlpha" type="matrix" values="0 0 0 0 0 0 0 0 0 0 0 0 0 0 0 0 0 0 127 0"/>
<feOffset dx="20" dy="20"/>
<feGaussianBlur stdDeviation="10"/>
<feColorMatrix type="matrix" values="0 0 0 0 0 0 0 0 0 0 0 0 0 0 0 0 0 0 0.25 0"/>
<feBlend mode="normal" in2="effect1_dropShadow" result="effect2_dropShadow"/>
<feBlend mode="normal" in="SourceGraphic" in2="effect2_dropShadow" result="shape"/>
</filter>
<filter id="filter6_dd" x="851.951" y="529.82" width="63.0881" height="49.6238" filterUnits="userSpaceOnUse" color-interpolation-filters="sRGB">
<feFlood flood-opacity="0" result="BackgroundImageFix"/>
<feColorMatrix in="SourceAlpha" type="matrix" values="0 0 0 0 0 0 0 0 0 0 0 0 0 0 0 0 0 0 127 0"/>
<feOffset dy="4"/>
<feGaussianBlur stdDeviation="2"/>
<feColorMatrix type="matrix" values="0 0 0 0 0 0 0 0 0 0 0 0 0 0 0 0 0 0 0.25 0"/>
<feBlend mode="normal" in2="BackgroundImageFix" result="effect1_dropShadow"/>
<feColorMatrix in="SourceAlpha" type="matrix" values="0 0 0 0 0 0 0 0 0 0 0 0 0 0 0 0 0 0 127 0"/>
<feOffset dx="20" dy="20"/>
<feGaussianBlur stdDeviation="10"/>
<feColorMatrix type="matrix" values="0 0 0 0 0 0 0 0 0 0 0 0 0 0 0 0 0 0 0.25 0"/>
<feBlend mode="normal" in2="effect1_dropShadow" result="effect2_dropShadow"/>
<feBlend mode="normal" in="SourceGraphic" in2="effect2_dropShadow" result="shape"/>
</filter>
<filter id="filter7_dd" x="868.143" y="523.277" width="63.0881" height="49.6238" filterUnits="userSpaceOnUse" color-interpolation-filters="sRGB">
<feFlood flood-opacity="0" result="BackgroundImageFix"/>
<feColorMatrix in="SourceAlpha" type="matrix" values="0 0 0 0 0 0 0 0 0 0 0 0 0 0 0 0 0 0 127 0"/>
<feOffset dy="4"/>
<feGaussianBlur stdDeviation="2"/>
<feColorMatrix type="matrix" values="0 0 0 0 0 0 0 0 0 0 0 0 0 0 0 0 0 0 0.25 0"/>
<feBlend mode="normal" in2="BackgroundImageFix" result="effect1_dropShadow"/>
<feColorMatrix in="SourceAlpha" type="matrix" values="0 0 0 0 0 0 0 0 0 0 0 0 0 0 0 0 0 0 127 0"/>
<feOffset dx="20" dy="20"/>
<feGaussianBlur stdDeviation="10"/>
<feColorMatrix type="matrix" values="0 0 0 0 0 0 0 0 0 0 0 0 0 0 0 0 0 0 0.25 0"/>
<feBlend mode="normal" in2="effect1_dropShadow" result="effect2_dropShadow"/>
<feBlend mode="normal" in="SourceGraphic" in2="effect2_dropShadow" result="shape"/>
</filter>
<filter id="filter8_dd" x="850.074" y="546.184" width="63.0875" height="49.6238" filterUnits="userSpaceOnUse" color-interpolation-filters="sRGB">
<feFlood flood-opacity="0" result="BackgroundImageFix"/>
<feColorMatrix in="SourceAlpha" type="matrix" values="0 0 0 0 0 0 0 0 0 0 0 0 0 0 0 0 0 0 127 0"/>
<feOffset dy="4"/>
<feGaussianBlur stdDeviation="2"/>
<feColorMatrix type="matrix" values="0 0 0 0 0 0 0 0 0 0 0 0 0 0 0 0 0 0 0.25 0"/>
<feBlend mode="normal" in2="BackgroundImageFix" result="effect1_dropShadow"/>
<feColorMatrix in="SourceAlpha" type="matrix" values="0 0 0 0 0 0 0 0 0 0 0 0 0 0 0 0 0 0 127 0"/>
<feOffset dx="20" dy="20"/>
<feGaussianBlur stdDeviation="10"/>
<feColorMatrix type="matrix" values="0 0 0 0 0 0 0 0 0 0 0 0 0 0 0 0 0 0 0.25 0"/>
<feBlend mode="normal" in2="effect1_dropShadow" result="effect2_dropShadow"/>
<feBlend mode="normal" in="SourceGraphic" in2="effect2_dropShadow" result="shape"/>
</filter>
<filter id="filter9_dd" x="865.773" y="539.047" width="63.0881" height="49.6238" filterUnits="userSpaceOnUse" color-interpolation-filters="sRGB">
<feFlood flood-opacity="0" result="BackgroundImageFix"/>
<feColorMatrix in="SourceAlpha" type="matrix" values="0 0 0 0 0 0 0 0 0 0 0 0 0 0 0 0 0 0 127 0"/>
<feOffset dy="4"/>
<feGaussianBlur stdDeviation="2"/>
<feColorMatrix type="matrix" values="0 0 0 0 0 0 0 0 0 0 0 0 0 0 0 0 0 0 0.25 0"/>
<feBlend mode="normal" in2="BackgroundImageFix" result="effect1_dropShadow"/>
<feColorMatrix in="SourceAlpha" type="matrix" values="0 0 0 0 0 0 0 0 0 0 0 0 0 0 0 0 0 0 127 0"/>
<feOffset dx="20" dy="20"/>
<feGaussianBlur stdDeviation="10"/>
<feColorMatrix type="matrix" values="0 0 0 0 0 0 0 0 0 0 0 0 0 0 0 0 0 0 0.25 0"/>
<feBlend mode="normal" in2="effect1_dropShadow" result="effect2_dropShadow"/>
<feBlend mode="normal" in="SourceGraphic" in2="effect2_dropShadow" result="shape"/>
</filter>
<filter id="filter10_dd" x="880.248" y="532.25" width="63.0881" height="49.6238" filterUnits="userSpaceOnUse" color-interpolation-filters="sRGB">
<feFlood flood-opacity="0" result="BackgroundImageFix"/>
<feColorMatrix in="SourceAlpha" type="matrix" values="0 0 0 0 0 0 0 0 0 0 0 0 0 0 0 0 0 0 127 0"/>
<feOffset dy="4"/>
<feGaussianBlur stdDeviation="2"/>
<feColorMatrix type="matrix" values="0 0 0 0 0 0 0 0 0 0 0 0 0 0 0 0 0 0 0.25 0"/>
<feBlend mode="normal" in2="BackgroundImageFix" result="effect1_dropShadow"/>
<feColorMatrix in="SourceAlpha" type="matrix" values="0 0 0 0 0 0 0 0 0 0 0 0 0 0 0 0 0 0 127 0"/>
<feOffset dx="20" dy="20"/>
<feGaussianBlur stdDeviation="10"/>
<feColorMatrix type="matrix" values="0 0 0 0 0 0 0 0 0 0 0 0 0 0 0 0 0 0 0.25 0"/>
<feBlend mode="normal" in2="effect1_dropShadow" result="effect2_dropShadow"/>
<feBlend mode="normal" in="SourceGraphic" in2="effect2_dropShadow" result="shape"/>
</filter>
<filter id="filter11_dd" x="498.639" y="560.941" width="131.366" height="124.393" filterUnits="userSpaceOnUse" color-interpolation-filters="sRGB">
<feFlood flood-opacity="0" result="BackgroundImageFix"/>
<feColorMatrix in="SourceAlpha" type="matrix" values="0 0 0 0 0 0 0 0 0 0 0 0 0 0 0 0 0 0 127 0"/>
<feOffset dx="10" dy="10"/>
<feGaussianBlur stdDeviation="10"/>
<feColorMatrix type="matrix" values="0 0 0 0 0 0 0 0 0 0 0 0 0 0 0 0 0 0 0.25 0"/>
<feBlend mode="normal" in2="BackgroundImageFix" result="effect1_dropShadow"/>
<feColorMatrix in="SourceAlpha" type="matrix" values="0 0 0 0 0 0 0 0 0 0 0 0 0 0 0 0 0 0 127 0"/>
<feOffset dx="20" dy="20"/>
<feGaussianBlur stdDeviation="20"/>
<feColorMatrix type="matrix" values="0 0 0 0 0 0 0 0 0 0 0 0 0 0 0 0 0 0 0.25 0"/>
<feBlend mode="normal" in2="effect1_dropShadow" result="effect2_dropShadow"/>
<feBlend mode="normal" in="SourceGraphic" in2="effect2_dropShadow" result="shape"/>
</filter>
<filter id="filter12_dd" x="552.781" y="397.395" width="92.3283" height="246.063" filterUnits="userSpaceOnUse" color-interpolation-filters="sRGB">
<feFlood flood-opacity="0" result="BackgroundImageFix"/>
<feColorMatrix in="SourceAlpha" type="matrix" values="0 0 0 0 0 0 0 0 0 0 0 0 0 0 0 0 0 0 127 0"/>
<feOffset dx="10" dy="10"/>
<feGaussianBlur stdDeviation="10"/>
<feColorMatrix type="matrix" values="0 0 0 0 0 0 0 0 0 0 0 0 0 0 0 0 0 0 0.25 0"/>
<feBlend mode="normal" in2="BackgroundImageFix" result="effect1_dropShadow"/>
<feColorMatrix in="SourceAlpha" type="matrix" values="0 0 0 0 0 0 0 0 0 0 0 0 0 0 0 0 0 0 127 0"/>
<feOffset dx="20" dy="20"/>
<feGaussianBlur stdDeviation="20"/>
<feColorMatrix type="matrix" values="0 0 0 0 0 0 0 0 0 0 0 0 0 0 0 0 0 0 0.25 0"/>
<feBlend mode="normal" in2="effect1_dropShadow" result="effect2_dropShadow"/>
<feBlend mode="normal" in="SourceGraphic" in2="effect2_dropShadow" result="shape"/>
</filter>
<filter id="filter13_dd" x="476.178" y="400.121" width="93.702" height="246.048" filterUnits="userSpaceOnUse" color-interpolation-filters="sRGB">
<feFlood flood-opacity="0" result="BackgroundImageFix"/>
<feColorMatrix in="SourceAlpha" type="matrix" values="0 0 0 0 0 0 0 0 0 0 0 0 0 0 0 0 0 0 127 0"/>
<feOffset dx="10" dy="10"/>
<feGaussianBlur stdDeviation="10"/>
<feColorMatrix type="matrix" values="0 0 0 0 0 0 0 0 0 0 0 0 0 0 0 0 0 0 0.25 0"/>
<feBlend mode="normal" in2="BackgroundImageFix" result="effect1_dropShadow"/>
<feColorMatrix in="SourceAlpha" type="matrix" values="0 0 0 0 0 0 0 0 0 0 0 0 0 0 0 0 0 0 127 0"/>
<feOffset dx="20" dy="20"/>
<feGaussianBlur stdDeviation="20"/>
<feColorMatrix type="matrix" values="0 0 0 0 0 0 0 0 0 0 0 0 0 0 0 0 0 0 0.25 0"/>
<feBlend mode="normal" in2="effect1_dropShadow" result="effect2_dropShadow"/>
<feBlend mode="normal" in="SourceGraphic" in2="effect2_dropShadow" result="shape"/>
</filter>
<filter id="filter14_dd" x="479.797" y="396.887" width="162.15" height="250.372" filterUnits="userSpaceOnUse" color-interpolation-filters="sRGB">
<feFlood flood-opacity="0" result="BackgroundImageFix"/>
<feColorMatrix in="SourceAlpha" type="matrix" values="0 0 0 0 0 0 0 0 0 0 0 0 0 0 0 0 0 0 127 0"/>
<feOffset dx="10" dy="10"/>
<feGaussianBlur stdDeviation="10"/>
<feColorMatrix type="matrix" values="0 0 0 0 0 0 0 0 0 0 0 0 0 0 0 0 0 0 0.25 0"/>
<feBlend mode="normal" in2="BackgroundImageFix" result="effect1_dropShadow"/>
<feColorMatrix in="SourceAlpha" type="matrix" values="0 0 0 0 0 0 0 0 0 0 0 0 0 0 0 0 0 0 127 0"/>
<feOffset dx="20" dy="20"/>
<feGaussianBlur stdDeviation="20"/>
<feColorMatrix type="matrix" values="0 0 0 0 0 0 0 0 0 0 0 0 0 0 0 0 0 0 0.25 0"/>
<feBlend mode="normal" in2="effect1_dropShadow" result="effect2_dropShadow"/>
<feBlend mode="normal" in="SourceGraphic" in2="effect2_dropShadow" result="shape"/>
</filter>
<filter id="filter15_dd" x="486.701" y="436.742" width="148.728" height="138.277" filterUnits="userSpaceOnUse" color-interpolation-filters="sRGB">
<feFlood flood-opacity="0" result="BackgroundImageFix"/>
<feColorMatrix in="SourceAlpha" type="matrix" values="0 0 0 0 0 0 0 0 0 0 0 0 0 0 0 0 0 0 127 0"/>
<feOffset dx="10" dy="10"/>
<feGaussianBlur stdDeviation="10"/>
<feColorMatrix type="matrix" values="0 0 0 0 0 0 0 0 0 0 0 0 0 0 0 0 0 0 0.25 0"/>
<feBlend mode="normal" in2="BackgroundImageFix" result="effect1_dropShadow"/>
<feColorMatrix in="SourceAlpha" type="matrix" values="0 0 0 0 0 0 0 0 0 0 0 0 0 0 0 0 0 0 127 0"/>
<feOffset dx="20" dy="20"/>
<feGaussianBlur stdDeviation="20"/>
<feColorMatrix type="matrix" values="0 0 0 0 0 0 0 0 0 0 0 0 0 0 0 0 0 0 0.25 0"/>
<feBlend mode="normal" in2="effect1_dropShadow" result="effect2_dropShadow"/>
<feBlend mode="normal" in="SourceGraphic" in2="effect2_dropShadow" result="shape"/>
</filter>
<filter id="filter16_dd" x="489.754" y="442.66" width="142.605" height="124.959" filterUnits="userSpaceOnUse" color-interpolation-filters="sRGB">
<feFlood flood-opacity="0" result="BackgroundImageFix"/>
<feColorMatrix in="SourceAlpha" type="matrix" values="0 0 0 0 0 0 0 0 0 0 0 0 0 0 0 0 0 0 127 0"/>
<feOffset dx="10" dy="10"/>
<feGaussianBlur stdDeviation="10"/>
<feColorMatrix type="matrix" values="0 0 0 0 0 0 0 0 0 0 0 0 0 0 0 0 0 0 0.25 0"/>
<feBlend mode="normal" in2="BackgroundImageFix" result="effect1_dropShadow"/>
<feColorMatrix in="SourceAlpha" type="matrix" values="0 0 0 0 0 0 0 0 0 0 0 0 0 0 0 0 0 0 127 0"/>
<feOffset dx="20" dy="20"/>
<feGaussianBlur stdDeviation="20"/>
<feColorMatrix type="matrix" values="0 0 0 0 0 0 0 0 0 0 0 0 0 0 0 0 0 0 0.25 0"/>
<feBlend mode="normal" in2="effect1_dropShadow" result="effect2_dropShadow"/>
<feBlend mode="normal" in="SourceGraphic" in2="effect2_dropShadow" result="shape"/>
</filter>
<filter id="filter17_dd" x="492.006" y="504.645" width="94.7233" height="87.5127" filterUnits="userSpaceOnUse" color-interpolation-filters="sRGB">
<feFlood flood-opacity="0" result="BackgroundImageFix"/>
<feColorMatrix in="SourceAlpha" type="matrix" values="0 0 0 0 0 0 0 0 0 0 0 0 0 0 0 0 0 0 127 0"/>
<feOffset dx="10" dy="10"/>
<feGaussianBlur stdDeviation="10"/>
<feColorMatrix type="matrix" values="0 0 0 0 0 0 0 0 0 0 0 0 0 0 0 0 0 0 0.25 0"/>
<feBlend mode="normal" in2="BackgroundImageFix" result="effect1_dropShadow"/>
<feColorMatrix in="SourceAlpha" type="matrix" values="0 0 0 0 0 0 0 0 0 0 0 0 0 0 0 0 0 0 127 0"/>
<feOffset dx="20" dy="20"/>
<feGaussianBlur stdDeviation="20"/>
<feColorMatrix type="matrix" values="0 0 0 0 0 0 0 0 0 0 0 0 0 0 0 0 0 0 0.25 0"/>
<feBlend mode="normal" in2="effect1_dropShadow" result="effect2_dropShadow"/>
<feBlend mode="normal" in="SourceGraphic" in2="effect2_dropShadow" result="shape"/>
</filter>
<filter id="filter18_dd" x="492.457" y="517.949" width="94.7226" height="87.5116" filterUnits="userSpaceOnUse" color-interpolation-filters="sRGB">
<feFlood flood-opacity="0" result="BackgroundImageFix"/>
<feColorMatrix in="SourceAlpha" type="matrix" values="0 0 0 0 0 0 0 0 0 0 0 0 0 0 0 0 0 0 127 0"/>
<feOffset dx="10" dy="10"/>
<feGaussianBlur stdDeviation="10"/>
<feColorMatrix type="matrix" values="0 0 0 0 0 0 0 0 0 0 0 0 0 0 0 0 0 0 0.25 0"/>
<feBlend mode="normal" in2="BackgroundImageFix" result="effect1_dropShadow"/>
<feColorMatrix in="SourceAlpha" type="matrix" values="0 0 0 0 0 0 0 0 0 0 0 0 0 0 0 0 0 0 127 0"/>
<feOffset dx="20" dy="20"/>
<feGaussianBlur stdDeviation="20"/>
<feColorMatrix type="matrix" values="0 0 0 0 0 0 0 0 0 0 0 0 0 0 0 0 0 0 0.25 0"/>
<feBlend mode="normal" in2="effect1_dropShadow" result="effect2_dropShadow"/>
<feBlend mode="normal" in="SourceGraphic" in2="effect2_dropShadow" result="shape"/>
</filter>
<filter id="filter19_dd" x="492.896" y="531.25" width="94.7231" height="87.5127" filterUnits="userSpaceOnUse" color-interpolation-filters="sRGB">
<feFlood flood-opacity="0" result="BackgroundImageFix"/>
<feColorMatrix in="SourceAlpha" type="matrix" values="0 0 0 0 0 0 0 0 0 0 0 0 0 0 0 0 0 0 127 0"/>
<feOffset dx="10" dy="10"/>
<feGaussianBlur stdDeviation="10"/>
<feColorMatrix type="matrix" values="0 0 0 0 0 0 0 0 0 0 0 0 0 0 0 0 0 0 0.25 0"/>
<feBlend mode="normal" in2="BackgroundImageFix" result="effect1_dropShadow"/>
<feColorMatrix in="SourceAlpha" type="matrix" values="0 0 0 0 0 0 0 0 0 0 0 0 0 0 0 0 0 0 127 0"/>
<feOffset dx="20" dy="20"/>
<feGaussianBlur stdDeviation="20"/>
<feColorMatrix type="matrix" values="0 0 0 0 0 0 0 0 0 0 0 0 0 0 0 0 0 0 0.25 0"/>
<feBlend mode="normal" in2="effect1_dropShadow" result="effect2_dropShadow"/>
<feBlend mode="normal" in="SourceGraphic" in2="effect2_dropShadow" result="shape"/>
</filter>
<filter id="filter20_dd" x="493.355" y="544.555" width="94.7231" height="87.5126" filterUnits="userSpaceOnUse" color-interpolation-filters="sRGB">
<feFlood flood-opacity="0" result="BackgroundImageFix"/>
<feColorMatrix in="SourceAlpha" type="matrix" values="0 0 0 0 0 0 0 0 0 0 0 0 0 0 0 0 0 0 127 0"/>
<feOffset dx="10" dy="10"/>
<feGaussianBlur stdDeviation="10"/>
<feColorMatrix type="matrix" values="0 0 0 0 0 0 0 0 0 0 0 0 0 0 0 0 0 0 0.25 0"/>
<feBlend mode="normal" in2="BackgroundImageFix" result="effect1_dropShadow"/>
<feColorMatrix in="SourceAlpha" type="matrix" values="0 0 0 0 0 0 0 0 0 0 0 0 0 0 0 0 0 0 127 0"/>
<feOffset dx="20" dy="20"/>
<feGaussianBlur stdDeviation="20"/>
<feColorMatrix type="matrix" values="0 0 0 0 0 0 0 0 0 0 0 0 0 0 0 0 0 0 0.25 0"/>
<feBlend mode="normal" in2="effect1_dropShadow" result="effect2_dropShadow"/>
<feBlend mode="normal" in="SourceGraphic" in2="effect2_dropShadow" result="shape"/>
</filter>
<filter id="filter21_dd" x="515.199" y="544.328" width="94.7232" height="87.5127" filterUnits="userSpaceOnUse" color-interpolation-filters="sRGB">
<feFlood flood-opacity="0" result="BackgroundImageFix"/>
<feColorMatrix in="SourceAlpha" type="matrix" values="0 0 0 0 0 0 0 0 0 0 0 0 0 0 0 0 0 0 127 0"/>
<feOffset dx="10" dy="10"/>
<feGaussianBlur stdDeviation="10"/>
<feColorMatrix type="matrix" values="0 0 0 0 0 0 0 0 0 0 0 0 0 0 0 0 0 0 0.25 0"/>
<feBlend mode="normal" in2="BackgroundImageFix" result="effect1_dropShadow"/>
<feColorMatrix in="SourceAlpha" type="matrix" values="0 0 0 0 0 0 0 0 0 0 0 0 0 0 0 0 0 0 127 0"/>
<feOffset dx="20" dy="20"/>
<feGaussianBlur stdDeviation="20"/>
<feColorMatrix type="matrix" values="0 0 0 0 0 0 0 0 0 0 0 0 0 0 0 0 0 0 0.25 0"/>
<feBlend mode="normal" in2="effect1_dropShadow" result="effect2_dropShadow"/>
<feBlend mode="normal" in="SourceGraphic" in2="effect2_dropShadow" result="shape"/>
</filter>
<filter id="filter22_dd" x="538.527" y="544.086" width="94.7226" height="87.5126" filterUnits="userSpaceOnUse" color-interpolation-filters="sRGB">
<feFlood flood-opacity="0" result="BackgroundImageFix"/>
<feColorMatrix in="SourceAlpha" type="matrix" values="0 0 0 0 0 0 0 0 0 0 0 0 0 0 0 0 0 0 127 0"/>
<feOffset dx="10" dy="10"/>
<feGaussianBlur stdDeviation="10"/>
<feColorMatrix type="matrix" values="0 0 0 0 0 0 0 0 0 0 0 0 0 0 0 0 0 0 0.25 0"/>
<feBlend mode="normal" in2="BackgroundImageFix" result="effect1_dropShadow"/>
<feColorMatrix in="SourceAlpha" type="matrix" values="0 0 0 0 0 0 0 0 0 0 0 0 0 0 0 0 0 0 127 0"/>
<feOffset dx="20" dy="20"/>
<feGaussianBlur stdDeviation="20"/>
<feColorMatrix type="matrix" values="0 0 0 0 0 0 0 0 0 0 0 0 0 0 0 0 0 0 0.25 0"/>
<feBlend mode="normal" in2="effect1_dropShadow" result="effect2_dropShadow"/>
<feBlend mode="normal" in="SourceGraphic" in2="effect2_dropShadow" result="shape"/>
</filter>
<filter id="filter23_dd" x="514.768" y="531.02" width="94.7231" height="87.5126" filterUnits="userSpaceOnUse" color-interpolation-filters="sRGB">
<feFlood flood-opacity="0" result="BackgroundImageFix"/>
<feColorMatrix in="SourceAlpha" type="matrix" values="0 0 0 0 0 0 0 0 0 0 0 0 0 0 0 0 0 0 127 0"/>
<feOffset dx="10" dy="10"/>
<feGaussianBlur stdDeviation="10"/>
<feColorMatrix type="matrix" values="0 0 0 0 0 0 0 0 0 0 0 0 0 0 0 0 0 0 0.25 0"/>
<feBlend mode="normal" in2="BackgroundImageFix" result="effect1_dropShadow"/>
<feColorMatrix in="SourceAlpha" type="matrix" values="0 0 0 0 0 0 0 0 0 0 0 0 0 0 0 0 0 0 127 0"/>
<feOffset dx="20" dy="20"/>
<feGaussianBlur stdDeviation="20"/>
<feColorMatrix type="matrix" values="0 0 0 0 0 0 0 0 0 0 0 0 0 0 0 0 0 0 0.25 0"/>
<feBlend mode="normal" in2="effect1_dropShadow" result="effect2_dropShadow"/>
<feBlend mode="normal" in="SourceGraphic" in2="effect2_dropShadow" result="shape"/>
</filter>
<filter id="filter24_dd" x="538.096" y="530.781" width="94.7227" height="87.5116" filterUnits="userSpaceOnUse" color-interpolation-filters="sRGB">
<feFlood flood-opacity="0" result="BackgroundImageFix"/>
<feColorMatrix in="SourceAlpha" type="matrix" values="0 0 0 0 0 0 0 0 0 0 0 0 0 0 0 0 0 0 127 0"/>
<feOffset dx="10" dy="10"/>
<feGaussianBlur stdDeviation="10"/>
<feColorMatrix type="matrix" values="0 0 0 0 0 0 0 0 0 0 0 0 0 0 0 0 0 0 0.25 0"/>
<feBlend mode="normal" in2="BackgroundImageFix" result="effect1_dropShadow"/>
<feColorMatrix in="SourceAlpha" type="matrix" values="0 0 0 0 0 0 0 0 0 0 0 0 0 0 0 0 0 0 127 0"/>
<feOffset dx="20" dy="20"/>
<feGaussianBlur stdDeviation="20"/>
<feColorMatrix type="matrix" values="0 0 0 0 0 0 0 0 0 0 0 0 0 0 0 0 0 0 0.25 0"/>
<feBlend mode="normal" in2="effect1_dropShadow" result="effect2_dropShadow"/>
<feBlend mode="normal" in="SourceGraphic" in2="effect2_dropShadow" result="shape"/>
</filter>
<filter id="filter25_dd" x="514.326" y="517.719" width="94.7226" height="87.5116" filterUnits="userSpaceOnUse" color-interpolation-filters="sRGB">
<feFlood flood-opacity="0" result="BackgroundImageFix"/>
<feColorMatrix in="SourceAlpha" type="matrix" values="0 0 0 0 0 0 0 0 0 0 0 0 0 0 0 0 0 0 127 0"/>
<feOffset dx="10" dy="10"/>
<feGaussianBlur stdDeviation="10"/>
<feColorMatrix type="matrix" values="0 0 0 0 0 0 0 0 0 0 0 0 0 0 0 0 0 0 0.25 0"/>
<feBlend mode="normal" in2="BackgroundImageFix" result="effect1_dropShadow"/>
<feColorMatrix in="SourceAlpha" type="matrix" values="0 0 0 0 0 0 0 0 0 0 0 0 0 0 0 0 0 0 127 0"/>
<feOffset dx="20" dy="20"/>
<feGaussianBlur stdDeviation="20"/>
<feColorMatrix type="matrix" values="0 0 0 0 0 0 0 0 0 0 0 0 0 0 0 0 0 0 0.25 0"/>
<feBlend mode="normal" in2="effect1_dropShadow" result="effect2_dropShadow"/>
<feBlend mode="normal" in="SourceGraphic" in2="effect2_dropShadow" result="shape"/>
</filter>
<filter id="filter26_dd" x="537.643" y="517.473" width="94.7231" height="87.5126" filterUnits="userSpaceOnUse" color-interpolation-filters="sRGB">
<feFlood flood-opacity="0" result="BackgroundImageFix"/>
<feColorMatrix in="SourceAlpha" type="matrix" values="0 0 0 0 0 0 0 0 0 0 0 0 0 0 0 0 0 0 127 0"/>
<feOffset dx="10" dy="10"/>
<feGaussianBlur stdDeviation="10"/>
<feColorMatrix type="matrix" values="0 0 0 0 0 0 0 0 0 0 0 0 0 0 0 0 0 0 0.25 0"/>
<feBlend mode="normal" in2="BackgroundImageFix" result="effect1_dropShadow"/>
<feColorMatrix in="SourceAlpha" type="matrix" values="0 0 0 0 0 0 0 0 0 0 0 0 0 0 0 0 0 0 127 0"/>
<feOffset dx="20" dy="20"/>
<feGaussianBlur stdDeviation="20"/>
<feColorMatrix type="matrix" values="0 0 0 0 0 0 0 0 0 0 0 0 0 0 0 0 0 0 0.25 0"/>
<feBlend mode="normal" in2="effect1_dropShadow" result="effect2_dropShadow"/>
<feBlend mode="normal" in="SourceGraphic" in2="effect2_dropShadow" result="shape"/>
</filter>
<filter id="filter27_dd" x="513.881" y="504.414" width="94.7231" height="87.5126" filterUnits="userSpaceOnUse" color-interpolation-filters="sRGB">
<feFlood flood-opacity="0" result="BackgroundImageFix"/>
<feColorMatrix in="SourceAlpha" type="matrix" values="0 0 0 0 0 0 0 0 0 0 0 0 0 0 0 0 0 0 127 0"/>
<feOffset dx="10" dy="10"/>
<feGaussianBlur stdDeviation="10"/>
<feColorMatrix type="matrix" values="0 0 0 0 0 0 0 0 0 0 0 0 0 0 0 0 0 0 0.25 0"/>
<feBlend mode="normal" in2="BackgroundImageFix" result="effect1_dropShadow"/>
<feColorMatrix in="SourceAlpha" type="matrix" values="0 0 0 0 0 0 0 0 0 0 0 0 0 0 0 0 0 0 127 0"/>
<feOffset dx="20" dy="20"/>
<feGaussianBlur stdDeviation="20"/>
<feColorMatrix type="matrix" values="0 0 0 0 0 0 0 0 0 0 0 0 0 0 0 0 0 0 0.25 0"/>
<feBlend mode="normal" in2="effect1_dropShadow" result="effect2_dropShadow"/>
<feBlend mode="normal" in="SourceGraphic" in2="effect2_dropShadow" result="shape"/>
</filter>
<filter id="filter28_dd" x="537.207" y="504.172" width="94.7226" height="87.5117" filterUnits="userSpaceOnUse" color-interpolation-filters="sRGB">
<feFlood flood-opacity="0" result="BackgroundImageFix"/>
<feColorMatrix in="SourceAlpha" type="matrix" values="0 0 0 0 0 0 0 0 0 0 0 0 0 0 0 0 0 0 127 0"/>
<feOffset dx="10" dy="10"/>
<feGaussianBlur stdDeviation="10"/>
<feColorMatrix type="matrix" values="0 0 0 0 0 0 0 0 0 0 0 0 0 0 0 0 0 0 0.25 0"/>
<feBlend mode="normal" in2="BackgroundImageFix" result="effect1_dropShadow"/>
<feColorMatrix in="SourceAlpha" type="matrix" values="0 0 0 0 0 0 0 0 0 0 0 0 0 0 0 0 0 0 127 0"/>
<feOffset dx="20" dy="20"/>
<feGaussianBlur stdDeviation="20"/>
<feColorMatrix type="matrix" values="0 0 0 0 0 0 0 0 0 0 0 0 0 0 0 0 0 0 0.25 0"/>
<feBlend mode="normal" in2="effect1_dropShadow" result="effect2_dropShadow"/>
<feBlend mode="normal" in="SourceGraphic" in2="effect2_dropShadow" result="shape"/>
</filter>
<filter id="filter29_dd" x="495.961" y="459.734" width="132.198" height="91.703" filterUnits="userSpaceOnUse" color-interpolation-filters="sRGB">
<feFlood flood-opacity="0" result="BackgroundImageFix"/>
<feColorMatrix in="SourceAlpha" type="matrix" values="0 0 0 0 0 0 0 0 0 0 0 0 0 0 0 0 0 0 127 0"/>
<feOffset dx="10" dy="10"/>
<feGaussianBlur stdDeviation="10"/>
<feColorMatrix type="matrix" values="0 0 0 0 0 0 0 0 0 0 0 0 0 0 0 0 0 0 0.25 0"/>
<feBlend mode="normal" in2="BackgroundImageFix" result="effect1_dropShadow"/>
<feColorMatrix in="SourceAlpha" type="matrix" values="0 0 0 0 0 0 0 0 0 0 0 0 0 0 0 0 0 0 127 0"/>
<feOffset dx="20" dy="20"/>
<feGaussianBlur stdDeviation="20"/>
<feColorMatrix type="matrix" values="0 0 0 0 0 0 0 0 0 0 0 0 0 0 0 0 0 0 0.25 0"/>
<feBlend mode="normal" in2="effect1_dropShadow" result="effect2_dropShadow"/>
<feBlend mode="normal" in="SourceGraphic" in2="effect2_dropShadow" result="shape"/>
</filter>
<clipPath id="clip0">
<rect width="1440" height="1024" fill="white"/>
</clipPath>
<clipPath id="clip1">
<rect width="244.583" height="319.15" fill="white" transform="translate(394 441.562) rotate(-27.9301)"/>
</clipPath>
</defs>
</svg>
