<svg width="41" height="105" viewBox="0 0 41 105" fill="none" xmlns="http://www.w3.org/2000/svg">
<path d="M15.339 101.291L19.2172 101.291L21.0623 89.4487L15.3383 89.4489L15.339 101.291Z" fill="#FFB8B8"/>
<path d="M14.3497 100.289L21.9876 100.288H21.9879C23.2788 100.288 24.5168 100.694 25.4296 101.417C26.3424 102.14 26.8552 103.12 26.8553 104.141V104.267L14.35 104.267L14.3497 100.289Z" fill="black"/>
<path d="M28.379 101.291L32.2572 101.291L34.1024 89.4487L28.3783 89.4489L28.379 101.291Z" fill="#FFB8B8"/>
<path d="M27.3896 100.289L35.0275 100.288H35.0278C36.3187 100.288 37.5567 100.694 38.4695 101.417C39.3823 102.14 39.8952 103.12 39.8953 104.141V104.267L27.3899 104.267L27.3896 100.289Z" fill="black"/>
<path d="M21.4347 59.7041L22.365 97.2736L14.8392 96.9041L9.61818 72.9744L7.96912 56.6584L21.4347 59.7041Z" fill="#1D8D8D"/>
<path d="M34.3505 53.3954L35.4051 97.8691L26.6282 97.6706L24.7324 71.2339L21.4347 61.662L7.96936 56.6585L10.1678 44.6936L29.9536 44.4761L34.3505 53.3954Z" fill="#1D8D8D"/>
<path d="M19.2183 13.5849C22.9353 13.5849 25.9485 11.1996 25.9485 8.25706C25.9485 5.31457 22.9353 2.9292 19.2183 2.9292C15.5013 2.9292 12.488 5.31457 12.488 8.25706C12.488 11.1996 15.5013 13.5849 19.2183 13.5849Z" fill="#FFB8B8"/>
<path d="M24.8005 15.8293L25.8314 17.0657L28.5796 23.1568L26.3811 46.869L13.4652 47.0867L11.8167 19.8936L15.2705 16.4759L24.8005 15.8293Z" fill="#CCCCCC"/>
<path d="M6.5953 20.5464L4.39686 20.3289C4.39686 20.3289 3.84725 20.5464 3.57246 22.0692C3.29766 23.592 0 37.0797 0 37.0797L4.39686 53.613L9.34333 48.392L6.32051 39.2552L9.34335 30.1183L6.5953 20.5464Z" fill="#1D8D8D"/>
<path d="M34.6253 20.3289H36.2741L40.3962 37.9497L36.5489 51.6549L32.7016 46.6515L33.8007 41.2129L33.2513 36.427L31.3276 33.5988L34.6253 20.3289Z" fill="#1D8D8D"/>
<path d="M23.1953 8.25712L21.9716 8.01494C21.9716 8.01494 21.0538 3.89795 18.9124 4.3823C16.7709 4.86665 11.2644 5.35101 11.2644 3.4136C11.2644 1.47619 16.465 -0.21904 19.5242 0.0231359C22.5834 0.265312 26.4905 1.06873 27.4781 4.62447C29.0614 10.3245 24.2115 11.7643 24.2115 11.7643L24.2922 11.5567C24.5163 10.9805 24.5323 10.3661 24.3385 9.78301C24.1447 9.19993 23.7487 8.67138 23.1953 8.25712V8.25712Z" fill="#050505"/>
<path d="M4.67175 20.3288L13.4655 17.5007L15.5265 16.3043L21.7096 37.9498L24.595 15.6516L35.9993 20.3288L32.1521 35.1218L31.6025 40.7779L33.2513 45.3463C33.2513 45.3463 39.0221 48.6095 37.0985 52.0902C35.1749 55.5708 32.9765 55.7884 32.9765 55.7884C32.9765 55.7884 23.6332 48.827 23.0836 47.0866C22.534 45.3463 21.7096 42.3007 21.7096 42.3007C21.7096 42.3007 17.0379 56.2235 11.5419 56.0059C6.04582 55.7884 6.0458 51.22 6.0458 51.22L7.41981 46.434L9.61825 41.4305L8.51902 33.1639L4.67175 20.3288Z" fill="#1D8D8D"/>
</svg>
