<svg width="113" height="132" viewBox="0 0 113 132" fill="none" xmlns="http://www.w3.org/2000/svg">
<g filter="url(#filter0_d)">
<path d="M44.7773 95.8774L44.5865 113.383" stroke="#D0B62E" stroke-opacity="0.8"/>
</g>
<g filter="url(#filter1_d)">
<path d="M44.5866 113.383L64.8963 113.362L65.0872 95.8572" stroke="#D0B62E" stroke-opacity="0.8"/>
</g>
<g filter="url(#filter2_d)">
<path d="M64.3776 73.7463C66.3056 73.7445 67.879 72.7804 67.892 71.5931C67.9049 70.4058 66.3526 69.4449 64.4247 69.4468C62.4967 69.4487 60.9233 70.4127 60.9103 71.6C60.8973 72.7873 62.4497 73.7482 64.3776 73.7463Z" fill="#7A7A7A"/>
</g>
<g filter="url(#filter3_d)">
<path d="M64.3242 78.6597C66.2521 78.6578 67.8255 77.6938 67.8385 76.5065C67.8515 75.3192 66.2991 74.3582 64.3712 74.3601C62.4433 74.362 60.8698 75.326 60.8569 76.5133C60.8439 77.7006 62.3962 78.6616 64.3242 78.6597Z" fill="#7A7A7A"/>
</g>
<g filter="url(#filter4_d)">
<path d="M39.5036 26.7831L39.5207 25.2471C39.5249 24.8381 39.661 24.0186 40.1689 24.0179C40.6763 24.018 42.2841 24.0165 43.0253 24.0155L44.9284 24.0135" stroke="#D0B62E" stroke-opacity="0.8"/>
</g>
<g filter="url(#filter5_d)">
<path d="M72.2036 25.5228C73.0497 25.5214 74.7402 25.7046 74.7323 26.4416C74.7245 27.1786 74.5295 44.9707 74.4338 53.7742C75.0706 53.5692 76.4684 53.4034 76.9654 54.3866C77.4621 55.3685 76.9017 79.5688 76.5594 91.5468C76.3405 92.1607 75.6503 93.3908 74.6344 93.391C73.6188 93.3926 72.0956 93.394 71.4612 93.3946M39.2028 25.2479C38.3568 25.2483 36.6609 25.5571 36.6473 26.7858C36.6336 28.0146 36.3881 50.4335 36.2676 61.4891L35.9246 92.8151C36.0264 93.2244 36.4188 94.1048 37.1779 94.3496C37.937 94.5945 38.7607 94.6548 39.079 94.6546L39.2028 25.2479Z" stroke="#D0B62E" stroke-opacity="0.8"/>
</g>
<g filter="url(#filter6_d)">
<path d="M67.1391 24.2977L67.0511 32.2828L45.1543 32.3045L45.3425 15.1059C45.1442 13.8779 45.1931 11.3593 46.9731 11.1116C48.7525 10.8648 53.0036 11.0039 54.9062 11.104L62.2055 11.0974L69.187 11.0901" stroke="#D0B62E" stroke-opacity="0.8"/>
</g>
<g filter="url(#filter7_d)">
<path d="M39.5068 26.4754L38.8014 90.9689C38.6776 92.6065 38.9387 95.8825 40.9687 95.881C43.0002 95.8791 44.3546 95.8772 44.7771 95.8773L44.7973 94.0339L65.4248 94.0143L65.4052 95.8568L69.5305 95.8532C69.9546 95.7496 70.8697 95.2373 71.1377 94.0084C71.4042 92.7798 71.7417 48.453 71.8766 26.4438C71.9905 25.6245 71.8397 23.9862 70.316 23.9884C68.7927 23.9897 67.5659 23.9912 67.1433 23.9911L67.2137 17.5416L67.24 15.0847L67.2672 12.6283C67.8026 12.0131 69.1907 10.8448 70.4575 11.09C71.7239 11.3338 72.6664 12.2138 72.98 12.6223L72.9624 14.1579L72.9523 15.0796L72.9428 16.0004L67.2299 16.0064" stroke="#D0B62E" stroke-opacity="0.8"/>
</g>
<g filter="url(#filter8_d)">
<path d="M41.0616 58.4137L41.2802 38.4514C41.2859 37.9398 41.3613 36.8538 41.6181 36.6086C41.8746 36.3622 42.362 36.3 42.5733 36.3L43.8429 36.2993L47.9687 36.2948L68.2785 36.2746C69.8017 36.2733 70.1666 37.7064 70.1594 38.4229L69.9408 58.3852C69.9274 59.6141 68.6506 60.3314 68.0134 60.5372L63.5698 60.541L43.5775 60.5605C42.0542 60.5618 41.2657 59.1302 41.0616 58.4137Z" stroke="#D0B62E" stroke-opacity="0.8"/>
</g>
<g filter="url(#filter9_d)">
<path d="M68.2519 38.7313L43.1811 38.7561L42.976 57.4896L68.0463 57.4656L68.2519 38.7313Z" fill="#2CE9D2"/>
<path d="M68.2519 38.7313L43.1811 38.7561L42.976 57.4896L68.0463 57.4656L68.2519 38.7313Z" stroke="#D0B62E" stroke-opacity="0.8"/>
</g>
<g filter="url(#filter10_d)">
<path d="M46.6662 68.2354C48.5941 68.2335 50.1675 67.2694 50.1805 66.0821C50.1935 64.8948 48.6412 63.9339 46.7132 63.9358C44.7853 63.9377 43.2119 64.9017 43.1989 66.089C43.1859 67.2763 44.7383 68.2373 46.6662 68.2354Z" fill="#7A7A7A"/>
</g>
<g filter="url(#filter11_d)">
<path d="M55.5524 68.2271C57.4804 68.2252 59.0538 67.2611 59.0668 66.0738C59.0797 64.8865 57.5274 63.9256 55.5995 63.9275C53.6715 63.9294 52.0981 64.8934 52.0851 66.0807C52.0721 67.268 53.6245 68.229 55.5524 68.2271Z" fill="#7A7A7A"/>
</g>
<g filter="url(#filter12_d)">
<path d="M64.4385 68.2178C66.3665 68.2159 67.9399 67.2519 67.9529 66.0646C67.9659 64.8773 66.4135 63.9163 64.4856 63.9182C62.5576 63.9201 60.9842 64.8841 60.9712 66.0714C60.9583 67.2587 62.5106 68.2197 64.4385 68.2178Z" fill="#7A7A7A"/>
</g>
<g filter="url(#filter13_d)">
<path d="M46.5526 78.6782C48.4805 78.6763 50.0539 77.7123 50.0669 76.525C50.0799 75.3377 48.5275 74.3768 46.5996 74.3787C44.6717 74.3805 43.0982 75.3446 43.0853 76.5319C43.0723 77.7192 44.6246 78.6801 46.5526 78.6782Z" fill="#7A7A7A"/>
</g>
<g filter="url(#filter14_d)">
<path d="M46.606 73.7634C48.5339 73.7615 50.1074 72.7975 50.1203 71.6102C50.1333 70.4229 48.581 69.462 46.653 69.4639C44.7251 69.4658 43.1517 70.4298 43.1387 71.6171C43.1257 72.8044 44.6781 73.7653 46.606 73.7634Z" fill="#7A7A7A"/>
</g>
<g filter="url(#filter15_d)">
<path d="M55.4915 73.7546C57.4194 73.7528 58.9929 72.7887 59.0058 71.6014C59.0188 70.4141 57.4665 69.4532 55.5385 69.4551C53.6106 69.457 52.0372 70.421 52.0242 71.6083C52.0112 72.7956 53.5636 73.7565 55.4915 73.7546Z" fill="#7A7A7A"/>
</g>
<g filter="url(#filter16_d)">
<path d="M55.4385 78.6687C57.3665 78.6668 58.9399 77.7028 58.9529 76.5155C58.9659 75.3282 57.4135 74.3672 55.4856 74.3691C53.5576 74.371 51.9842 75.3351 51.9712 76.5223C51.9583 77.7096 53.5106 78.6706 55.4385 78.6687Z" fill="#7A7A7A"/>
</g>
<g filter="url(#filter17_d)">
<path d="M55.3847 83.5828C57.3126 83.5809 58.886 82.6169 58.899 81.4296C58.912 80.2423 57.3597 79.2813 55.4317 79.2832C53.5038 79.2851 51.9304 80.2491 51.9174 81.4364C51.9044 82.6237 53.4568 83.5847 55.3847 83.5828Z" fill="#7A7A7A"/>
</g>
<g filter="url(#filter18_d)">
<path d="M46.4991 83.5913C48.427 83.5894 50.0004 82.6254 50.0134 81.4381C50.0264 80.2508 48.474 79.2898 46.5461 79.2917C44.6182 79.2936 43.0448 80.2577 43.0318 81.445C43.0188 82.6323 44.5712 83.5932 46.4991 83.5913Z" fill="#7A7A7A"/>
</g>
<g filter="url(#filter19_d)">
<path d="M46.4379 89.1182C48.3659 89.1163 49.9393 88.1523 49.9523 86.965C49.9652 85.7777 48.4129 84.8167 46.485 84.8186C44.557 84.8205 42.9836 85.7845 42.9706 86.9718C42.9576 88.1591 44.51 89.1201 46.4379 89.1182Z" fill="#D51818"/>
</g>
<g filter="url(#filter20_d)">
<path d="M55.3245 89.1101C57.2525 89.1082 58.8259 88.1442 58.8389 86.9569C58.8518 85.7696 57.2995 84.8086 55.3716 84.8105C53.4436 84.8124 51.8702 85.7765 51.8572 86.9638C51.8442 88.1511 53.3966 89.112 55.3245 89.1101Z" fill="#7A7A7A"/>
</g>
<g filter="url(#filter21_d)">
<path d="M64.2099 89.1021C66.1378 89.1002 67.7112 88.1361 67.7242 86.9488C67.7372 85.7615 66.1849 84.8006 64.2569 84.8025C62.329 84.8044 60.7556 85.7684 60.7426 86.9557C60.7296 88.143 62.282 89.104 64.2099 89.1021Z" fill="#47D93A"/>
</g>
<g filter="url(#filter22_d)">
<path d="M64.2701 83.574C66.198 83.5721 67.7714 82.6081 67.7844 81.4208C67.7974 80.2335 66.245 79.2725 64.3171 79.2744C62.3892 79.2763 60.8158 80.2403 60.8028 81.4276C60.7898 82.6149 62.3422 83.5759 64.2701 83.574Z" fill="#7A7A7A"/>
</g>
<ellipse cx="55.5" cy="48" rx="7.5" ry="8" fill="#FFF6F6"/>
<line x1="52.3254" y1="44.6204" x2="59.3254" y2="50.6204" stroke="#FD2020"/>
<line x1="51.7997" y1="50.7943" x2="58.5151" y2="44.4773" stroke="#FF2D2D"/>
<defs>
<filter id="filter0_d" x="32.4039" y="95.4331" width="24.556" height="26.3937" filterUnits="userSpaceOnUse" color-interpolation-filters="sRGB">
<feFlood flood-opacity="0" result="BackgroundImageFix"/>
<feColorMatrix in="SourceAlpha" type="matrix" values="0 0 0 0 0 0 0 0 0 0 0 0 0 0 0 0 0 0 127 0"/>
<feOffset dy="4"/>
<feGaussianBlur stdDeviation="2"/>
<feColorMatrix type="matrix" values="0 0 0 0 0 0 0 0 0 0 0 0 0 0 0 0 0 0 0.25 0"/>
<feBlend mode="normal" in2="BackgroundImageFix" result="effect1_dropShadow"/>
<feBlend mode="normal" in="SourceGraphic" in2="effect1_dropShadow" result="shape"/>
</filter>
<filter id="filter1_d" x="40.1395" y="91.1692" width="37.347" height="40.0023" filterUnits="userSpaceOnUse" color-interpolation-filters="sRGB">
<feFlood flood-opacity="0" result="BackgroundImageFix"/>
<feColorMatrix in="SourceAlpha" type="matrix" values="0 0 0 0 0 0 0 0 0 0 0 0 0 0 0 0 0 0 127 0"/>
<feOffset dy="4"/>
<feGaussianBlur stdDeviation="2"/>
<feColorMatrix type="matrix" values="0 0 0 0 0 0 0 0 0 0 0 0 0 0 0 0 0 0 0.25 0"/>
<feBlend mode="normal" in2="BackgroundImageFix" result="effect1_dropShadow"/>
<feBlend mode="normal" in="SourceGraphic" in2="effect1_dropShadow" result="shape"/>
</filter>
<filter id="filter2_d" x="56.9103" y="69.4468" width="14.9818" height="12.2996" filterUnits="userSpaceOnUse" color-interpolation-filters="sRGB">
<feFlood flood-opacity="0" result="BackgroundImageFix"/>
<feColorMatrix in="SourceAlpha" type="matrix" values="0 0 0 0 0 0 0 0 0 0 0 0 0 0 0 0 0 0 127 0"/>
<feOffset dy="4"/>
<feGaussianBlur stdDeviation="2"/>
<feColorMatrix type="matrix" values="0 0 0 0 0 0 0 0 0 0 0 0 0 0 0 0 0 0 0.25 0"/>
<feBlend mode="normal" in2="BackgroundImageFix" result="effect1_dropShadow"/>
<feBlend mode="normal" in="SourceGraphic" in2="effect1_dropShadow" result="shape"/>
</filter>
<filter id="filter3_d" x="56.8568" y="74.3601" width="14.9818" height="12.2996" filterUnits="userSpaceOnUse" color-interpolation-filters="sRGB">
<feFlood flood-opacity="0" result="BackgroundImageFix"/>
<feColorMatrix in="SourceAlpha" type="matrix" values="0 0 0 0 0 0 0 0 0 0 0 0 0 0 0 0 0 0 127 0"/>
<feOffset dy="4"/>
<feGaussianBlur stdDeviation="2"/>
<feColorMatrix type="matrix" values="0 0 0 0 0 0 0 0 0 0 0 0 0 0 0 0 0 0 0.25 0"/>
<feBlend mode="normal" in2="BackgroundImageFix" result="effect1_dropShadow"/>
<feBlend mode="normal" in="SourceGraphic" in2="effect1_dropShadow" result="shape"/>
</filter>
<filter id="filter4_d" x="34.0063" y="21.1509" width="15.3691" height="15.65" filterUnits="userSpaceOnUse" color-interpolation-filters="sRGB">
<feFlood flood-opacity="0" result="BackgroundImageFix"/>
<feColorMatrix in="SourceAlpha" type="matrix" values="0 0 0 0 0 0 0 0 0 0 0 0 0 0 0 0 0 0 127 0"/>
<feOffset dy="4"/>
<feGaussianBlur stdDeviation="2"/>
<feColorMatrix type="matrix" values="0 0 0 0 0 0 0 0 0 0 0 0 0 0 0 0 0 0 0.25 0"/>
<feBlend mode="normal" in2="BackgroundImageFix" result="effect1_dropShadow"/>
<feBlend mode="normal" in="SourceGraphic" in2="effect1_dropShadow" result="shape"/>
</filter>
<filter id="filter5_d" x="1.75269" y="8.53345" width="108.275" height="111.402" filterUnits="userSpaceOnUse" color-interpolation-filters="sRGB">
<feFlood flood-opacity="0" result="BackgroundImageFix"/>
<feColorMatrix in="SourceAlpha" type="matrix" values="0 0 0 0 0 0 0 0 0 0 0 0 0 0 0 0 0 0 127 0"/>
<feOffset dy="4"/>
<feGaussianBlur stdDeviation="2"/>
<feColorMatrix type="matrix" values="0 0 0 0 0 0 0 0 0 0 0 0 0 0 0 0 0 0 0.25 0"/>
<feBlend mode="normal" in2="BackgroundImageFix" result="effect1_dropShadow"/>
<feBlend mode="normal" in="SourceGraphic" in2="effect1_dropShadow" result="shape"/>
</filter>
<filter id="filter6_d" x="31.6936" y="0.225342" width="50.2191" height="50.8032" filterUnits="userSpaceOnUse" color-interpolation-filters="sRGB">
<feFlood flood-opacity="0" result="BackgroundImageFix"/>
<feColorMatrix in="SourceAlpha" type="matrix" values="0 0 0 0 0 0 0 0 0 0 0 0 0 0 0 0 0 0 127 0"/>
<feOffset dy="4"/>
<feGaussianBlur stdDeviation="2"/>
<feColorMatrix type="matrix" values="0 0 0 0 0 0 0 0 0 0 0 0 0 0 0 0 0 0 0.25 0"/>
<feBlend mode="normal" in2="BackgroundImageFix" result="effect1_dropShadow"/>
<feBlend mode="normal" in="SourceGraphic" in2="effect1_dropShadow" result="shape"/>
</filter>
<filter id="filter7_d" x="4.14294" y="0.631348" width="108.811" height="117.195" filterUnits="userSpaceOnUse" color-interpolation-filters="sRGB">
<feFlood flood-opacity="0" result="BackgroundImageFix"/>
<feColorMatrix in="SourceAlpha" type="matrix" values="0 0 0 0 0 0 0 0 0 0 0 0 0 0 0 0 0 0 127 0"/>
<feOffset dy="4"/>
<feGaussianBlur stdDeviation="2"/>
<feColorMatrix type="matrix" values="0 0 0 0 0 0 0 0 0 0 0 0 0 0 0 0 0 0 0.25 0"/>
<feBlend mode="normal" in2="BackgroundImageFix" result="effect1_dropShadow"/>
<feBlend mode="normal" in="SourceGraphic" in2="effect1_dropShadow" result="shape"/>
</filter>
<filter id="filter8_d" x="26.5822" y="23.5125" width="57.8352" height="57.3356" filterUnits="userSpaceOnUse" color-interpolation-filters="sRGB">
<feFlood flood-opacity="0" result="BackgroundImageFix"/>
<feColorMatrix in="SourceAlpha" type="matrix" values="0 0 0 0 0 0 0 0 0 0 0 0 0 0 0 0 0 0 127 0"/>
<feOffset dy="4"/>
<feGaussianBlur stdDeviation="2"/>
<feColorMatrix type="matrix" values="0 0 0 0 0 0 0 0 0 0 0 0 0 0 0 0 0 0 0.25 0"/>
<feBlend mode="normal" in2="BackgroundImageFix" result="effect1_dropShadow"/>
<feBlend mode="normal" in="SourceGraphic" in2="effect1_dropShadow" result="shape"/>
</filter>
<filter id="filter9_d" x="29.8105" y="26.5901" width="51.6068" height="51.0407" filterUnits="userSpaceOnUse" color-interpolation-filters="sRGB">
<feFlood flood-opacity="0" result="BackgroundImageFix"/>
<feColorMatrix in="SourceAlpha" type="matrix" values="0 0 0 0 0 0 0 0 0 0 0 0 0 0 0 0 0 0 127 0"/>
<feOffset dy="4"/>
<feGaussianBlur stdDeviation="2"/>
<feColorMatrix type="matrix" values="0 0 0 0 0 0 0 0 0 0 0 0 0 0 0 0 0 0 0.25 0"/>
<feBlend mode="normal" in2="BackgroundImageFix" result="effect1_dropShadow"/>
<feBlend mode="normal" in="SourceGraphic" in2="effect1_dropShadow" result="shape"/>
</filter>
<filter id="filter10_d" x="39.1989" y="63.9358" width="14.9818" height="12.2996" filterUnits="userSpaceOnUse" color-interpolation-filters="sRGB">
<feFlood flood-opacity="0" result="BackgroundImageFix"/>
<feColorMatrix in="SourceAlpha" type="matrix" values="0 0 0 0 0 0 0 0 0 0 0 0 0 0 0 0 0 0 127 0"/>
<feOffset dy="4"/>
<feGaussianBlur stdDeviation="2"/>
<feColorMatrix type="matrix" values="0 0 0 0 0 0 0 0 0 0 0 0 0 0 0 0 0 0 0.25 0"/>
<feBlend mode="normal" in2="BackgroundImageFix" result="effect1_dropShadow"/>
<feBlend mode="normal" in="SourceGraphic" in2="effect1_dropShadow" result="shape"/>
</filter>
<filter id="filter11_d" x="48.0851" y="63.9275" width="14.9818" height="12.2996" filterUnits="userSpaceOnUse" color-interpolation-filters="sRGB">
<feFlood flood-opacity="0" result="BackgroundImageFix"/>
<feColorMatrix in="SourceAlpha" type="matrix" values="0 0 0 0 0 0 0 0 0 0 0 0 0 0 0 0 0 0 127 0"/>
<feOffset dy="4"/>
<feGaussianBlur stdDeviation="2"/>
<feColorMatrix type="matrix" values="0 0 0 0 0 0 0 0 0 0 0 0 0 0 0 0 0 0 0.25 0"/>
<feBlend mode="normal" in2="BackgroundImageFix" result="effect1_dropShadow"/>
<feBlend mode="normal" in="SourceGraphic" in2="effect1_dropShadow" result="shape"/>
</filter>
<filter id="filter12_d" x="56.9712" y="63.9182" width="14.9818" height="12.2996" filterUnits="userSpaceOnUse" color-interpolation-filters="sRGB">
<feFlood flood-opacity="0" result="BackgroundImageFix"/>
<feColorMatrix in="SourceAlpha" type="matrix" values="0 0 0 0 0 0 0 0 0 0 0 0 0 0 0 0 0 0 127 0"/>
<feOffset dy="4"/>
<feGaussianBlur stdDeviation="2"/>
<feColorMatrix type="matrix" values="0 0 0 0 0 0 0 0 0 0 0 0 0 0 0 0 0 0 0.25 0"/>
<feBlend mode="normal" in2="BackgroundImageFix" result="effect1_dropShadow"/>
<feBlend mode="normal" in="SourceGraphic" in2="effect1_dropShadow" result="shape"/>
</filter>
<filter id="filter13_d" x="39.0852" y="74.3787" width="14.9818" height="12.2996" filterUnits="userSpaceOnUse" color-interpolation-filters="sRGB">
<feFlood flood-opacity="0" result="BackgroundImageFix"/>
<feColorMatrix in="SourceAlpha" type="matrix" values="0 0 0 0 0 0 0 0 0 0 0 0 0 0 0 0 0 0 127 0"/>
<feOffset dy="4"/>
<feGaussianBlur stdDeviation="2"/>
<feColorMatrix type="matrix" values="0 0 0 0 0 0 0 0 0 0 0 0 0 0 0 0 0 0 0.25 0"/>
<feBlend mode="normal" in2="BackgroundImageFix" result="effect1_dropShadow"/>
<feBlend mode="normal" in="SourceGraphic" in2="effect1_dropShadow" result="shape"/>
</filter>
<filter id="filter14_d" x="39.1387" y="69.4639" width="14.9818" height="12.2996" filterUnits="userSpaceOnUse" color-interpolation-filters="sRGB">
<feFlood flood-opacity="0" result="BackgroundImageFix"/>
<feColorMatrix in="SourceAlpha" type="matrix" values="0 0 0 0 0 0 0 0 0 0 0 0 0 0 0 0 0 0 127 0"/>
<feOffset dy="4"/>
<feGaussianBlur stdDeviation="2"/>
<feColorMatrix type="matrix" values="0 0 0 0 0 0 0 0 0 0 0 0 0 0 0 0 0 0 0.25 0"/>
<feBlend mode="normal" in2="BackgroundImageFix" result="effect1_dropShadow"/>
<feBlend mode="normal" in="SourceGraphic" in2="effect1_dropShadow" result="shape"/>
</filter>
<filter id="filter15_d" x="48.0242" y="69.4551" width="14.9818" height="12.2996" filterUnits="userSpaceOnUse" color-interpolation-filters="sRGB">
<feFlood flood-opacity="0" result="BackgroundImageFix"/>
<feColorMatrix in="SourceAlpha" type="matrix" values="0 0 0 0 0 0 0 0 0 0 0 0 0 0 0 0 0 0 127 0"/>
<feOffset dy="4"/>
<feGaussianBlur stdDeviation="2"/>
<feColorMatrix type="matrix" values="0 0 0 0 0 0 0 0 0 0 0 0 0 0 0 0 0 0 0.25 0"/>
<feBlend mode="normal" in2="BackgroundImageFix" result="effect1_dropShadow"/>
<feBlend mode="normal" in="SourceGraphic" in2="effect1_dropShadow" result="shape"/>
</filter>
<filter id="filter16_d" x="47.9712" y="74.3691" width="14.9818" height="12.2996" filterUnits="userSpaceOnUse" color-interpolation-filters="sRGB">
<feFlood flood-opacity="0" result="BackgroundImageFix"/>
<feColorMatrix in="SourceAlpha" type="matrix" values="0 0 0 0 0 0 0 0 0 0 0 0 0 0 0 0 0 0 127 0"/>
<feOffset dy="4"/>
<feGaussianBlur stdDeviation="2"/>
<feColorMatrix type="matrix" values="0 0 0 0 0 0 0 0 0 0 0 0 0 0 0 0 0 0 0.25 0"/>
<feBlend mode="normal" in2="BackgroundImageFix" result="effect1_dropShadow"/>
<feBlend mode="normal" in="SourceGraphic" in2="effect1_dropShadow" result="shape"/>
</filter>
<filter id="filter17_d" x="47.9174" y="79.2832" width="14.9818" height="12.2996" filterUnits="userSpaceOnUse" color-interpolation-filters="sRGB">
<feFlood flood-opacity="0" result="BackgroundImageFix"/>
<feColorMatrix in="SourceAlpha" type="matrix" values="0 0 0 0 0 0 0 0 0 0 0 0 0 0 0 0 0 0 127 0"/>
<feOffset dy="4"/>
<feGaussianBlur stdDeviation="2"/>
<feColorMatrix type="matrix" values="0 0 0 0 0 0 0 0 0 0 0 0 0 0 0 0 0 0 0.25 0"/>
<feBlend mode="normal" in2="BackgroundImageFix" result="effect1_dropShadow"/>
<feBlend mode="normal" in="SourceGraphic" in2="effect1_dropShadow" result="shape"/>
</filter>
<filter id="filter18_d" x="39.0317" y="79.2917" width="14.9818" height="12.2996" filterUnits="userSpaceOnUse" color-interpolation-filters="sRGB">
<feFlood flood-opacity="0" result="BackgroundImageFix"/>
<feColorMatrix in="SourceAlpha" type="matrix" values="0 0 0 0 0 0 0 0 0 0 0 0 0 0 0 0 0 0 127 0"/>
<feOffset dy="4"/>
<feGaussianBlur stdDeviation="2"/>
<feColorMatrix type="matrix" values="0 0 0 0 0 0 0 0 0 0 0 0 0 0 0 0 0 0 0.25 0"/>
<feBlend mode="normal" in2="BackgroundImageFix" result="effect1_dropShadow"/>
<feBlend mode="normal" in="SourceGraphic" in2="effect1_dropShadow" result="shape"/>
</filter>
<filter id="filter19_d" x="38.9706" y="84.8186" width="14.9818" height="12.2996" filterUnits="userSpaceOnUse" color-interpolation-filters="sRGB">
<feFlood flood-opacity="0" result="BackgroundImageFix"/>
<feColorMatrix in="SourceAlpha" type="matrix" values="0 0 0 0 0 0 0 0 0 0 0 0 0 0 0 0 0 0 127 0"/>
<feOffset dy="4"/>
<feGaussianBlur stdDeviation="2"/>
<feColorMatrix type="matrix" values="0 0 0 0 0 0 0 0 0 0 0 0 0 0 0 0 0 0 0.25 0"/>
<feBlend mode="normal" in2="BackgroundImageFix" result="effect1_dropShadow"/>
<feBlend mode="normal" in="SourceGraphic" in2="effect1_dropShadow" result="shape"/>
</filter>
<filter id="filter20_d" x="47.8572" y="84.8105" width="14.9818" height="12.2996" filterUnits="userSpaceOnUse" color-interpolation-filters="sRGB">
<feFlood flood-opacity="0" result="BackgroundImageFix"/>
<feColorMatrix in="SourceAlpha" type="matrix" values="0 0 0 0 0 0 0 0 0 0 0 0 0 0 0 0 0 0 127 0"/>
<feOffset dy="4"/>
<feGaussianBlur stdDeviation="2"/>
<feColorMatrix type="matrix" values="0 0 0 0 0 0 0 0 0 0 0 0 0 0 0 0 0 0 0.25 0"/>
<feBlend mode="normal" in2="BackgroundImageFix" result="effect1_dropShadow"/>
<feBlend mode="normal" in="SourceGraphic" in2="effect1_dropShadow" result="shape"/>
</filter>
<filter id="filter21_d" x="56.7426" y="84.8025" width="14.9818" height="12.2996" filterUnits="userSpaceOnUse" color-interpolation-filters="sRGB">
<feFlood flood-opacity="0" result="BackgroundImageFix"/>
<feColorMatrix in="SourceAlpha" type="matrix" values="0 0 0 0 0 0 0 0 0 0 0 0 0 0 0 0 0 0 127 0"/>
<feOffset dy="4"/>
<feGaussianBlur stdDeviation="2"/>
<feColorMatrix type="matrix" values="0 0 0 0 0 0 0 0 0 0 0 0 0 0 0 0 0 0 0.25 0"/>
<feBlend mode="normal" in2="BackgroundImageFix" result="effect1_dropShadow"/>
<feBlend mode="normal" in="SourceGraphic" in2="effect1_dropShadow" result="shape"/>
</filter>
<filter id="filter22_d" x="56.8027" y="79.2744" width="14.9818" height="12.2996" filterUnits="userSpaceOnUse" color-interpolation-filters="sRGB">
<feFlood flood-opacity="0" result="BackgroundImageFix"/>
<feColorMatrix in="SourceAlpha" type="matrix" values="0 0 0 0 0 0 0 0 0 0 0 0 0 0 0 0 0 0 127 0"/>
<feOffset dy="4"/>
<feGaussianBlur stdDeviation="2"/>
<feColorMatrix type="matrix" values="0 0 0 0 0 0 0 0 0 0 0 0 0 0 0 0 0 0 0.25 0"/>
<feBlend mode="normal" in2="BackgroundImageFix" result="effect1_dropShadow"/>
<feBlend mode="normal" in="SourceGraphic" in2="effect1_dropShadow" result="shape"/>
</filter>
</defs>
</svg>
